<?xml version="1.0" standalone="no"?>
<!DOCTYPE svg PUBLIC "-//W3C//DTD SVG 1.1//EN" "http://www.w3.org/Graphics/SVG/1.1/DTD/svg11.dtd" >
<svg xmlns="http://www.w3.org/2000/svg" xmlns:xlink="http://www.w3.org/1999/xlink" version="1.1">
<metadata>
Created by FontForge 20161013 at Tue Feb  8 14:44:23 2011
 By ,,,
Copyright (c) Suomi Type Foundry, Suomi Finland, 2008. All rights reserved.
</metadata>
<defs>
<font id="SuomiHand-Script" horiz-adv-x="340" >
  <font-face 
    font-family="SuomiHand Sc"
    font-weight="500"
    font-stretch="normal"
    units-per-em="1000"
    panose-1="2 0 6 8 3 0 0 2 0 4"
    ascent="650"
    descent="-350"
    x-height="314"
    cap-height="560"
    bbox="-237 -391 1724 742"
    underline-thickness="20"
    underline-position="-180"
    unicode-range="U+0020-FB06"
  />
<missing-glyph horiz-adv-x="500" 
 />
    <glyph glyph-name="ij" unicode="ij" horiz-adv-x="319" 
d="M59 451q0 13 9.5 22t23.5 9q41 0 41 -26q0 -4 -2.5 -6.5t-8 -6t-8.5 -6.5q-13 -17 -26 -17q-29 0 -29 31zM272 404q-12 0 -25.5 13.5t-13.5 28.5q0 28 34 28q8 0 22.5 -11t14.5 -25q0 -13 -10 -23.5t-22 -10.5zM151 -295q-8 0 -11.5 1t-6 4.5t-2.5 10.5q0 16 16 33
q44 43 62 82t27.5 127.5t9.5 268.5q0 6 -3 8t-7 -4q-82 -130 -146 -265q-1 -3 -4 -9t-4.5 -8.5t-4 -6t-5.5 -5t-6 -1.5q-5 0 -14 7t-12 8q-15 6 -15 28q0 8 7 97.5t7 113.5q0 33 0.5 56.5t0.5 24.5q0 29 8 35q3 2 8.5 6.5t9.5 7t7 2.5q25 0 25 -24q0 -2 3.5 -10t3.5 -25
q0 -3 -6 -16.5t-6 -18.5q0 -30 -8.5 -109.5t-8.5 -84.5q0 -20 12 -4q14 19 35.5 47.5t29.5 41t22 41.5t31 72q9 28 13 34q3 4 6.5 12t7.5 13q15 13 29 13q1 0 19 -9q22 -9 22 -21q0 -4 -7 -31t-7 -35q0 -217 -10 -285t-39 -110q-8 -13 -17.5 -25.5t-13 -18t-3.5 -7.5
q0 -1 -31 -32q-2 -3 -6 -11.5t-8 -13.5t-10 -5z" />
    <glyph glyph-name="hv" unicode="hv" horiz-adv-x="634" 
d="M235 -48q-12 0 -27 19.5t-20 58.5q-3 22 -6 101t-3 83q-3 20 -7 20q-3 0 -9 -6q-14 -13 -50 -73.5t-42 -96.5q-2 -8 -3 -16l-2 -16q-1 -2 -0.5 -10.5t-1.5 -14.5q0 -2 -2.5 -3.5t-3.5 -4.5q-1 -8 -8.5 -14.5t-11.5 -6.5q-25 0 -25 35q0 6 4 31q5 13 5 16q16 119 16 346
q0 11 -1 16.5t-2 7t-1 2.5t-4 10l-5 8q0 14 12 19q4 2 12 7.5t15 5.5q5 0 10 -7t5 -13q0 -4 1 -12.5t1 -10.5t3.5 -11t3.5 -11q0 -5 -2 -12t-2 -9q-6 -70 -6 -218q0 -5 1 -8t3.5 -2t4.5 8q6 19 12.5 32.5t10.5 19.5t14.5 20t17.5 24q2 3 4.5 10.5t4.5 10.5q27 33 57 33
q14 0 16 -21q0 -2 -1 -9t0 -11q0 -8 7 -22q3 -26 9 -113.5t7 -95.5q2 -19 11 -19q7 0 14 13q18 46 41 98t39.5 86.5t18.5 38.5q3 8 7.5 12.5t10.5 7t9 5.5q5 2 6 1t4 -4.5t6 -4.5q20 -4 20 -23q0 -12 0.5 -22.5t0.5 -11.5q0 -130 3 -155q3 -32 10 -32q11 0 28 21
q41 54 78 130.5t42 101.5q1 5 -2.5 9t-3.5 8q0 14 17 14q5 0 10 -5.5t8 -5.5q2 0 4.5 -2.5t5 -6t3.5 -4.5q5 -3 5 -20q0 -2 -3.5 -4t-8 -5.5t-6.5 -7.5q-21 -31 -68 -122t-59 -113q-34 -59 -68 -59q-28 0 -36 63q-9 60 -9 188q0 16 -9 4q-49 -90 -73 -158q-1 -2 -1 -15.5
t-1 -15.5q0 -1 -1 -3t-1 -4q-28 -74 -63 -74z" />
    <glyph glyph-name="oi" unicode="oi" horiz-adv-x="378" 
d="M355 427q-14 0 -28.5 15.5t-14.5 28.5t11 23t27 10q8 0 16 -5t8 -13q0 -6 9 -14.5t9 -15.5q0 -11 -10 -20t-27 -9zM61 -40q-15 0 -28 17t-13 39q0 144 36 238.5t75 94.5q18 0 22 -12q2 -9 10 -9q16 -1 27 -16t10 -39q-2 -8 7.5 -18t23.5 -10q11 0 28.5 8t29.5 22
q2 3 5.5 7.5t5.5 7t5.5 5.5t6.5 4.5t7 1.5q16 0 28.5 -5t12.5 -11q0 -13 -10 -35q-5 -8 -10.5 -53.5t-5.5 -76.5q0 -74 4 -98q0 -1 4.5 -6.5t4.5 -8.5q0 -12 -4.5 -23t-11.5 -11q-45 0 -45 41q0 2 -3.5 17t-3.5 17q0 27 6.5 98.5t11.5 98.5q1 4 -1 4t-4 -3q-11 -16 -33 -32
t-41 -16q-16 0 -28 6q-7 4 -9 -4q-24 -119 -57 -179.5t-63 -60.5zM66 7q14 0 43.5 85t29.5 119q0 15 -12 27q-1 2 -4 7t-5.5 8.5t-5.5 3.5q-7 0 -12 -7q-6 -7 -15.5 -36.5t-19 -81.5t-9.5 -102q0 -23 10 -23z" />
    <glyph glyph-name="yr" unicode="yr" horiz-adv-x="582" 
d="M172 -328q-36 0 -36 47q0 54 69 216q10 25 11 50q12 144 16 182q4 30 4 39q0 4 -3.5 7.5t-6.5 0.5q-76 -70 -139 -185q-23 -38 -59 -38q-4 0 -8 2.5t-5.5 4.5t-4.5 7l-3 5q-9 13 -8 27q3 32 13 80.5t18 84t8 40.5q0 17 -3.5 30t-3.5 17q0 10 2.5 16.5t4.5 8.5t8.5 6
t7.5 5q18 14 42 6q2 -1 4 -4t3.5 -7t2.5 -6q8 -18 8 -23q0 -18 -9 -37q-12 -25 -28 -86t-19 -91q-1 -11 4.5 -11.5t9.5 6.5q11 22 95 122q3 4 8.5 15.5t8.5 14.5q5 5 13 11t10 8q5 5 12 15.5t11 13.5q9 8 24 8t29 -12q15 -13 15 -26q0 -10 -4.5 -28t-5.5 -23
q-3 -24 -5.5 -40t-4 -20.5t-2 -7.5t-0.5 -5v-9q0 -5 1.5 -7t3.5 -1.5t4 3.5q37 63 82 149q2 3 6.5 17.5t10 21.5t15.5 7q32 0 41 -14q3 -4 12 -19q3 -6 3 -110q0 -9 -1.5 -27t-1.5 -31q0 -6 3.5 -6.5t4.5 7.5q7 31 31.5 88.5t43.5 79.5q7 8 12.5 15.5t8.5 10.5t4.5 5.5t5 3
t4.5 0.5h8q10 0 17.5 4t13.5 4q3 0 8 -4.5t7 -4.5q5 0 10.5 -7t5.5 -15q0 -11 -14.5 -24t-34.5 -13q-7 0 -15.5 -3.5t-22.5 -16t-27 -34t-27.5 -62t-25.5 -93.5q-3 -15 -12 -42q-3 -20 -35 -20q-9 0 -16.5 7.5t-7.5 20.5q0 2 2.5 14.5t5 39.5t2.5 64q0 92 -11 125
q-3 9 -12 0q-15 -15 -20 -27q-2 -4 -14 -18.5t-15 -20.5q-42 -77 -78 -171q-10 -20 -10 -42q0 -129 -23 -210t-57 -81zM173 -284q4 0 10 18.5t13.5 53t11.5 72.5q2 12 -4 12q-3 0 -7 -10q-11 -27 -21.5 -73t-10.5 -63q0 -10 8 -10z" />
    <glyph glyph-name="lj" unicode="lj" horiz-adv-x="329" 
d="M239 449q0 13 14.5 27t28.5 14q15 0 24.5 -13.5t9.5 -33.5q0 -8 -11 -23t-25 -15q-5 0 -9 3t-10 9l-8 8q-14 17 -14 24zM88 -325q-27 0 -34.5 2.5t-7.5 12.5q0 3 -5.5 8.5t-5.5 12.5q0 6 3 9t6.5 3.5t10 0.5h8.5q41 6 57 24q4 3 15.5 8.5t16.5 9.5q106 127 106 473
q0 6 -4 7.5t-8 -3.5q-24 -32 -67.5 -109t-74.5 -145q-1 -2 -2.5 -5.5t-2.5 -5t-2.5 -4.5l-2 -4t-2 -3t-3 -3l-3 -2t-3.5 -1.5t-4 -0.5q-4 0 -9 2.5t-11 6t-10 4.5q-15 9 -15 30q0 73 5 176.5t10.5 179.5t5.5 83q0 30 10 37q21 15 25 15q25 0 25 -24q0 -3 -2 -11t-2 -24v-37
q-11 -43 -20 -181t-9 -173q0 -10 3.5 -11.5t9.5 6.5q6 11 36 56t50 81t31 68v15.5t4 19.5q3 4 6.5 12.5t6.5 12.5q17 14 31 14q6 0 26 -8q26 -13 26 -27q0 -5 -4 -17.5t-4 -19.5q0 -134 -19 -240.5t-45 -166t-58 -99t-55.5 -52.5t-38.5 -13z" />
    <glyph glyph-name="nj" unicode="nj" horiz-adv-x="497" 
d="M439 428q-13 0 -23.5 15t-10.5 27q0 32 27 32q15 0 29.5 -9t14.5 -23q0 -4 -2 -8t-6.5 -9t-6.5 -8q-17 -17 -22 -17zM366 -339q-21 0 -21 45q0 2 -1 7t-1 9q0 3 19 81t38 204t19 245q0 4 -2.5 5.5t-4.5 -1.5q-30 -40 -62.5 -100.5t-43.5 -107.5q-13 -46 -27 -46
q-10 0 -17.5 3.5t-14.5 9t-8 5.5q-10 6 -10 14q0 2 1.5 23t-0.5 24q-1 24 -7 57t-12.5 58.5t-6.5 28.5q-1 5 -4.5 10t-5.5 5q-6 0 -10 -6q-33 -33 -66 -97q-8 -16 -12.5 -26.5t-5.5 -16t-4 -19.5t-7 -29q-1 -5 -1 -26q0 -3 -13 -7q-18 -11 -33 -11q-24 0 -24 36
q0 1 2.5 10.5t3.5 15.5q12 170 12 197q0 5 5 16t5 14q0 11 5 24q7 11 35 11q6 0 14 -7.5t8 -18.5q0 -7 -8 -31t-8 -31q-2 -31 -4.5 -54.5t-3.5 -32.5t-1 -18q0 -4 3 -5.5t5 3.5q46 102 78 145q38 46 61 46q8 0 16.5 -9t10.5 -22q0 -3 -0.5 -21t0.5 -22q15 -107 17 -139
q3 -15 12 -5q42 45 73 121q31 69 39 78q8 10 50 10q6 0 11 -5.5t5 -9.5l2 -8q1 -8 1 -14q0 -73 -18.5 -202t-36.5 -230t-18 -105q0 -9 -1 -17t-1 -20q0 -7 -2 -11t-5.5 -8t-5.5 -7q0 -1 -1 -4.5t-2 -5.5t-3.5 -3.5t-6.5 -1.5z" />
    <glyph glyph-name="dz" unicode="dz" horiz-adv-x="638" 
d="M399 -22q-28 0 -28 13q0 8 -8 14q-6 5 -6 15q0 8 14 18t20 11q23 9 33 22q26 34 88 100.5t67 72.5q4 6 4 9q0 4 -12 4q-76 0 -135 -40q-2 -1 -12.5 -3.5t-12.5 -4.5q-15 -16 -28.5 -42.5t-34.5 -74.5t-41 -87q-10 -18 -21 -18t-20 11.5t-11 25.5q-8 45 -8 102
q-1 11 -1.5 20.5t-0.5 12.5q0 8 -6 8q-4 0 -8 -6q-3 -5 -10 -11.5t-9 -8.5q-21 -24 -48.5 -62.5t-57.5 -67.5q-32 -33 -66 -33q-18 0 -28.5 12.5t-10.5 33.5q0 94 64 181.5t128 87.5q18 0 29 -12t13 -29q1 -7 6 -5q2 1 2 4q0 24 1.5 63t3.5 69t2 32q0 3 -2.5 11.5t-2.5 10.5
q0 19 19 19q14 0 25 -7.5t11 -17.5q0 -1 -3.5 -19t-7 -69.5t-3.5 -134.5q0 -148 12 -148h1.5t2.5 0.5t3 1.5t3 3.5t4 6t4 8.5q4 9 17 36.5t17.5 36.5t16.5 29.5t21.5 30.5t25.5 23t34 23q63 32 91 39.5t70 7.5q14 0 23 -9.5t9 -24.5t-23.5 -48t-65.5 -65q-3 -3 -12.5 -8.5
t-13.5 -9.5q-11 -11 -16.5 -17.5t-7 -10t-5.5 -11.5t-9 -17q-6 -8 -6 -9q0 -2 17 -2q14 0 69 1t61 1q35 0 35 -11q0 -9 -7 -10q-7 -5 -10 -7t-18 -3.5t-45 -1.5q-50 0 -142 -27q-9 -2 -11 -16q-9 -22 -32 -22zM53 18q6 0 15 9q62 62 125 139q11 13 20 23.5t13.5 15t7.5 8
t4 5.5t1 5q0 7 -11 7q-15 0 -22 5t-11 5q-47 0 -101.5 -75t-54.5 -129q0 -18 14 -18z" />
    <glyph glyph-name="ts" unicode="ts" horiz-adv-x="382" 
d="M210 -91q-27 0 -43 14.5t-16 30.5q0 32 62 59q30 12 41 19q26 11 20 26q-1 3 -8.5 20t-11.5 27t-9.5 27t-8 34t-2.5 34q0 23 10 42q4 6 1.5 9t-14.5 2q-10 -1 -35 -14t-30 -15q-25 -10 -26 -33q-4 -42 -10 -100t-7 -68q-1 -12 0.5 -28t1.5 -19q0 -6 -7 -11.5t-8 -7.5
q-23 -39 -32 -39q-21 0 -18 36q2 27 19.5 119t18.5 119q0 16 -16 16q-8 0 -11.5 -1t-8.5 -4t-9 -5q-6 -2 -16.5 -11.5t-19.5 -9.5q-29 0 -29 27q0 5 4.5 9.5t4.5 10.5q0 2 2.5 3.5t7.5 3.5t7 3q10 6 58 17q29 6 32 26q9 74 9 158q0 1 -3.5 10t-3.5 17q0 7 18 18q17 15 21 15
q5 0 12 -6t7 -16q0 -40 -3 -81t-7 -75t-4 -39q-1 -8 3 -10t16 -1q7 1 23 5l38 9.5t36 8.5q13 2 40.5 11.5t41.5 9.5q34 0 34 -12q0 -30 -44 -43q-35 -10 -50 -21t-15 -38q0 -40 27 -95.5t27 -90.5q0 -34 -40 -68t-77 -34zM214 -46q19 0 41 16t25 38q0 9 -8 6q-4 -2 -11.5 -6
t-12.5 -6.5t-8 -4.5q-39 -21 -39 -33q0 -4 4.5 -7t8.5 -3z" />
    <glyph glyph-name="nu" unicode="nu" horiz-adv-x="672" 
d="M625 -23q-6 0 -16 5t-10 13q0 3 -4.5 9.5t-4.5 12.5q0 24 2 67t3.5 64.5t-0.5 38.5q-3 11 -4 11q-6 0 -9 -6q-5 -7 -20.5 -30t-31.5 -44t-33 -39q-4 -4 -9 -13t-6 -11q-49 -61 -99 -61q-17 0 -17 29q0 40 11.5 90.5t26 95t16.5 57.5q1 7 0 7t-8 -4q-16 -12 -49.5 -70
t-53.5 -116q-5 -12 -8 -22q-19 -61 -45 -61q-3 0 -10 4t-9 5q-8 4 -12 7.5t-8.5 14.5t-6.5 29q-1 5 0 18t1 17q0 2 -3.5 40.5t-4.5 65.5q-1 17 -9 17q-4 0 -9 -5l-11 -9q-12 -10 -20.5 -18t-22 -24t-23.5 -34l-13.5 -27t-18.5 -42.5t-16 -52.5q-1 -6 -8 -12.5t-11 -6.5
q-12 0 -23.5 9t-11.5 25q0 1 1 4t2 8.5t2 9.5q28 186 28 197q0 6 3.5 14.5t3.5 13.5q0 17 30 17q11 0 19 -5.5t8 -13.5q0 -11 -5 -19q0 -1 -2.5 -4t-2.5 -6q0 -2 -3 -10.5t-3 -10.5q-9 -39 -9 -69q0 -16 8 -2q1 2 61 73q2 2 6.5 10.5t7.5 11.5q6 9 18 23q7 9 23 20.5
t27 11.5q18 0 26 -40q1 -4 3.5 -83.5t4.5 -91.5q0 -5 2.5 -7.5t5 -1t3.5 6.5q23 65 70.5 142.5t86.5 101.5q11 8 36 8q8 0 17.5 -10.5t9.5 -18.5t-24 -58q-16 -37 -29.5 -91.5t-13.5 -72.5q0 -12 7 -12q18 0 57 49q49 58 74 106q3 5 7.5 15.5t6.5 15.5q10 23 15.5 29t13.5 6
q3 0 27 -12q13 -7 13 -17q0 -3 1.5 -8t1.5 -8q0 -39 -4.5 -95t-4.5 -64q0 -34 7 -57q7 -21 7 -27t-11 -14q-18 -9 -20 -9z" />
    <glyph glyph-name="xi" unicode="xi" horiz-adv-x="487" 
d="M441 422q0 14 17 25t31 11q13 0 21.5 -10t8.5 -24q0 -16 -7 -24q-15 -15 -32 -15q-13 0 -26 15t-13 22zM22 -39q-2 0 -8 6t-11 6t-5 27q0 7 4.5 19.5t4.5 14.5q9 29 77 112l19.5 19.5l19.5 19.5q7 4 7 11q0 8 -5 11q-4 5 -13.5 18.5t-18 24.5t-13.5 14q-3 2 -16.5 6.5
t-16.5 4.5q-7 0 -13.5 5t-6.5 12q0 26 35 26q1 0 16 -5q13 -4 18 -10q3 -3 6 -8t6 -7q8 -7 28.5 -31.5t24.5 -28.5q6 -4 11 -4t11 4q10 6 34 23.5t41 27t29 9.5q27 0 27 -23q0 -13 -6.5 -23t-16.5 -10q-13 0 -40.5 -14t-42.5 -24q-8 -6 -8 -11t5 -12q43 -62 54 -73t18 -1
q41 41 77 98q12 20 31 59l19 40q16 23 31 23q7 0 29 -6q16 -4 16 -39q0 -11 -21 -94.5t-21 -93.5q0 -9 8 -31t8 -33q0 -26 -13 -26q-7 0 -17 4t-16 4q-31 0 -31 34q0 2 -1 7t-1 8q0 5 24 87t24 98q0 7 -5.5 9.5t-10.5 -2.5q-19 -26 -42.5 -69t-43.5 -70q-1 -1 -5 -10t-7 -13
q-46 -64 -54 -64q-17 0 -25 23q-16 49 -62 113q-4 5 -16 5q-6 0 -12 -8q-2 -2 -11 -8l-16.5 -11t-10.5 -9q-17 -20 -39 -58t-22 -51q0 -9 3 -19t3 -14q0 -6 -6 -12.5t-19 -6.5z" />
    <glyph glyph-name="El" unicode="El" horiz-adv-x="449" 
d="M69 -98q-43 0 -43 69q0 7 2 23t2 24v29.5t-0.5 38.5t-0.5 24q0 45 -6 48q-11 9 -11 22q0 10 17 19q7 4 9 17q11 96 22 154q1 8 -1 9t-10 -2q-8 -4 -15 -4q-23 0 -23 20q0 17 13.5 28t47.5 29q12 7 14 14q0 1 0.5 4t1 4.5t1.5 4t2.5 3.5t4 3t6 2.5t7.5 0.5q8 0 20 -7
q7 -7 19 -4q77 19 172 19q27 0 27 -14q0 -17 -25 -18q-116 -8 -194 -35q-13 -5 -17 -18q-19 -80 -32 -192q-1 -8 1.5 -11t12.5 -2q236 22 298 165q9 21 12 46q1 8 8 19q11 13 29 13q2 0 13 -8q14 -8 14 -16q0 -2 -0.5 -5t-2 -9.5t-2.5 -13.5q-2 -11 -7.5 -21.5t-7.5 -15.5
q-50 -158 -50 -362q0 -18 4 -29t4 -16q0 -15 -11 -25t-18 -10q-9 0 -14 3.5t-7 12.5t-2.5 14.5t0 19.5t0.5 17q0 155 38 314q1 6 -1 8.5t-5 1.5t-5 -3q-20 -37 -104.5 -81.5t-183.5 -62.5q-13 -2 -15 -22q-8 -32 -8 -41v-69q0 -4 -0.5 -10t-0.5 -9t1.5 -6.5t1.5 -5.5
q1 -4 1 -30q0 -16 20 -16q18 0 84 25.5t70 25.5q18 0 18 -14q0 -12 -19 -23q-28 -18 -94 -40.5t-82 -22.5z" />
    <glyph glyph-name="Em" unicode="Em" horiz-adv-x="807" 
d="M75 -140q-26 0 -36 17t-10 56q0 8 2 25.5t2 26.5v30.5t-0.5 40.5t-0.5 26q0 22 -10 28q-12 9 -12 24q0 11 19 21q9 6 10 19q13 127 18 155q1 9 -2 11t-11 -2t-16 -4q-26 0 -26 21q0 20 15 32t53 31q12 6 15 17q0 1 1 5t2 5.5t2.5 4.5t4 4.5t6.5 2.5t10 1q13 0 22 -7
q8 -7 21 -4q91 20 192 20q29 0 29 -15q0 -20 -27 -21q-129 -7 -216 -38q-15 -6 -19 -21q-9 -40 -25 -171q-2 -10 2 -14t13 -1q39 12 154 37.5t139 25.5q9 0 19 -8t10 -15q0 -2 1.5 -14t1.5 -22q0 -8 -16.5 -55.5t-17.5 -59.5q-1 -15 1 -15q3 0 9 7q18 18 20 23q3 9 33 34
q5 5 12 14.5t9 11.5t10.5 14.5t18.5 22.5q16 14 34.5 36.5t31.5 35t24 12.5q8 0 14 -9.5t6 -21.5q0 -22 -1 -28q-2 -16 -7 -41l-8.5 -42.5t-3.5 -21.5q0 -1 1 -3t4 -2t6 4q8 8 15 17q1 2 4 6t5 6q2 3 7.5 8t6.5 7q1 1 9 8.5t14 13.5q18 18 26 24.5t18.5 12.5t20.5 6
q8 0 23 -30q7 -15 14.5 -54.5t7.5 -59.5q0 -3 3.5 -11.5t3.5 -13.5q0 -9 -10.5 -17t-22.5 -8q-11 0 -15.5 7t-4.5 26q0 15 -6.5 52t-11.5 46q-3 5 -15 5q-4 0 -9 -3.5t-13.5 -13t-15.5 -18.5t-21.5 -28t-26.5 -34q-2 -3 -7 -9q-48 -58 -62 -61q-16 0 -16 34q0 14 16.5 81.5
t17.5 81.5q0 6 -4 6q-3 0 -4 -2q-13 -12 -51 -62q-4 -6 -17.5 -22t-16.5 -20q-7 -10 -19 -23.5t-15 -17.5q-13 -17 -22 -35.5t-13.5 -24t-15.5 -5.5q-42 0 -42 14q0 8 1 21.5t0 22.5q-1 18 8.5 80.5t9.5 65.5q0 10 -10 10q-41 0 -123.5 -20.5t-126.5 -37.5q-15 -6 -17 -25
q-8 -72 -8 -96q0 -3 0.5 -10t0.5 -10q0 -4 -1.5 -10t-1.5 -10t2.5 -8.5t2.5 -6.5q1 -5 1 -32q0 -19 21 -19q103 0 168 5.5t88 10.5l23 6q7 0 10.5 -0.5t6 -3.5t2.5 -9q0 -15 -22 -24q-21 -9 -149.5 -22t-153.5 -13z" />
    <glyph glyph-name="En" unicode="En" horiz-adv-x="674" 
d="M87 -95q-49 0 -49 77q0 8 2 25.5t2 26.5v25.5t-0.5 30.5t-0.5 20q0 23 -9 29q-13 9 -13 23q0 9 19 22q5 3 10 19q9 31 9 151q0 9 -2.5 10.5t-10.5 -2.5t-16 -4q-26 0 -26 21q0 5 2 10t4 9t6.5 8.5t7.5 7t9.5 6t9 5t9.5 5t8 4.5q11 6 14 16q0 1 1 5t2 5.5l3 4.5t4 4.5
t6.5 2.5t10.5 1q12 0 21 -7t22 -4q136 30 204 30q29 0 29 -16q0 -19 -27 -20q-130 -8 -216 -39q-12 -4 -19 -20q-7 -17 -11.5 -74.5t-4.5 -92.5q0 -11 3 -15t12 -1q20 6 88.5 25t129 35t62.5 17q26 7 32 7t22 -13q11 -16 11 -28q0 -2 -3.5 -11t-3.5 -15q0 -16 -4 -35
q-20 -103 -20 -105q0 -1 1 -3t4 -2t7 4q2 2 29.5 60.5t46.5 81.5q47 54 79 54q8 0 15 -13t8 -21q1 -3 9 -40t14.5 -72t6.5 -55q0 -14 7 -42q3 -11 3 -32t-14 -21q-4 0 -9.5 1.5t-9.5 3t-5 1.5q-11 0 -14 2.5t-3 9.5q0 24 -14.5 108.5t-15.5 90.5q-1 9 -10 9q-19 0 -46 -30
q-2 -2 -8 -17.5t-7 -17.5q-6 -8 -21.5 -41t-29.5 -52q-11 -14 -21.5 -32.5t-16.5 -27t-13 -8.5q-10 0 -23.5 9t-13.5 20q0 14 19 114t20 114q0 7 -12 5q-41 -9 -139.5 -40t-137.5 -47q-16 -6 -17 -24q0 -3 -4 -21t-4 -24q0 -3 0.5 -25.5t0.5 -25.5t-1 -10t-1 -11q0 -3 2 -7
t2 -7q1 -5 -1 -19t-2 -17q0 -18 21 -18q20 0 100.5 32.5t86.5 32.5q24 0 24 -13q0 -15 -21 -24q-43 -20 -120.5 -49.5t-89.5 -29.5z" />
    <glyph glyph-name="Er" unicode="Er" horiz-adv-x="566" 
d="M78 -132q-49 0 -49 77q0 8 2 25.5t2 26.5q1 11 0 28t-1 18q0 53 -6 57q-13 9 -13 23q0 12 19 22q9 6 10 19q1 11 13 88.5t12 107.5q0 76 13 102.5t41 26.5q14 0 22 -8q8 -7 21 -4q67 16 248 16q30 0 30 -16q0 -19 -28 -20q-214 -13 -272 -34q-12 -5 -19 -20
q-8 -22 -20 -99.5t-12 -112.5q0 -11 3 -15t12 -1q7 2 83.5 30t137.5 48t77 20q5 0 13 -6.5t9 -6.5q12 -7 12 -21q0 -29 -4 -54t-7.5 -39.5t-3.5 -17.5q0 -6 3.5 -7.5t5.5 3.5q13 24 33 72t39 82t44 56q24 21 49 21q7 0 11.5 -2.5t6.5 -5t7.5 -12.5t8.5 -15q1 -2 6 -5t5 -8
q0 -16 -10.5 -19t-40.5 -3q-13 0 -33 -9t-28 -19q-11 -16 -22.5 -36.5t-19 -37t-23.5 -52.5t-28 -61q-32 -57 -42 -57q-8 0 -14.5 8t-13.5 8q-15 0 -15 25q0 4 1.5 9t4.5 11.5t4 11.5q15 41 15 117q0 7 -4.5 12.5t-10.5 5.5q-11 0 -36 -7.5t-58.5 -20.5t-60.5 -24
t-60.5 -25.5t-41.5 -17.5q-16 -6 -17 -24q0 -1 -5.5 -33.5t-5.5 -39.5q0 -4 0.5 -11t0.5 -10q0 -4 -1.5 -10t-1.5 -10q0 -3 2.5 -7.5t2.5 -7.5q1 -5 1 -32q0 -19 21 -19q20 0 98.5 31.5t84.5 31.5q20 0 20 -17q0 -15 -21 -24q-5 -2 -29.5 -11.5t-50 -19.5t-53.5 -21
t-48 -17.5t-25 -6.5z" />
    <glyph glyph-name="Es" unicode="Es" horiz-adv-x="479" 
d="M87 -95q-49 0 -49 77q0 8 2 25.5t2 26.5v25.5t-0.5 30.5t-0.5 20q0 23 -9 29q-13 9 -13 23q0 9 19 22q5 3 10 19q7 26 13 85t6 86q0 10 -2.5 11.5t-10.5 -2.5q-7 -5 -16 -5q-26 0 -26 22q0 13 11 24.5t20 16.5t25 13q12 7 15 16q0 1 1 5t2 5.5t2.5 5t4 5t6.5 2.5t10 1
q11 0 22 -7q8 -8 21 -5q126 30 204 30q30 0 30 -15q0 -20 -28 -21q-129 -8 -216 -38q-10 -4 -19 -21q-8 -17 -17 -88t-9 -99q0 -11 3 -15t12 -1q30 9 135 33.5t142 31.5q10 2 37.5 11.5t41.5 9.5q15 0 22 -8t7 -15q0 -13 -7.5 -18t-30.5 -12q-34 -9 -48.5 -20t-14.5 -37
q0 -39 36 -88.5t36 -83.5q0 -40 -37 -69.5t-76 -29.5q-27 0 -42 14.5t-15 29.5q0 8 9 17t26.5 21.5t24.5 18.5q3 3 5.5 7.5t5.5 7t8 2.5q20 0 20 -16q0 -6 -12 -16q-39 -19 -39 -32q0 -4 4.5 -7t8.5 -3q20 0 42 14t22 39q0 31 -35 85.5t-35 84.5q0 22 9 40q1 4 -2 7t-7 3
q-10 0 -108.5 -28.5t-133.5 -42.5q-16 -6 -17 -24q0 -3 -4 -21t-4 -24q0 -3 0.5 -25.5t0.5 -25.5t-1 -10t-1 -11q0 -3 2 -7t2 -7q1 -5 -1 -19t-2 -17q0 -18 21 -18q20 0 77.5 26.5t62.5 26.5q24 0 24 -13q0 -14 -21 -25q-150 -66 -163 -66z" />
    <glyph glyph-name="Ef" unicode="Ef" horiz-adv-x="505" 
d="M340 -329q-14 0 -14 7q0 6 4.5 14t5.5 11q0 1 5 22t8.5 40t7 49.5t3.5 57.5q0 94 39 338q1 7 -7 7q-15 0 -132.5 -29t-153.5 -43q-16 -6 -17 -25q0 -3 -4 -20.5t-4 -24.5q0 -3 0.5 -10t0.5 -10t-1 -10t-1 -10t2 -7.5t2 -7.5q1 -5 1 -93q0 -19 21 -19q20 0 113.5 45
t98.5 45q21 0 21 -16q0 -3 -1 -6t-2 -5t-3.5 -4t-4 -3t-5.5 -3.5t-6 -3.5q-34 -21 -127.5 -62t-107.5 -41q-49 0 -49 77q0 8 2 56t2 57q1 11 0 28t-1 18q0 22 -9 28q-13 9 -13 24q0 11 19 21q5 4 10 20q8 27 16 76t8 70q0 10 -2.5 11.5t-10.5 -2.5t-16 -4q-26 0 -26 21
q0 20 15.5 32.5t53.5 30.5q11 6 14 17q0 1 1 5t2 5.5t2.5 4.5t4 4.5t6.5 2.5t10 1q13 0 22 -7q8 -7 21 -4q91 20 192 20q30 0 30 -15q0 -20 -28 -21q-129 -8 -216 -38q-16 -6 -19 -21q-31 -133 -31 -163q0 -11 3 -14.5t12 -0.5q23 7 151.5 33.5t144.5 31.5q7 3 9 10
q22 99 73.5 175.5t93.5 76.5q5 0 27.5 5t26.5 5q17 0 17 -15q0 -4 -7.5 -9.5t-15.5 -5.5q-6 0 -61 -35q-23 -14 -35 -28q-6 -8 -15.5 -20.5t-13 -18t-10 -16.5t-11 -23t-10.5 -31.5t-13 -47.5q-1 -4 0 -6t5 -1q126 29 134 29q19 0 19 -11q0 -21 -36 -21q-21 0 -39.5 -3
t-32.5 -8t-23 -9t-18.5 -9.5t-11.5 -6.5q-9 -6 -12 -14q-36 -154 -44 -326q0 -5 -3 -17t-3 -18q0 -8 -8 -37.5t-8 -35.5q-3 -44 -14.5 -80t-22.5 -36z" />
    <glyph glyph-name="ve" unicode="ve" horiz-adv-x="546" 
d="M374 -66q-31 0 -47.5 24.5t-16.5 54.5q0 51 21 106q5 13 -5 24q-15 12 -30 35t-18 40q-1 4 -3.5 5.5t-5 0t-3.5 -4.5q-1 -2 -6 -21t-7.5 -26.5t-8.5 -26.5t-11.5 -31t-13 -29t-17 -31.5t-19.5 -27.5q-3 -4 -9 -11.5t-9 -11t-8 -10t-8 -9.5l-7.5 -7.5t-8 -6.5t-7.5 -4.5
t-7.5 -3.5t-7.5 -1q-13 0 -23.5 20t-14.5 45q-1 5 -9.5 49t-15 85t-6.5 66q0 3 -6 31t-6 44q0 25 28 25q4 0 10 -5t10 -6q20 -6 20 -23v-82q0 -38 3.5 -69.5t9 -59t6.5 -31.5q3 -16 9 -16q8 0 27 21q32 36 53.5 80.5t35.5 89t15 47.5q2 4 5 9.5t4 9.5q2 13 22 13
q6 0 12 -6.5t6 -13.5q0 -65 39 -100q9 -7 20 6q39 62 91 104t83 42q16 0 24.5 -10t8.5 -25q0 -45 -40.5 -92t-124.5 -78q-22 -9 -31 -30q-22 -46 -22 -81q0 -19 9 -31.5t23 -12.5q11 0 32.5 14.5t41.5 37.5q13 17 21 17q9 0 9 -13t-7 -25q-54 -73 -109 -73zM414 186
q3 -4 6 -4q26 0 65 37t39 56q0 7 -8 7q-13 0 -57.5 -42t-44.5 -54z" />
    <glyph glyph-name="ge" unicode="ge" horiz-adv-x="574" 
d="M195 -269q-28 0 -28 37q0 19 16.5 69t41.5 92q14 24 14 45q0 59 2.5 111.5t5.5 81.5l3 29q0 9 -6 9q-4 0 -9 -7q-6 -5 -12 -12t-10.5 -12.5t-10.5 -15t-8.5 -14.5t-9.5 -18t-10 -18q-70 -128 -138 -128q-12 0 -22 9.5t-10 25.5q0 46 38 118t88.5 126.5t83.5 54.5
q13 0 26.5 -9t13.5 -16q0 -6 9 -10q20 -10 26.5 -17.5t6.5 -18.5q0 -4 -4.5 -25t-9 -72t-4.5 -127q0 -6 3.5 -7.5t7.5 4.5q18 32 64 76q25 25 38 51q32 66 86 119t92 53q12 0 24 -9t12 -20q0 -40 -31 -73t-131 -95q-28 -28 -36 -44q-14 -35 -14 -77q0 -33 33 -33
q10 0 31.5 13t33.5 26q9 10 23 10q8 0 11.5 -1.5t4 -3.5t0.5 -7q0 -3 -2.5 -5t-7 -5.5t-7.5 -7.5q-13 -20 -44.5 -37.5t-51.5 -17.5q-28 0 -46.5 18t-18.5 41q0 40 5 58q2 5 -0.5 7t-6.5 -2q-12 -8 -33 -32.5t-30 -49.5q-9 -19 -13 -46q-12 -99 -33 -145t-46 -46zM461 174
q3 -3 13 2q75 54 75 76q0 7 -8 7q-19 0 -75 -72q-9 -9 -5 -13zM61 37q10 0 35 28t50 67q26 46 75 113q2 3 2 7q0 2 -1.5 3t-3.5 2t-4 3q-4 10 -10 10q-26 0 -89.5 -94.5t-63.5 -128.5q0 -10 10 -10z" />
    <glyph glyph-name="de" unicode="de" horiz-adv-x="571" 
d="M400 -72q-27 0 -43 17t-16 42q0 41 6 58q2 5 0 6t-8 -1q-5 -2 -43 -26.5t-53 -24.5q-10 0 -15.5 8.5t-5.5 20.5q0 25 4 68t8.5 77t4.5 37q0 8 -6 8q-2 0 -8 -6q-12 -13 -23.5 -31.5t-28 -49t-19.5 -36.5q-25 -46 -63 -79t-74 -33q-9 0 -20.5 13t-11.5 28q0 33 28 102.5
t73.5 130.5t85.5 61q21 0 42.5 -16.5t21.5 -24.5q0 -5 5 -8q4 -3 6 4q3 11 16 85.5t13 86.5q0 10 -3 14t-3 7q0 10 10 23q6 9 15 9q6 0 15 -7q21 -12 21 -23q0 -12 -7 -43q-1 -4 -6 -16.5t-6 -17.5q-42 -235 -42 -322q0 -17 14 -11q67 26 96 85q32 67 86 119.5t93 52.5
q11 0 23 -11t12 -23q0 -43 -34 -80t-127 -83q-28 -25 -36 -44q-13 -32 -13 -70q0 -32 28 -32q18 0 34.5 9t19.5 20q2 6 8 12.5t12 6.5q22 0 22 -22q0 -5 -2.5 -7.5t-8 -4.5t-9.5 -5q-60 -53 -88 -53zM435 159q3 -5 12 2q36 25 64 53t28 38q0 7 -9 7q-13 0 -40 -23t-50 -65
q-6 -11 -5 -12zM50 44q32 0 75 67q40 70 78 122q2 3 2 7q0 2 -1 3t-3.5 2.5t-4.5 2.5q-3 7 -14 16.5t-20 9.5t-19 -9.5t-23.5 -33t-21.5 -38.5t-26 -51q-7 -13 -10 -20q-1 -2 -3 -10l-2 -8q-19 -30 -19 -46q0 -14 12 -14z" />
    <glyph glyph-name="ie" unicode="ie" horiz-adv-x="348" 
d="M110 425q-13 0 -23 11.5t-10 25.5q0 17 12 28.5t28 11.5t31 -25q10 -15 10 -20q0 -15 -14.5 -23.5t-33.5 -8.5zM225 -69q-36 0 -56.5 24t-20.5 52q0 18 9 45q1 5 -0.5 6.5t-7.5 -0.5q-4 -2 -46.5 -32.5t-57.5 -30.5q-21 0 -21 30q0 25 7 71t14 83t7 39t-1 10t-2 21.5
t-1 27.5q0 20 12 27q16 13 39 13q18 0 18 -34q0 -3 -4 -7.5t-4 -8.5q0 -1 1.5 -9t0.5 -12t-22.5 -91t-21.5 -103q0 -15 20 -5q30 18 55 44q29 31 37 51q36 90 66.5 134.5t68.5 44.5q19 0 31.5 -13.5t12.5 -34.5q0 -24 -24.5 -51.5t-95.5 -88.5q-18 -16 -29 -48.5t-11 -63.5
q0 -52 23 -52q29 0 50 23q10 10 24 10q3 0 13 -7q1 -1 3 -2t3 -2.5t1 -3.5q0 -9 -8 -12q-1 -1 -6 -1.5t-7 -2.5q-37 -40 -69 -40zM244 176q73 65 73 90q0 11 -11 11t-34 -30t-33 -65q-2 -8 1 -8z" />
    <glyph glyph-name="ze" unicode="ze" horiz-adv-x="514" 
d="M375 -39q-27 0 -52.5 18t-25.5 59q0 15 2 26t2 12q0 9 -2.5 11t-7.5 -1q-2 -1 -42 -22t-89 -40t-94 -27q-7 -1 -20.5 -8t-18.5 -7q-14 0 -23 9.5t-9 24.5q0 17 28 52q14 18 79 83t81 85q7 10 7 14.5t-14 4.5q-8 0 -54 -4.5t-68 -4.5q-5 0 -10.5 -2t-6.5 -2q-19 0 -19 15
q0 6 6 10q21 15 80 21q1 0 73 9.5t87 9.5q10 0 16 -7.5t6 -14.5q0 -9 -7.5 -16.5t-18.5 -14.5t-15 -11q-5 -5 -12 -20t-17 -23q-79 -65 -144 -142q-4 -4 -4 -9q0 -4 12 -4q47 -1 108 20t105 50q26 18 32 36q34 84 76.5 129t84.5 45q17 0 29 -9t12 -23q0 -38 -29 -74.5
t-114 -80.5q-19 -10 -29 -29q-15 -25 -15 -56q0 -47 26 -47q35 0 65 43q6 8 12 8q9 0 9 -13q0 -6 3 -10.5t3 -8.5t-8 -11t-9 -10q-8 -18 -29 -30.5t-37 -12.5zM385 189q-2 -5 -0.5 -6.5t7.5 1.5q25 15 56 44.5t31 41.5q0 10 -9 10q-10 0 -37.5 -27t-47.5 -64z" />
    <glyph glyph-name="ii" unicode="ii" horiz-adv-x="341" 
d="M113 390q-13 0 -22 10.5t-9 23.5q0 42 26 42q5 0 27 -19q2 -2 7 -5.5t7 -5t4 -5t2 -7.5q0 -14 -13 -24t-29 -10zM304 363q-12 0 -20.5 9.5t-8.5 24.5q0 28 34 28q9 0 18.5 -7t9.5 -21q0 -13 -10.5 -23.5t-22.5 -10.5zM68 -19q-34 0 -34 52q0 25 9 151q2 24 5 46.5t5.5 36
t2.5 17.5q0 8 15 20q2 2 7.5 6t10 6.5t7.5 2.5q25 0 25 -23q0 -18 -18 -47q-1 -3 -2 -7.5t-1.5 -10.5t-1.5 -10q-20 -111 -20 -149q0 -20 12 -4q2 2 24 23t55.5 57.5t62.5 77.5q2 3 6 16.5t7 17.5q20 26 41 26q14 0 28 -7t14 -19q0 -5 -6 -18t-7 -20q-4 -18 -12 -51.5
t-13.5 -58t-5.5 -36.5q0 -8 2.5 -16.5t2.5 -11.5q0 -2 -1 -4t-1 -4q0 -1 4 -7.5t4 -8.5q0 -10 -7.5 -16t-18.5 -6q-14 0 -24.5 8.5t-10.5 19.5q0 18 19 96t19 82q0 10 -11 4q-103 -63 -162 -192q-17 -39 -31 -39z" />
    <glyph glyph-name="ka" unicode="ka" horiz-adv-x="590" 
d="M69 -149q-3 0 -6.5 3.5t-3.5 5.5q-11 24 -11 59q0 13 -1 69t-1 68q0 9 -7.5 18.5t-7.5 17.5q0 13 5.5 26.5t5.5 24.5q0 46 1 109.5t1.5 109.5t0.5 52q0 8 -2.5 29t-2.5 27q0 7 0.5 10.5t4.5 5.5t6.5 2h11.5q3 0 8 -5t7 -6q11 -2 11 -6q0 -5 1.5 -16t1.5 -23l-2 -26
q-3 -27 -5.5 -82t-2.5 -125q0 -9 4 -9q5 0 10 4q62 61 108 118q3 3 9.5 7.5t8.5 6.5q9 9 13 9q6 0 18 -7q11 -11 11 -14q0 -8 -12 -19q-12 -9 -13 -10q-41 -36 -122 -125q-10 -10 -10 -15q0 -8 14 -4q90 30 214 126q90 71 123 71q16 0 26 -10.5t10 -24.5q0 -7 20 -14
q22 -4 22 -24q0 -11 -3.5 -25t-3.5 -21q0 -10 -2 -42.5t-3 -56t2 -55.5q3 -33 4.5 -66.5t2.5 -46.5q0 -4 4 -10.5t4 -13.5q0 -2 -1.5 -3.5t-4.5 -4t-5 -5.5q-12 -18 -19 -18q-22 0 -30 22v17v85q0 46 1.5 77.5t1.5 55.5q0 7 -5 7t-15 -16q-118 -218 -203 -218
q-22 0 -37 15.5t-15 42.5q0 56 23 99t76 103q5 6 3 10.5t-12 -0.5q-147 -82 -206 -123q-11 -7 -11 -26v-147q0 -7 -3 -13t-3 -14q0 -3 0.5 -7t0.5 -6.5t-0.5 -5t-2.5 -3.5t-5 -1zM272 -18q23 0 71 48.5t87 109t39 90.5q0 7 -2 12.5t-5 10t-4 7.5q0 1 -3 5.5t-4.5 6.5t-5 4.5
t-7.5 2.5q-16 0 -37 -25q-65 -72 -103.5 -142.5t-38.5 -116.5q0 -13 13 -13z" />
    <glyph glyph-name="el" unicode="el" horiz-adv-x="424" 
d="M322 -72q-9 0 -18 14q-13 13 -13 30q0 4 -0.5 17t-0.5 18q0 25 60 347q1 5 -2.5 5.5t-7.5 -5.5q-100 -208 -132 -260q-4 -6 -11 -27t-9 -25q-22 -38 -59.5 -68t-60.5 -30q-34 0 -51 20t-16 83q2 43 26.5 112.5t71 131t95.5 61.5q17 0 26.5 -13.5t9.5 -31.5
q0 -28 -19.5 -54t-43 -43t-47.5 -38t-31 -39q-2 -7 -13 -11t-15 -13q-18 -42 -18 -69q0 -30 8.5 -37.5t30.5 -7.5q16 0 51.5 47t96.5 160.5t128 270.5q2 6 7.5 14.5t6.5 11.5q8 27 16 30q4 2 9 2q8 0 16 -11q11 -11 11 -21t-8 -30t-12 -39q-3 -16 -7 -52.5t-8 -56.5
q-2 -6 -7 -32.5t-10 -55.5t-6 -34q-20 -80 -20 -189q0 -8 8 -6q19 8 21 10q20 17 24 17q14 0 14 -12q0 -13 -14 -18q-4 -1 -15.5 -17.5t-17.5 -26.5q-6 -9 -22 -19t-22 -10zM83 192q2 -1 16 7q25 18 50 43.5t25 40.5q0 7 -10 7q-8 0 -33.5 -28.5t-37.5 -45.5
q-12 -21 -10 -24z" />
    <glyph glyph-name="em" unicode="em" horiz-adv-x="849" 
d="M341 -50q-21 0 -21 30q0 18 15 63q2 10 11.5 51.5t17.5 78.5t8 43q0 7 -2.5 8t-6.5 -6q-144 -265 -276 -265q-36 0 -55.5 22.5t-19.5 65.5q0 29 9 61q1 6 -3 8t-12 2q-11 0 -11 18q0 8 1.5 13.5t6.5 10.5l7.5 7.5t12.5 8.5t14 9q12 7 22 26q27 54 86.5 110t99.5 56
q43 0 43 -41q0 -46 -54 -98q-4 -4 -17 -6.5t-19 -7.5t-21 -18t-31 -25t-37 -24q-23 -15 -29 -32q-16 -37 -16 -70q0 -46 46 -46q59 0 115.5 71t129.5 218q1 3 8.5 15.5t7.5 17.5q0 12 22 12q7 0 11.5 -3t8.5 -7.5t6 -5.5q11 -5 11 -11t5 -10.5t5 -7.5q0 -4 -13 -35
q-18 -57 -36 -193q0 -18 1 -18q6 0 11 8q22 22 68.5 86.5t69.5 90.5q3 5 7 14.5t6 13.5q35 35 66 35q15 0 15 -36q0 -16 -8 -78.5t-8 -68.5q0 -1 1.5 -3t4.5 -2t7 4q10 10 18 21q9 11 11 12q3 4 8.5 10.5t6.5 8.5q1 0 10.5 9.5t18.5 16.5q2 2 11.5 10t12 10t10.5 7.5
t12.5 7.5t11.5 4t13 2q7 0 14 -7.5t8 -22.5q5 -89 17 -154q3 -15 14 -15q1 0 7 4t14.5 11.5t13.5 13.5q6 12 18 12q4 0 8.5 -6t4.5 -12q0 -8 -9 -8q-2 0 -6 -4.5t-7 -6.5q-1 -1 -18.5 -17.5t-32.5 -26t-28 -9.5q-27 0 -33 50q-2 14 -10 58.5t-10 61.5q-1 10 -12 10
q-5 0 -10 -3t-12.5 -12t-14.5 -19t-22.5 -30.5t-30.5 -39.5q-23 -28 -35.5 -35.5t-28.5 -7.5q-18 0 -18 40q0 3 4.5 14t4.5 18q0 12 5.5 62t6.5 60q0 7 -5 7l-4 -2q-45 -28 -145 -192q-25 -42 -42.5 -56.5t-40.5 -14.5zM129 208q52 29 66 41q2 5 9 15l6 11q20 19 20 29
t-11 10q-13 0 -45.5 -29.5t-54.5 -64.5q-9 -12 -6 -16t16 4z" />
    <glyph glyph-name="en" unicode="en" horiz-adv-x="653" 
d="M67 -87q-25 0 -42 20t-17 47q0 84 44.5 174.5t96.5 144t82 53.5q54 0 54 -45q0 -36 -27 -66.5t-106 -85.5q-2 -2 -19 -21q-8 -10 -24 -10q-11 0 -17.5 -9t-21.5 -41q-9 -23 -9 -68q0 -44 32 -44q17 0 52 28t89 99.5t103 167.5q15 32 40 32q13 0 23 -8.5t10 -18.5
q0 -1 -2.5 -9.5t-2.5 -13.5q0 -15 -9 -29q-10 -21 -11 -23q-17 -59 -17 -127q0 -12 1 -12q5 0 8 8q11 22 25 44t24 35.5t29.5 39t28.5 38.5q51 55 86 55q31 0 31 -43q0 -93 10 -138q0 -2 1.5 -7t2 -6.5t2 -4.5t4 -4t5.5 -1q9 0 16.5 -5t7.5 -13q0 -7 -12 -19q-2 -1 -5 -5
t-6.5 -6.5t-8.5 -2.5q-3 0 -8.5 -3t-10.5 -3q-12 0 -19.5 9.5t-7.5 20.5q0 2 -2 7.5t-2 6.5q-4 12 -10.5 72t-6.5 78q0 11 -4 11t-12 -5q-19 -14 -27 -23q-4 -4 -15.5 -15t-14 -14t-11 -12.5t-11.5 -14l-10 -15t-12 -20.5l-12 -24t-15 -32q-9 -22 -33 -41t-34 -19t-18 12
t-8 32q0 2 2.5 8.5t2.5 7.5q1 19 3 53.5t2 40.5q0 20 -4 20t-10 -12q-70 -100 -118 -151.5t-72 -63t-53 -11.5zM133 201q4 -4 14 3q46 33 65 51t19 32q0 9 -8 9q-30 0 -85 -80q-7 -13 -5 -15z" />
    <glyph glyph-name="er" unicode="er" horiz-adv-x="513" 
d="M86 -17q-21 0 -40 27.5t-19 74.5q0 3 -1 4.5t-2.5 2t-4 0t-3.5 -0.5q-4 0 -5 1t-5 1q-9 0 -9 11q0 5 5.5 16t10.5 13q25 10 32 32q21 74 70 143t89 69q22 0 34.5 -11t12.5 -28q0 -34 -27 -67.5t-111 -100.5q-3 -3 -10 -8.5t-11.5 -11t-8.5 -14.5q-4 -10 -4.5 -18t1.5 -20
t2 -22q0 -26 9 -37t30 -11q37 0 82.5 51t77 125t31.5 135q0 13 11 22t25 9q2 0 13 -11q20 -7 20 -30q0 -5 2 -10t2 -9q0 -14 -35 -171q-3 -9 5 -9q2 0 8.5 10t13.5 21.5t8 13.5q11 10 23 36.5t22 41.5q3 4 14.5 19.5t19.5 25.5t22.5 19t28.5 9q7 0 22 -13.5t20 -15.5
q15 -6 15 -22q0 -21 -8 -25q-2 -1 -8 -8t-10 -7q-20 0 -29 8.5t-11 8.5q-11 0 -35 -20q-26 -19 -43.5 -50.5t-34.5 -52.5q-2 -3 -8.5 -21.5t-8.5 -21.5q-9 -12 -17 -47t-10 -39q-1 -2 -3.5 -5.5t-3.5 -5.5t-3.5 -4.5t-4 -3.5t-4 -2t-5.5 -1q-11 0 -23 9.5t-12 18.5
q0 12 1 19t2.5 9.5t4 6t3.5 7.5q23 86 27 177q0 12 -3 13q-2 1 -5 -5l-2 -4q-27 -65 -63 -116.5t-67 -78.5q-4 -4 -7 -10.5t-6 -8.5q-49 -32 -89 -32zM111 229q6 -3 14 3q17 15 43 42.5t26 37.5q0 7 -11 7q-8 0 -32.5 -29t-33.5 -46q-8 -12 -6 -15z" />
    <glyph glyph-name="es" unicode="es" horiz-adv-x="491" 
d="M56 -23q-55 0 -55 80q0 63 36.5 140t88.5 130t93 53q22 0 35 -11t13 -26q-1 -44 -35.5 -80t-113.5 -76q-3 -2 -16 -15t-22 -13q-4 0 -7.5 -4t-5 -7.5t-3.5 -9.5l-1 -7q-10 -28 -10 -71q0 -11 6.5 -19.5t15.5 -8.5q16 0 38 5t72 34t99 80q2 2 7.5 10.5t6.5 9.5q9 6 17 17
q2 2 0 16q0 5 -8 25t-8 31q0 43 34 75t81 32q23 0 36 -10.5t13 -26.5q0 -1 0.5 -8.5t0 -10t-3.5 -9.5t-8 -15q-6 -9 -16.5 -20t-26.5 -25.5t-22 -20.5q-7 -9 1 -17l18 -14q19 -13 37 -22q16 -9 23 -13.5t14 -14.5t7 -24q0 -20 -13 -48q-4 -6 -11.5 -13t-8.5 -8
q-46 -53 -128 -53q-38 0 -43 7q-3 1 -3 11q0 1 -7 11t-7 13q0 12 11 12q4 0 21 -6.5t33 -6.5q36 0 68.5 20t32.5 55q0 21 -24 29q-9 5 -16 9.5t-15 10.5t-14 10q-12 5 -22 -2l-25 -25q-1 -2 -4 -4t-6.5 -4t-4.5 -3q-68 -74 -140 -114t-105 -40zM366 240q37 36 49 51
q10 12 10 20q0 12 -19 12t-39.5 -17.5t-20.5 -46.5q0 -13 6 -19q5 -7 14 0zM124 227q89 68 89 86q0 9 -9 9q-27 0 -88 -78q-4 -3 -5.5 -9.5t0.5 -8.5q4 -4 13 1z" />
    <glyph glyph-name="te" unicode="te" horiz-adv-x="412" 
d="M88 -75q-3 0 -10.5 5t-7.5 10l-6 18q-5 19 -5 37q0 42 26 198q4 21 -16 12q-5 -2 -14.5 -6t-12.5 -6q-15 -11 -23 -11q-11 0 -19 8t-8 20q0 19 8 32q7 5 19 5q18 0 59 9q20 4 23 22q15 99 19 129q2 17 13 50q3 8 12 14.5t14 6.5q15 0 20 -17q3 -18 3 -24q0 -11 -10 -37
q-3 -9 -6 -16.5t-4 -14t-14 -72.5q-3 -19 10 -19q8 0 113 27.5t126 27.5q49 0 49 -41q0 -82 -172 -155q-20 -9 -31.5 -30.5t-11.5 -48.5q0 -28 16.5 -45.5t40.5 -17.5q9 0 25.5 7t22.5 14q18 21 24 21q20 0 20 -15q0 -2 -4 -6.5t-9.5 -10t-8.5 -9.5q-29 -39 -67 -39
q-106 0 -106 98q0 44 26 89t89 116q4 5 5 8.5t-2 5t-10 1.5q-98 -11 -137 -32q-24 -16 -27 -35q-8 -42 -17 -114.5t-9 -91.5q0 -22 6.5 -32t6.5 -16q0 -7 -8 -18t-20 -11zM302 192q5 -3 13 2q76 46 76 76q0 7 -9 7q-20 0 -74 -72q-10 -9 -6 -13z" />
    <glyph glyph-name="ef" unicode="ef" horiz-adv-x="473" 
d="M262 -357q-14 0 -14 9q0 8 2.5 11.5t7.5 6.5t9 7q51 58 66 237q3 42 9.5 89t18.5 115t15 89q1 9 -3 9q-2 1 -4 -4q-41 -86 -102 -151.5t-121 -95.5q-33 -17 -62 -17q-33 0 -51 20.5t-18 52.5q0 46 7 72q1 3 0 7t-4 4q-2 0 -6 4t-4 8q0 20 16 24q14 2 22 13q3 7 20 41
q32 62 78.5 110.5t90.5 48.5q37 0 37 -43q0 -42 -37.5 -80.5t-128.5 -96.5q-40 -26 -40 -103q0 -19 9.5 -29.5t25.5 -10.5q19 0 49.5 13.5t70 42t81.5 85t73 130.5q2 4 0.5 6.5t-6.5 0.5q-23 -7 -37 -21q-1 -1 -7 -5t-8 -7t-2 -6q0 -5 -8 -9t-13 -4t-14 14q-10 12 -10 18
q0 15 15 27q20 15 98 42q8 2 10 12q30 129 72 186t78 57q4 0 11 -4t10 -4q22 0 22 -15q0 -13 -26 -19q-13 -3 -36 -24q-69 -59 -82 -165q-1 -3 0 -6t5 -2q94 22 138 28q4 1 8.5 4.5t8.5 3.5q2 0 6 -3t5 -3q7 -3 7 -11q0 -17 -16 -17q-2 0 -10.5 3t-12.5 2q-92 -21 -130 -41
q-6 -2 -13.5 -9.5t-8.5 -12.5q-21 -105 -33 -189q0 -2 -6 -25q-4 -22 -4.5 -61.5t-1.5 -49.5q-1 -5 -4 -14.5t-3 -13.5q-14 -196 -92 -266q-4 -4 -7 -9t-5.5 -5.5t-10.5 -0.5zM109 190q3 -4 15 3q42 28 69 56q2 2 4 8t3 7q16 17 16 25q0 9 -10 9t-39 -30.5t-53 -62.5
q-8 -11 -5 -15z" />
    <glyph glyph-name="iu" unicode="iu" horiz-adv-x="552" 
d="M62 412q-17 0 -32.5 8.5t-15.5 27.5q0 13 6 30t15 17q21 0 40.5 -8t19.5 -24q0 -4 -7.5 -13.5t-7.5 -18.5q0 -19 -18 -19zM241 -37q-28 0 -28 19q0 21 10.5 74.5t24.5 113.5t16 71q1 8 -1.5 9t-7.5 -6q-6 -9 -16 -25t-15 -23l-20 -20q-51 -88 -65 -123q-2 -4 -5 -18.5
t-7 -20.5q-9 -16 -34 -16q-27 0 -30 17q-1 3 -4 40t-3 44q0 32 -1.5 59t-3 41.5t-1.5 16.5q0 13 -5 13q-3 0 -7 12.5t-4 23.5q0 16 8.5 25.5t16.5 9.5q31 0 42 -12q15 -15 15 -35q0 -35 -5.5 -76t-9.5 -67.5t-2 -36.5q3 -13 11 -2l12 13q13 14 20 23t19 25.5t21 32.5
q13 22 35.5 68t33.5 63q19 27 31 27q7 0 25 -13q23 -12 23 -26q0 -5 -4 -13.5t-10 -21t-10 -21.5q-24 -71 -24 -155q0 -11 6 -11q5 0 15 21q10 23 44.5 69t61.5 101q4 8 8 13t8 8t9 4l7.5 1.5t7 0t5.5 -0.5q2 0 5 -2t7 -5t7 -5q2 -1 6 -1.5t6 -1.5t4.5 -2.5t3.5 -4t1 -5.5
q0 -15 -8 -81.5t-6 -81.5q4 -43 24 -43q3 0 5 0.5l4 1t4 2t3.5 2.5t4.5 4.5t5 5.5l7 7t8 9l8 21q7 19 14 19q36 0 36 -16q0 -7 -1.5 -10.5t-3.5 -6t-3 -5.5q-2 -5 -17 -11.5t-19 -10.5q-14 -13 -35.5 -38.5t-22.5 -27.5q-2 -2 -7 -6.5t-7 -6t-6 -4t-8 -3.5t-8 -1
q-17 0 -25 41q-3 15 -3 48.5t1.5 76t1.5 54.5t-4 12q-5 0 -10 -7q-15 -26 -40 -72.5t-42.5 -74.5t-36.5 -47q-41 -39 -66 -39z" />
    <glyph glyph-name="ia" unicode="ia" horiz-adv-x="530" 
d="M126 455q-7 0 -12 8.5t-12 8.5q-26 0 -26 28q0 35 28 35q16 0 30.5 -8.5t14.5 -20.5q0 -8 -2.5 -18t-2.5 -14q0 -19 -18 -19zM123 34q-50 -68 -76 -68q-8 0 -20 10q-15 13 -15 26q0 8 19 112.5t19 113.5q0 4 1 22.5t1 23.5q0 32 49 32q13 0 16.5 -8t3.5 -30
q0 -8 -22 -102.5t-22 -125.5q0 -8 1.5 -9t5.5 -1q22 0 87 96q12 18 30.5 46.5t30 46t31 41.5t41.5 46q58 58 93 58q20 0 33.5 -8t13.5 -20q0 -10 18 -14q22 -4 22 -23q0 -11 -3.5 -25t-3.5 -20q0 -2 -2.5 -61.5t-0.5 -88.5q4 -45 15 -81.5t11 -43.5q0 -16 -29 -16
q-23 0 -30 22q0 1 0.5 7.5t-0.5 8.5q-10 35 -10 61q0 45 1.5 86t1.5 64q0 7 -6 7q-7 0 -40 -43q-60 -78 -95 -121t-59.5 -64.5t-37 -26t-31.5 -4.5q-17 0 -28.5 13t-11.5 32q0 13 4 25q1 6 -1 7.5t-5 -3.5zM187 18q9 0 24.5 13t62 63.5t138.5 155.5q13 17 13 22q0 6 -7 10.5
t-10 11.5l-3 7q-3 7 -7 10t-13 3q-15 0 -37 -20q-60 -67 -112 -155.5t-52 -112.5q0 -8 3 -8z" />
    <glyph glyph-name="io" unicode="io" horiz-adv-x="381" 
d="M111 413q-22 0 -22 29q0 38 32 38q8 0 21 -13q11 -18 11 -30q0 -24 -42 -24zM234 -43q-22 0 -35.5 23t-13.5 63q0 54 19.5 121t19.5 71q0 5 -2 6.5t-4 0.5t-4 -3q-10 -12 -25.5 -35.5t-44 -75.5t-49.5 -102q-5 -13 -18 -30t-22 -17q-12 0 -24.5 12t-12.5 25q0 6 5.5 35
t6.5 39q8 69 8 169q0 1 4.5 11t4.5 18q0 20 44 20q8 0 19.5 -9.5t11.5 -13.5q0 -7 -8 -16t-8 -11q0 -6 -17.5 -90.5t-17.5 -94.5q0 -19 16 -3q36 46 86.5 133.5t67.5 134.5q4 10 22 21q11 11 21 11q12 0 23 -5.5t11 -16.5q0 -10 -9 -19t-9 -12q0 -11 10 -11q2 0 12 3t23 3
q46 0 46 -74q0 -49 -28 -116.5t-65.5 -116t-63.5 -48.5zM240 3q25 0 64 82t39 145q0 26 -12 26q-5 0 -18.5 -13.5t-23.5 -13.5q-5 0 -9 1.5t-6 1.5q-8 0 -14 -19q-35 -103 -35 -168q0 -42 15 -42z" />
    <glyph glyph-name="yi" unicode="yi" horiz-adv-x="500" 
d="M479 400q-11 0 -19.5 9.5t-8.5 23.5q0 26 33 26q8 0 17 -6.5t9 -19.5q0 -4 -2 -7t-8 -7t-7 -5q-2 -2 -6 -8t-8 -6zM169 -261q-35 0 -35 45q0 56 95 206q15 23 16 45q2 34 14.5 103.5t12.5 75.5q2 16 -3 17q-2 0 -6.5 -3t-9.5 -7t-7 -5q-20 -12 -26 -18t-22 -31
q-1 -2 -13.5 -18.5t-18.5 -25.5q-2 -3 -8 -16.5t-10 -17.5q-15 -17 -31 -38t-26.5 -33.5t-20.5 -19.5q-12 -9 -33 -9q-8 0 -22 18q-9 13 -9 24q0 2 2 6l6 12t7 15q13 35 24.5 84.5t11.5 71.5q0 2 -8.5 20t-8.5 25t-2.5 12t-2.5 7q0 13 21 26q16 14 29 14q10 0 20 -10.5
t10 -22.5q0 -8 3.5 -29t3.5 -28q0 -17 -20.5 -83.5t-31.5 -91.5q-6 -14 -1 -18q1 -1 4.5 3t7.5 10q9 13 37 55t46.5 69.5t43.5 60.5t43.5 50.5t29.5 17.5q7 0 26 -14q22 -17 22 -31q0 -8 -15 -75q-1 -6 -5.5 -21t-7.5 -27t-2 -20q2 -18 11 -4q45 77 91 139q6 9 12 25.5
t10 21.5q10 11 24 11q3 0 10.5 -7t10.5 -8q19 -7 19 -21q0 -8 -14 -77.5t-14 -115.5q0 -8 4 -17t4 -10q0 -2 4 -13.5t4 -13.5q0 -1 1.5 -8t1.5 -9q0 -5 -7 -14q-4 -7 -15 -7q-12 0 -26 15q-14 14 -16 20q-6 16 -6 52q0 16 15 91t15 83q0 7 -3 8.5t-8 -4.5q-75 -97 -124 -193
q-16 -36 -16 -42q-8 -127 -44.5 -204.5t-73.5 -77.5zM174 -215q10 0 40 64t30 90q0 21 -6 21q-3 0 -9 -9q-62 -105 -62 -154q0 -12 7 -12z" />
    <glyph glyph-name="je" unicode="je" horiz-adv-x="400" 
d="M88 423q-21 0 -21 52q0 10 7.5 15.5t17.5 5.5q27 0 35 -14q10 -20 10 -31q0 -12 -16.5 -20t-32.5 -8zM-20 -320q-30 0 -30 38q0 33 21.5 100t50.5 115q14 25 16 48q16 160 16 241q0 10 -4.5 25.5t-4.5 25.5q0 24 7 31q11 9 23 9q7 0 23 -9q15 -9 15 -14q0 -14 -4 -24
t-4 -17q0 -50 -12.5 -134.5t-12.5 -85.5q0 -7 3 -8.5t7 4.5q26 43 68 82q24 20 40 53q34 69 88 117t96 48q13 0 25.5 -9t12.5 -22q0 -42 -30 -69.5t-115 -77.5q-4 -3 -7 -4.5t-7 -4t-8 -4.5q-24 -17 -37 -47q-17 -40 -17 -70q0 -18 15 -32t32 -14q46 0 92 62q1 1 8.5 7
t11.5 12q2 2 4.5 6.5t4 7t3.5 2.5q12 0 15 -2.5t3 -10.5q0 -1 -2 -3.5t-6 -6.5t-6 -8q-4 -4 -8 -15l-5 -10q-22 -33 -57 -56.5t-68 -23.5q-41 0 -60.5 23t-19.5 51q0 27 6 51q1 5 -1 7t-6 -1q-14 -11 -35 -36t-32 -51q-12 -33 -14 -49q-7 -68 -39 -157.5t-55 -89.5zM272 194
q6 -4 14 2q46 33 62 46.5t16 22.5q0 7 -9 7q-12 0 -34 -17.5t-42 -47.5q-9 -11 -7 -13z" />
    <glyph glyph-name="he" unicode="he" horiz-adv-x="582" 
d="M420 -59q-22 0 -44.5 23t-22.5 53q0 15 8 43t8 30q0 16 -12 9q-13 -7 -35.5 -21.5t-37.5 -23.5t-19 -9q-24 0 -30 36q-6 19 -11 138q0 8 -5 8q-12 0 -19 -5q-29 -29 -40 -43q-19 -25 -45.5 -73t-46 -75.5t-36.5 -27.5q-21 0 -21 34q0 16 1 21t2.5 10.5t3.5 16.5
q44 315 44 357q0 12 12 22q16 13 23 13q8 0 17 -7q20 -7 20 -13q0 -7 -1 -10.5t-2 -5t-2.5 -5t-3.5 -7.5q-7 -7 -12 -28q-3 -20 -7.5 -52t-7.5 -57.5t-3 -26.5q-2 -8 -10.5 -39t-12 -46t-7.5 -40.5t-4 -47.5q0 -10 9 -3q4 5 23 40.5t24 41.5q8 11 19.5 30t23.5 35
q4 7 8.5 11.5t9.5 7.5t7 5q36 43 55 43q9 0 17 -9t11 -18q1 -1 4.5 -8t4.5 -10q2 -13 2.5 -63t6.5 -77q5 -18 12 -18q21 0 64 37q22 21 33 37q48 81 85 113t92 32q7 0 14 -5t7 -17q0 -20 -6 -33.5t-37 -43t-94 -71.5q-20 -11 -35 -38q-21 -38 -21 -82q0 -23 13.5 -37
t24.5 -14q12 0 24 -3.5t16 -3.5q18 0 18 -8q0 -13 -12 -13q-2 0 -25 -4.5t-39 -4.5zM463 206q2 -4 11 1q2 2 20 16.5t33 27.5t15 17t-4 4q-9 0 -33.5 -19t-37.5 -37q-4 -8 -4 -10z" />
    <glyph glyph-name="pe" unicode="pe" horiz-adv-x="549" 
d="M47 -326q-35 0 -35 45q0 6 3 35.5t6.5 100t3.5 175.5q0 151 -10 225q0 4 -8 10t-8 12q0 22 8.5 32.5t32.5 10.5q7 0 12.5 -4t8.5 -10.5t5 -14t2 -17t0.5 -16t0 -14.5t-0.5 -10q0 -25 2.5 -122t1.5 -161q0 -15 4 -15q3 0 6 13q2 10 10 38t10 39q4 16 3.5 34.5t1.5 23.5
q6 18 16 27.5t12 16.5q24 104 68 172.5t88 68.5q17 0 34 -19t17 -50q0 -46 -27 -110.5t-54 -101.5q-6 -9 -3.5 -10.5t10.5 2.5q28 12 71 40q20 15 32 43q78 149 152 149q18 0 30 -8.5t12 -22.5q0 -40 -33 -73t-103 -67q-18 -9 -32 -36q-15 -26 -15 -56q0 -23 12 -36.5
t26 -13.5q19 0 37 5q4 1 13.5 9t14.5 8q9 0 9 -10q0 -11 -12 -15q-4 -2 -15.5 -11.5t-14.5 -10.5q-2 -1 -7 -4.5t-9.5 -5.5t-10.5 -2q-29 0 -57 18.5t-28 54.5q0 15 3.5 33.5t3.5 19.5q0 12 -10 5q-15 -8 -39 -21.5t-35.5 -20t-28.5 -14t-31 -10.5t-29 -3q-11 0 -20 3
q-2 1 -3.5 2l-3 2t-2.5 1q-4 0 -6 -5q-37 -90 -55 -187q-4 -25 -6.5 -53.5t-3.5 -46.5t-3 -34.5t-7.5 -24t-16.5 -7.5zM431 191q-4 -5 -1 -6t8 2q28 17 53 37.5t25 32.5q0 10 -9 10q-10 0 -33.5 -22t-42.5 -54zM184 77q35 0 73.5 69.5t38.5 132.5q0 36 -18 36q-20 0 -51 -53
t-66 -158q-5 -13 3 -18q12 -9 20 -9z" />
    <glyph glyph-name="ll" unicode="ll" horiz-adv-x="302" 
d="M82 -36q-34 0 -42 13q-11 13 -11 35q0 29 19.5 195t19.5 169q0 2 3 50t3 58q0 18 11 33t21 15q5 0 8.5 -1.5t7.5 -4.5t7 -4q4 -2 6.5 -5t3.5 -8.5t1 -8v-10.5v-10q0 -20 -11 -37q-2 -3 -3.5 -13t-2.5 -14q-49 -335 -49 -371q0 -14 5 -14q4 0 17 18q21 27 22 33
q7 16 29.5 64.5t36 79.5t30 82t24.5 98q12 55 12 68q0 17 9 27q3 3 6.5 9t7.5 9t12 3q2 0 4 -2.5t4 -6t3 -4.5q12 -10 12 -19q0 -6 -12 -81t-24.5 -178t-12.5 -177q0 -23 18 -23q10 0 12 -3.5t2 -13.5q0 -9 -19 -16q-1 0 -10.5 -5.5t-14.5 -5.5q-13 0 -24 26q-7 13 -7 47
q0 60 10.5 144t10.5 86q0 10 -3 11q-1 2 -3 -3l-2 -4q-12 -36 -55 -137t-58 -142q-17 -51 -34 -51z" />
    <glyph glyph-name="ff" unicode="ff" horiz-adv-x="352" 
d="M234 -356q-13 0 -13 7t4 15.5t5 11.5q4 21 4 128q0 57 13.5 194t26.5 216q1 8 -7 8q-40 -3 -134 -43q-9 -6 -12 -14q-13 -60 -18.5 -87.5t-11 -93.5t-5.5 -152q0 -32 7.5 -58t7.5 -35q0 -8 -12 -8q-18 0 -31 44q-1 5 -6.5 17.5t-5.5 19.5q0 160 29 336q1 5 -1.5 7.5
t-6.5 0.5q-36 -16 -44 -25q-20 -20 -31 -20q-5 0 -10 7l-4 6q-1 3 -6.5 9t-5.5 10q0 25 9 25q8 0 11.5 1t8 5t8.5 6q23 10 77 26q8 2 9 10q37 162 96.5 277.5t95.5 115.5q6 0 26 -5q24 -7 24 -24q0 -4 -2.5 -5.5t-9.5 -3.5t-13 -4q-16 -7 -38 -27q-67 -59 -131 -312
q-2 -3 -1 -5t6 -1q49 11 136 43q8 2 10 10q19 84 76.5 184.5t96.5 100.5q5 0 13 6.5t13 6.5q6 0 10.5 -6.5t4.5 -13.5q0 -4 -13 -14.5t-21 -10.5q-9 0 -27 -30q-5 -7 -13.5 -17t-10.5 -14q-55 -74 -82 -180q-1 -3 0 -5.5t5 -1.5q14 4 72.5 17t65.5 13q20 0 20 -12
q0 -3 -4.5 -4.5t-15.5 -3t-17 -2.5q-95 -21 -129 -48q-2 -2 -5 -4.5t-5 -4.5t-3 -5q-41 -182 -45 -399q0 -6 -3 -18t-3 -18q0 -8 -6 -31.5t-6 -29.5q-3 -51 -7 -69.5t-15 -18.5z" />
    <glyph glyph-name="fi" unicode="fi" horiz-adv-x="350" 
d="M336 363q-13 0 -24 9t-11 23q0 15 12 25.5t31 10.5q10 0 20.5 -8t10.5 -27q0 -16 -12.5 -24.5t-26.5 -8.5zM95 -303q-19 0 -36.5 37t-17.5 69q0 186 37 410q1 5 -1.5 7.5t-6.5 0.5q-54 -22 -61 -29q-20 -21 -33 -21t-19.5 10t-6.5 23q0 31 134 70q7 2 9 11
q54 238 135 287q8 5 18.5 6.5t18 1t15.5 0.5q5 0 15.5 6t15.5 6q16 0 27 -7.5t11 -17.5q0 -13 -22 -25.5t-52 -15.5q-18 -3 -23 -7q-37 -33 -60 -76t-49 -145q-2 -4 -0.5 -6t6.5 -1q14 3 82.5 13.5t75.5 10.5q36 0 36 -33q0 -11 -6 -30t-8 -28q-8 -40 -17 -104t-9 -76
q0 -9 0.5 -18.5t0.5 -20.5q0 -5 1 -11.5t1 -10.5q0 -11 -11 -23.5t-24 -12.5q-4 0 -9 6.5t-7 6.5q-13 0 -13 42q0 1 -2 4.5t-2 5.5q0 20 20.5 116t20.5 111q0 34 -16 34q-52 0 -123 -28q-10 -4 -13 -14q-44 -200 -44 -407q0 -33 12 -71.5t12 -47.5q0 -8 -12 -8z" />
    <glyph glyph-name="fl" unicode="fl" horiz-adv-x="365" 
d="M51 -270q-19 0 -19 38q0 236 62 496q2 8 -1 7q-2 0 -9 -5q-34 -24 -55 -24q-12 0 -20 9t-8 24q0 16 18 25q1 1 31 14t49 24q19 10 23 26q27 120 110 204t135 84q15 0 35 -13q15 -10 15 -22q0 -10 -12 -10q-11 0 -65 -23.5t-67 -35.5q-60 -53 -81 -141q-2 -8 0 -10t8 0
q42 15 132 95q3 2 14 15.5t22 18.5t30 5q12 0 16.5 -6.5t4.5 -27.5q0 -10 -18.5 -60.5t-22.5 -71.5q-2 -10 -8.5 -20t-7.5 -15q-74 -287 -74 -332q0 -8 7 -6q12 4 27 15.5t19 11.5q13 0 13 -12t-30 -50t-47 -38q-36 0 -36 70q0 14 5 41t11.5 51t18 69.5t17.5 69.5q1 3 1 18
t1 18q7 27 25 82.5t32.5 99t14.5 45.5q0 4 -5 3q-6 -2 -15 -8.5t-26 -21t-34 -30t-48.5 -44t-60.5 -53.5q-16 -15 -27 -53q-2 -8 -10 -32t-11 -41q0 -1 -8.5 -18t-10.5 -28q-37 -175 -37 -368q0 -59 -23 -59z" />
    <glyph glyph-name="st" unicode="st" horiz-adv-x="426" 
d="M40 -58q-17 0 -28 12.5t-11 33.5t40 61q2 3 5.5 9.5t5.5 9.5q34 31 35 32q7 7 3 13q-6 10 -27 38.5t-33.5 54t-12.5 51.5q0 34 39.5 72t105.5 38q16 0 16 -14q0 -18 -25 -25q-53 -17 -69 -32.5t-16 -38.5q0 -33 53 -111q5 -11 11 -4q49 52 66.5 73t56 87.5t81.5 168.5
q14 33 24.5 48t23.5 15q12 0 19.5 -11.5t7.5 -21.5q0 -5 -1 -13t-1 -12q0 -10 -12 -48q-2 -10 -8.5 -34.5t-13.5 -50.5q-3 -14 11 -14q3 0 29.5 6.5t33.5 6.5q28 0 28 -16q0 -8 -3 -10t-20 -6q-31 -8 -78 -26q-16 -7 -21 -25q-7 -24 -17.5 -79.5t-10.5 -86.5q0 -16 8 -40
q4 -15 14 -15q18 0 25.5 4t11.5 4q14 0 14 -21q0 -13 -20 -30t-28 -17q-32 0 -49.5 30.5t-17.5 76.5q0 51 20 142q4 19 -9 14q-14 -6 -16 -6q-22 0 -22 28q0 8 15 18t35 17q17 7 21 20q6 17 13 57.5t10 52.5q1 6 -1 7q-3 1 -6 -4q-6 -9 -43 -76.5t-78.5 -136t-71.5 -102.5
q-4 -4 -4 -15q0 -2 3 -9.5t5.5 -19t2.5 -23.5q0 -36 -23.5 -62t-49.5 -35.5t-46 -9.5zM61 -14q6 0 17 3.5t26 18.5t15 40q0 15 -14 15q-11 0 -19 -8q-34 -42 -34 -62q0 -7 9 -7z" />
    <glyph glyph-name="aa" unicode="aa" horiz-adv-x="686" 
d="M639 -92q-37 0 -37 92q0 18 6 82t6 82q0 11 -5 11q-4 0 -10 -6q-25 -40 -27 -43q-5 -11 -20 -28t-21 -25q-4 -7 -19.5 -30.5t-18.5 -28.5q-43 -63 -88 -63q-38 0 -38 52q0 16 14 49q5 13 2 14q-4 2 -11 -5q-24 -31 -52.5 -52.5t-44.5 -21.5q-23 0 -23 93q0 11 4 49t4 46
t-6 8t-8 -6q-2 -2 -9 -8.5t-9 -10.5q-149 -223 -204 -223q-42 0 -42 49q0 28 56 113t126 160.5t101 75.5q24 0 30 -22q3 -8 19 -8t16 -33q0 -7 -14.5 -25.5t-14.5 -38.5q0 -33 -2 -80t-2 -55q0 -18 9 -18q48 0 152 156q28 42 63.5 71t55.5 29q17 0 29 -13.5t12 -31.5
q0 -10 10 -10q36 0 36 -26q0 -3 -8.5 -72t-8.5 -147q0 -36 5 -48q2 -6 10.5 -14.5t8.5 -14.5q0 -7 -10.5 -15.5t-21.5 -8.5zM44 -5q5 0 11 2q24 13 51.5 49.5t69 96.5t77.5 103q5 5 5 19q0 11 -10 11q-14 0 -65 -57.5t-96.5 -124.5t-45.5 -89q0 -7 3 -10zM417 1q5 -2 10 2
q30 19 143 179q2 3 5 9.5t6 12t6 9.5t1.5 7.5t-6.5 3.5q-10 0 -10 10q0 19 -15 19q-14 0 -49.5 -38t-68 -96.5t-32.5 -102.5q0 -11 10 -15z" />
    <glyph glyph-name="ab" unicode="ab" horiz-adv-x="668" 
d="M450 -54q-11 0 -17 6t-17 24q-6 7 -13 11q-21 10 -21 28q0 13 10.5 34t13.5 37q6 39 15 81q2 11 -1.5 12t-6.5 -6q-11 -24 -24.5 -48t-23 -39.5t-10.5 -18.5q-1 -2 -4.5 -10t-5.5 -12.5t-6 -11.5t-7.5 -11.5t-8 -9t-9.5 -7t-10 -2.5q-20 0 -29 45q-6 34 -6 155
q0 11 -5 11t-11 -6q-1 -2 -15 -25.5t-18 -28.5q-6 -11 -31 -46.5t-30 -43.5q-2 -3 -24 -41q-43 -63 -88 -63q-38 0 -38 52q0 16 14 49q21 56 50 114q22 47 33 62q30 41 65 70.5t54 29.5q17 0 29.5 -13.5t12.5 -31.5q0 -10 9 -10q36 0 36 -50q0 -25 -2 -56.5t-2 -43.5
q0 -10 1.5 -18.5t4 -16.5t3.5 -11q2 -7 8.5 -5.5t10.5 8.5q34 57 64 129.5t38 88.5q30 66 44 101q16 30 21 40q6 13 10.5 20t11 12t13.5 5q18 0 26.5 -11t8.5 -23q0 -5 -3.5 -13.5t-6.5 -9.5q-8 -3 -8 -8q0 -1 -8 -9q-1 -3 -5 -10t-5 -11q-2 -6 -19 -40t-33 -71.5t-21 -60.5
q-1 -7 -1.5 -18.5t-0.5 -13.5l-3 -24q10 -7 27 26q2 3 8 9.5t7 7.5q14 16 40 42l28 28q29 29 53 29t36.5 -20t12.5 -45q0 -4 -2 -10.5t-4.5 -13.5t-3.5 -11q-2 -10 -2.5 -22.5t-3 -24t-9.5 -25.5q-3 -5 -10.5 -20.5t-10.5 -21.5q-36 -60 -84.5 -102t-90.5 -42zM59 10
q5 -2 10 2q12 7 32 32t37 49.5t43 62.5t37 54q2 3 5 9.5t6 12t6 9.5t1.5 7.5t-5.5 3.5q-11 0 -11 10q0 19 -15 19q-13 0 -47 -43.5t-65.5 -107.5t-36.5 -111q-1 -5 3 -9zM472 -6q46 0 101.5 87.5t55.5 146.5q0 28 -15 28q-28 0 -95 -77t-67 -101q0 -15 -5 -40l-5 -25
q0 -7 5 -7q2 0 7.5 -6t17.5 -6z" />
    <glyph glyph-name="ac" unicode="ac" horiz-adv-x="614" 
d="M516 291q6 4 11.5 6.5t11 4.5t9 3.5t10 2.5t8.5 1.5t9.5 1t8.5 0.5h9.5h9.5q13 0 26.5 -6.5t13.5 -13.5q0 -22 -20 -22q-5 0 -12 -2.5t-14 -2.5q-47 0 -99 -50.5t-63 -127.5q-1 -5 2 -13.5t3 -12.5q0 -52 32 -52q28 0 77 49q7 7 13 15q4 6 13 3.5t9 -11.5q0 -4 -4 -8
q-6 -5 -10 -20q-1 -2 -19 -19.5t-19 -19.5q-5 -10 -26 -19.5t-43 -9.5t-44.5 27.5t-22.5 59.5q0 14 7 41q3 13 -1 14q-3 0 -8 -7q-29 -41 -44 -81q-10 -18 -26 -28t-25 -10q-6 0 -13 6.5t-13.5 26.5t-6.5 48q0 4 2.5 9.5t2.5 10.5q0 33 2.5 82t2.5 65q0 11 -6 11
q-4 0 -10 -7q-17 -26 -42.5 -48.5t-40.5 -47.5q-1 -2 -15 -26.5l-26 -45.5t-16 -26q-19 -30 -50 -48.5t-57 -18.5q-22 0 -22 47q0 76 106 233q29 42 64.5 72.5t58.5 30.5q12 0 21.5 -6t11.5 -9t16 -23q1 -1 3 -5t4.5 -7t5.5 -4q14 -4 20.5 -10.5t7.5 -19.5q1 -5 -1.5 -104.5
t0.5 -123.5q1 -11 10 -1l2 3q55 95 137 169q3 2 22.5 33.5t35.5 40.5zM41 38q4 -2 10 2q32 17 64 62q22 24 60 74.5t46 61.5q2 4 7.5 15.5t9.5 15.5q7 8 -3 13q-8 4 -12 11q-1 2 -2 8t-3.5 8t-8.5 2q-23 0 -95 -112t-76 -152q0 -6 3 -9z" />
    <glyph glyph-name="ad" unicode="ad" horiz-adv-x="620" 
d="M323 -38q-8 0 -16 13t-8 36q0 10 7 29q3 8 -2 9q-3 1 -5 -1q-15 -18 -37.5 -36t-30.5 -18q-10 0 -13 4t-6 16q-3 15 1 56t9.5 80t5.5 44q0 9 -6 9q-3 0 -8 -7q-10 -15 -57 -109q-12 -24 -40.5 -47.5t-34.5 -29.5q-2 -3 -6 -10.5t-6 -10.5q-35 -33 -52 -33q-32 0 -32 41
q0 36 43.5 119t100.5 154t90 71q26 0 26 -32q0 -15 7 -19q18 -7 18 -38q0 -29 -10.5 -84t-11.5 -120q0 -5 6.5 -7t11.5 2q15 12 20.5 17t25.5 35.5t47 82.5q36 69 80 102.5t70 33.5q15 0 33 -6t25 -13q3 -3 6 -3q4 0 7 5q11 21 28 61.5t18 49.5q0 3 1 8t1 6q0 11 11 16.5
t21 5.5q11 0 19.5 -8t8.5 -21q0 -6 -8.5 -24t-23 -45.5t-18.5 -34.5q-15 -33 -38 -96q-1 -4 -8.5 -27t-12.5 -40.5t-10 -40.5t-5 -38q0 -10 9 -10q4 0 9 2t7 2q15 0 15 -10q0 -20 -9.5 -36.5t-24.5 -18.5q-3 0 -8 -3.5t-8 -3.5q-30 0 -30 66q0 3 3.5 10t4.5 13q1 15 11 50
t10 38q0 7 4 17t1 12q-4 2 -9 -7q-2 -4 -17.5 -31t-32 -50.5t-42.5 -52.5q-2 -2 -14 -10t-15 -14q-52 -70 -106 -70zM354 14q106 80 174 193q21 33 21 39q0 7 -13 14.5t-24 7.5q-45 0 -94.5 -67.5t-75.5 -182.5q-2 -5 2.5 -6.5t9.5 2.5zM41 22q9 0 21 6.5t33 30.5t41 63
q49 91 89 151q2 3 2 7q0 3 -3 4.5t-4 3.5q-4 6 -15 6q-16 0 -96 -120.5t-80 -138.5q0 -13 12 -13z" />
    <glyph glyph-name="a_e" unicode="ae" horiz-adv-x="566" 
d="M413 -61q-27 0 -42.5 16.5t-15.5 41.5q0 41 6 57q1 4 -0.5 5.5t-7.5 -0.5t-48 -34t-56 -32q-9 0 -14.5 9t-5.5 20q0 24 4.5 74t8.5 91.5t4 43.5q0 8 -6 8q-5 0 -8 -6q-11 -18 -30 -49t-30 -51q-38 -68 -76.5 -109.5t-65.5 -41.5q-11 0 -23.5 12t-12.5 36q0 45 38.5 121
t91 136t87.5 60q13 0 26 -9t13 -16q0 -3 3 -6t6 -3q32 -2 32 -47q0 -2 -13.5 -76.5t-13.5 -122.5q0 -22 13 -17q36 15 68.5 42.5t47.5 57.5q32 65 85 117t91 52q11 0 23 -9t12 -20q0 -35 -30.5 -65.5t-128.5 -99.5q-27 -24 -35 -43q-14 -35 -14 -75q0 -32 26 -32q6 0 21 4.5
t22 4.5q5 0 20 12.5t19 12.5q20 0 20 -14q0 -11 -21 -16q-6 -2 -41 -21t-49 -19zM462 181q5 -3 13 2q74 53 74 74q0 7 -8 7q-18 0 -73 -71q-10 -8 -6 -12zM50 32q8 0 19 9.5t31 38.5t41 74q18 38 76 125q2 3 2 7q0 2 -1 3t-3.5 2.5t-3.5 2.5q-5 9 -10 9q-30 0 -97 -119
t-67 -139q0 -13 13 -13z" />
    <glyph glyph-name="af" unicode="af" horiz-adv-x="469" 
d="M371 -362q-18 0 -33.5 33t-15.5 62q0 194 52 503q1 5 -1 7t-6 0q-32 -14 -44 -24q-19 -19 -30 -19q-1 0 -13 3q-8 3 -8 -5q-1 -32 -1 -194q0 -10 7 -27t7 -28q0 -15 -21 -15q-6 0 -20 15.5t-16 21.5q-3 10 -3 61q0 32 4 90t4 62q0 8 -5 8q-6 0 -10 -6q-4 -7 -13 -26.5
t-19 -42t-13 -28.5q-85 -169 -161 -169q-15 0 -25.5 11.5t-10.5 34.5q0 45 43.5 128t100.5 148.5t90 65.5q31 0 36 -35q0 -5 4 -5q13 0 19 -11q6 -10 15 -3q25 18 95 38q8 3 9 11q32 143 98 242t146 99q16 0 27 -8t11 -21q0 -5 -17.5 -13t-41.5 -19t-36 -21q-47 -40 -82 -97
t-58 -151q-2 -3 -0.5 -5t5.5 -1q126 29 135 29q19 0 19 -12q0 -5 -24.5 -13t-43.5 -12q-55 -13 -67.5 -18t-26.5 -17q-11 -7 -13 -13q-51 -238 -51 -515q0 -31 7 -57t7 -35q0 -7 -11 -7zM45 -11q7 0 24 15t41.5 47t44.5 71q38 74 61 107q2 3 2 8q0 2 -1 3t-3.5 2.5t-3.5 2.5
q-4 9 -15 9q-20 0 -91 -109.5t-71 -140.5q0 -15 12 -15z" />
    <glyph glyph-name="ag" unicode="ag" horiz-adv-x="725" 
d="M518 334q37 32 54 41.5t42 9.5q13 0 26 -13t13 -29q0 -6 7 -1q1 1 2 3q5 7 28 7q7 0 14 -8t7 -16q0 -14 -3.5 -25t-3.5 -25q0 -85 -56 -293q-1 -3 -9 -13t-8 -12q-40 -138 -124.5 -214.5t-148.5 -76.5q-70 0 -70 53q0 18 13 32t31 14q4 0 12 -1.5t10 -1.5q6 0 6 -3
q0 -2 -2.5 -5t-2.5 -5q0 -4 6 -4q4 0 8 -9q5 -7 13 -7q19 0 52 23t72 70.5t73 109.5t57 151.5t23 185.5q0 10 -4 10q-6 0 -10 -4t-8.5 -12t-9.5 -12q-4 -4 -40.5 -63t-60.5 -86q-70 -86 -111 -86q-11 0 -37 31q-10 13 -21 2q-19 -21 -42.5 -38.5t-32.5 -17.5q-20 0 -30 18
t-10 45q0 17 9 98.5t9 90.5t-6 9q-2 0 -11 -6q-42 -71 -46 -79q-56 -107 -80 -138q-40 -51 -82 -51q-40 0 -40 49q0 41 44.5 126.5t106 157.5t102.5 72q27 0 27 -35q0 -5 4 -5q34 0 34 -45q0 -2 -7 -54.5t-13 -110.5t-3 -79q2 -13 15 -5q33 26 57.5 55.5t50 70.5t35.5 55
q3 4 16.5 25.5t28 43t25.5 30.5zM420 78q13 0 34 16.5t45.5 44t43.5 50.5t39.5 50.5t21.5 28.5q26 32 26 42q0 5 -8 5q-7 0 -15.5 7.5t-14.5 7.5q-16 0 -35 -20q-40 -43 -93.5 -123.5t-53.5 -93.5q0 -15 10 -15zM71 51q12 0 40 36t62 101q45 85 68 118q3 5 0 8t-5 8t-7 5
q-34 0 -103 -107t-69 -154q0 -15 14 -15z" />
    <glyph glyph-name="ah" unicode="ah" horiz-adv-x="674" 
d="M647 -107q-4 0 -12.5 8.5t-16 26t-7.5 35.5q1 21 -12.5 93t-13.5 88q0 27 -13 27q-9 0 -14 -10q-41 -57 -67 -133q-1 -3 -3 -7l-3.5 -7t-1.5 -5q0 -3 -14 -58q-6 -16 -26 -16q-7 0 -14.5 8t-7.5 23q0 10 10 61.5t23.5 134.5t20.5 156q1 14 -4 13q-4 0 -6 -7
q-2 -5 -13.5 -40.5t-23.5 -68t-20 -44.5q-7 -11 -9 -38.5t-10 -45.5q-59 -136 -114 -136q-23 0 -23 94q0 10 4 48t4 47q0 8 -6 8t-8 -6q-2 -3 -9 -9.5t-9 -10.5q-148 -222 -204 -222q-42 0 -42 48q0 32 58.5 116t125 155.5t87.5 71.5q24 0 30 -22q3 -8 19 -8q11 0 19.5 -7.5
t8.5 -19.5q0 -7 -14.5 -25.5t-14.5 -38.5q0 -33 -2 -80t-2 -55q0 -18 9 -18q12 0 168 392q6 14 12 20t20 6q11 0 23.5 -10.5t12.5 -18.5q0 -10 -2.5 -14t-2.5 -5t-2 -3.5t-2 -5.5q0 -1 0.5 -5.5t0.5 -6.5t-3.5 -9.5t-4.5 -10.5q-3 -32 -21 -127.5t-22 -119.5q-2 -8 1 -9t7 7
q2 4 6.5 14t9.5 21t6 14t7.5 8.5t7.5 7.5q40 66 69 66q25 0 25 -35q0 -85 30 -199l4 -10q4 -10 8.5 -20.5t8 -21.5t3.5 -14q0 -35 -29 -35zM44 -41q5 0 11 2q36 20 98 102.5t100 147.5q5 8 5 18q0 11 -10 11q-7 0 -58 -56.5t-100 -123.5t-49 -90q0 -8 3 -11z" />
    <glyph glyph-name="ai" unicode="ai" horiz-adv-x="607" 
d="M590 366q-13 0 -23.5 11.5t-10.5 27.5q0 33 39 33q11 0 21.5 -8t10.5 -25q0 -15 -11.5 -27t-25.5 -12zM36 -63q-20 0 -34.5 12.5t-14.5 35.5q0 26 61 118t134.5 175t103.5 83q23 0 40 -29q6 -15 18 -18q2 -1 8.5 -4t8.5 -4.5t4 -6t2 -10.5q0 -22 -17 -47q-1 -3 -2 -7.5
t-1.5 -10.5t-1.5 -10q-28 -136 -28 -155q0 -10 3.5 -11.5t9.5 7.5q12 18 70 90.5t100 116.5q35 33 46 33q3 0 7 -3t7 -4q22 -8 22 -21q0 -39 -19 -111t-19 -86q0 -9 2.5 -17t2.5 -9q0 -3 -1 -5.5t-1 -4.5q0 -1 1.5 -2.5t1.5 -3.5q0 -11 -6 -21.5t-16 -10.5q-15 0 -26.5 15
t-11.5 32t20 89.5t20 82.5q0 6 -2 6.5t-9 -2.5q-98 -59 -161 -197q-9 -17 -24.5 -36t-25.5 -19q-36 0 -36 52q0 30 8.5 92.5t8.5 64.5q0 9 -5 9q-4 0 -9 -7q-19 -19 -20 -21q-58 -87 -120.5 -153.5t-98.5 -66.5zM55 2q3 -2 11 2q32 19 79.5 67.5t83.5 101.5q7 9 21 34.5
t18 31.5q6 7 21 35q6 9 6 20q0 18 -16 18q-20 0 -124.5 -134.5t-104.5 -164.5q0 -8 5 -11z" />
    <glyph glyph-name="aj" unicode="aj" horiz-adv-x="524" 
d="M519 446q0 -11 -10 -26.5t-26 -15.5q-13 0 -26.5 15.5t-13.5 37.5q0 15 16 23.5t28 8.5q32 0 32 -43zM449 225q-38 -48 -48 -64.5t-29 -65.5q-2 -4 -3.5 -13.5t-1.5 -10.5q-22 -46 -49 -46q-14 0 -24 16t-13 28v138q0 11 -5 11t-11 -6q-1 -2 -15 -25.5t-18 -28.5
q-5 -11 -32 -38.5t-33 -37.5q-4 -6 -11.5 -20t-11.5 -20q-22 -32 -54 -57.5t-52 -25.5q-38 0 -38 53q0 16 13 48q13 41 49.5 105t87 120t87.5 56q17 0 29.5 -13.5t12.5 -31.5q0 -10 9 -10q36 0 36 -50q0 -25 -2 -56.5t-2 -43.5q0 -35 4 -57q1 -7 5 -7.5t6 5.5q14 35 33.5 74
t40 77.5t26.5 51.5q8 16 28 16q3 0 21 -10q21 -15 21 -28q0 -179 -51 -325q-19 -56 -58.5 -95t-74.5 -53t-64 -14q-26 0 -49.5 12t-23.5 22q0 4 4 4l4 -1h5q7 0 7 6t17 6q32 0 54 3.5t49.5 14.5t52 36.5t45.5 65.5q18 34 26 84t9 82t1 115q0 9 -2 9.5t-7 -5.5zM49 10
q5 -3 11 2q22 14 75 78.5t95 123.5q2 3 5 9.5t6 12t6 9.5t1.5 7.5t-5.5 3.5q-11 0 -11 10q0 19 -15 19q-14 0 -52.5 -44t-76 -109.5t-42.5 -112.5q-1 -5 3 -9z" />
    <glyph glyph-name="ak" unicode="ak" horiz-adv-x="666" 
d="M445 -167q-3 0 -6.5 3.5t-3.5 5.5q-1 2 -6.5 6t-5.5 11q0 13 1 23t1 15q0 12 -1 54t-1 52q0 16 -13 18q-24 3 -24 22q0 11 24 35q10 10 10 26q0 43 -1 103t-1.5 104.5t-0.5 49.5q0 14 -4 13q-3 0 -6 -7q-21 -41 -32 -98t-13 -62t-9 -14t-8 -13q-8 -19 -26 -74.5
t-24 -71.5q-8 -22 -22 -35t-23 -13q-29 0 -29 94q0 11 -1.5 48.5t-1.5 46.5q0 8 -5 8q-7 0 -8 -6q-1 -2 -9 -8.5t-10 -11.5q-6 -9 -19.5 -29.5t-19.5 -29.5t-17.5 -25.5t-18 -24t-16.5 -19.5t-17 -17.5t-15.5 -11.5t-16.5 -8.5t-16 -2.5q-34 0 -34 34q0 50 41.5 123.5
t93 126.5t81.5 53q24 0 30 -21q4 -11 10 -14q8 -4 8 -23q0 -144 5 -197q2 -19 10 -19q5 0 26 71t55.5 183.5t63.5 184.5q8 24 35 24q3 0 7.5 -4t6.5 -5q9 -2 11 -6q3 -4 3 -28q0 -9 -1 -20q0 -1 -5 -16t-5 -17q0 -3 -0.5 -11.5t-0.5 -13.5q0 -1 -3.5 -33.5t-7.5 -91
t-4 -123.5q0 -10 4 -10q5 0 10 4q100 98 113 109q5 4 9.5 10t8.5 9t11 3q27 0 27 -20q0 -11 -5 -19t-18.5 -19.5t-30 -24t-48.5 -40t-66 -59.5q-9 -9 -9 -17t18 -13q108 -36 174 -49q3 -1 9 -1.5t9 -1.5t6 -3t4.5 -6t1.5 -10q0 -21 -27 -21q-20 0 -103.5 26.5t-86.5 26.5
q-11 0 -11 -15v-125q0 -7 5 -10.5t5 -11.5t-7 -16.5t-14 -8.5zM39 33q5 0 10 2q59 32 163 211q4 8 4 18q0 12 -9 12q-29 0 -100 -101.5t-71 -131.5q0 -7 3 -10z" />
    <glyph glyph-name="al" unicode="al" horiz-adv-x="485" 
d="M37 -27q-15 0 -25.5 14.5t-10.5 37.5q0 43 37 118.5t94 137t103 61.5q12 0 22.5 -8.5t10.5 -20.5q0 -13 10 -13q27 0 27 -25q0 -13 -8 -34.5t-11 -37.5q-9 -48 -9 -129q0 -12 5 -12q6 0 26 28.5t53 103t61 171.5q19 68 21 73q25 61 52 61q10 0 18 -5.5t8 -10.5
q0 -26 -19 -60q-20 -43 -40 -117q-2 -6 -8.5 -22.5t-7.5 -20.5q-14 -63 -16.5 -107t3.5 -101q2 -21 11.5 -44t9.5 -26q0 -38 -22 -38q-14 0 -28.5 35t-14.5 79q0 13 4 66.5t4 73.5t-8 3q-15 -27 -39 -82t-35 -75q-4 -4 -14 -19t-18.5 -24t-14.5 -9q-32 0 -32 49q0 27 1 83.5
t1 58.5q0 7 -3 7.5t-6 -5.5q-14 -16 -26 -38q-9 -13 -25.5 -38.5t-24.5 -38t-22 -32t-23.5 -29t-22 -20t-24.5 -15t-24 -4.5zM71 21q6 0 12.5 3.5t15 12t15 15.5t17 22.5t16.5 24t19 28.5t19 29t16 36t14 34q3 4 7.5 15t8.5 18.5t9 8.5q4 1 4.5 3t-1 3.5t-2.5 1.5
q-4 1 -10 6.5t-11 5.5q-21 0 -59.5 -40t-71 -101t-32.5 -111q0 -15 14 -15z" />
    <glyph glyph-name="am" unicode="am" horiz-adv-x="866" 
d="M777 33q0 68 -6 108q-1 9 -10 9q-10 0 -30.5 -23t-64.5 -79q-42 -52 -68 -52q-16 0 -16 35q0 14 16.5 70.5t17.5 70.5q0 4 -7 6.5t-9 -1.5q-5 -5 -23 -33t-29 -42q-13 -20 -31 -29.5t-29 -24.5q-10 -13 -21.5 -31t-17.5 -26.5t-14.5 -15t-17.5 -6.5q-18 0 -18 26
q0 18 12 54q32 147 32 149q0 9 -8 2q-11 -8 -18 -16.5t-16.5 -25.5t-15.5 -27q-75 -112 -83 -123q-18 -25 -41 -25q-13 0 -13 32q0 13 3 22.5t3 26.5q0 5 5 29t5 30q-1 11 -3.5 32t-2.5 23q0 8 -6 8q-4 0 -8 -6q-3 -4 -9.5 -10.5l-8.5 -8.5q-43 -49 -71 -87t-62 -77
q-53 -50 -67 -50q-18 0 -32.5 13t-14.5 34q0 31 52 114t113.5 154t86.5 71q17 0 27 -8t10 -20q0 -4 1 -9t1 -8q0 -4 7 -6q27 -12 27 -30q0 -23 -1 -82.5t-1 -80.5q0 -12 5 -12q6 0 17 20q43 74 104 166q2 3 8 10.5t9 11t8.5 9t10 8.5t11.5 5t14 2q18 0 18 -26q0 -3 -11 -31
q-39 -121 -46 -176q0 -15 1 -15q3 0 9 7q26 22 47 48.5t46 62.5t43 59q28 36 61 36q14 0 14 -39q0 -13 -8 -67.5t-8 -59.5q0 -1 1 -3t4 -2t6 4q7 5 16 18q2 2 4.5 5.5t4.5 5.5q4 5 14 15q9 12 23 23q50 39 73 39q5 0 10 -9.5t6 -17.5q6 -32 6 -136q0 -12 12 -12q2 0 6 1t7 1
q11 0 11 -15q0 -11 -12 -22.5t-24 -11.5q-46 0 -46 42zM48 14q6 0 56 54t103 117q45 57 45 84q0 9 -15 9q-25 0 -74 -59.5t-85.5 -121.5t-36.5 -73q0 -7 1 -8.5t4 -1.5h2z" />
    <glyph glyph-name="an" unicode="an" horiz-adv-x="721" 
d="M25 -54q-16 0 -27 12t-11 37q0 34 40 114.5t97 151t96 70.5q15 0 25.5 -11.5t10.5 -30.5q0 -9 8 -12q2 -1 7 -3t6 -3t4.5 -3t4 -4t1.5 -5.5t1 -8.5q0 -131 7 -180q2 -12 11 -2q23 28 65 107.5t51 111.5q18 38 39 38q14 0 22.5 -7t8.5 -17q0 -3 1 -7t1 -6q0 -7 -7.5 -27.5
t-8.5 -25.5q-20 -84 -20 -119q0 -12 1 -12q3 0 8 9q2 3 10 12.5t11 15.5q52 106 128 178q5 8 13 14q3 2 10.5 8.5t10.5 8t10 4t15 2.5q9 0 14.5 -8t4.5 -18q-1 -29 3 -96.5t4 -88.5t6.5 -71t9.5 -55q5 -9 5 -20q0 -31 -26 -31q-12 0 -21.5 8.5t-9.5 23.5q0 5 -5.5 43
t-5.5 44q0 5 -3 50t-6 82t-5 43q-4 8 -5 8t-9 -4q-8 -3 -34.5 -34t-35.5 -45q-13 -19 -43 -70t-45 -69q-31 -38 -52 -38q-19 0 -19 23q0 27 11.5 87t11.5 65q0 15 -11 0q-6 -9 -42.5 -72t-40.5 -75q-6 -15 -19.5 -31t-23.5 -16q-22 0 -31 86q-6 56 -6 127q0 8 -7 8
q-5 0 -9 -6q-24 -39 -45 -85q-34 -68 -81.5 -121.5t-78.5 -53.5zM44 -6q14 0 40.5 30t58.5 92q14 26 84 137q3 3 3 7q0 2 -1 3.5t-2 2l-3 1.5t-3 2q-5 10 -17 10q-21 0 -96.5 -118t-75.5 -152q0 -15 12 -15z" />
    <glyph glyph-name="ao" unicode="ao" horiz-adv-x="592" 
d="M264 -26q-9 0 -15.5 20t-7.5 35q-1 7 0 24t1 26q0 10 -2 55t-2 71q0 8 -6 8q-2 0 -8 -6q-9 -8 -15.5 -15.5t-9 -13t-9 -18t-11.5 -22.5q-39 -71 -84.5 -125.5t-71.5 -54.5q-36 0 -36 52q0 30 38.5 106.5t90.5 143.5t84 67q19 0 31 -11.5t12 -20.5q0 -3 3 -13t6 -12
q23 -12 23 -55q0 -106 6 -152q2 -21 14 -3q10 17 62.5 123t57.5 119q12 40 38 40q22 0 30 -20q1 -10 13 -10q1 0 14 3t25 3q24 0 43 -27t19 -65q0 -45 -28.5 -112t-72.5 -119.5t-82 -52.5q-41 0 -41 81q0 51 28 131.5t28 85.5q0 23 -11 8q-7 -9 -54.5 -104.5t-60.5 -125.5
q-5 -13 -17 -28.5t-22 -15.5zM42 17q18 0 84 108q34 58 84 127q2 3 2 7q0 2 -1 3t-3.5 2.5t-4.5 2.5q-4 10 -10 10q-24 0 -93.5 -112t-69.5 -135q0 -13 12 -13zM424 -7q26 0 54.5 38t44.5 86q28 81 28 101q0 48 -18 48q-5 0 -16 -7t-18 -7q-5 0 -9.5 1.5t-5.5 1.5
q-9 0 -14 -15l-16 -48t-20 -61t-15.5 -56t-7.5 -50q0 -32 13 -32z" />
    <glyph glyph-name="ap" unicode="ap" horiz-adv-x="690" 
d="M427 -268q-17 0 -17 32q0 7 7 40t13.5 104t6.5 168q0 176 -4 210q-2 21 -8 1q-6 -15 -66 -242q-11 -35 -20.5 -48.5t-25.5 -13.5q-9 0 -15 12t-6 21q-10 68 -10 108q0 14 1.5 55t1.5 51q0 8 -6 8q-3 0 -8 -7q-22 -35 -47 -88q-43 -82 -82 -125q-16 -21 -53.5 -41.5
t-56.5 -20.5q-18 0 -27 10t-9 37q0 28 53.5 110t114.5 152.5t82 70.5q25 0 34 -26q4 -7 10 -7q2 0 6 -2t8 -2q17 0 17 -33q0 -170 4 -194q1 -6 7 -7t8 5q13 35 40.5 138t29.5 122q2 16 10.5 29.5t13.5 13.5q1 0 8.5 -2.5t13.5 -3.5q8 -1 16.5 -12t8.5 -20q0 -32 -1 -81
t-2.5 -113t-2.5 -101q0 -15 4 -15q2 0 5 13q1 5 8 24.5t9 31.5q5 16 13 31.5t9 19.5q28 97 58.5 150t74.5 53q24 0 36 -22t12 -52q0 -63 -46.5 -135t-92.5 -72q-7 0 -19 2q-7 5 -8 5q-4 0 -5 -5q-7 -25 -28.5 -83.5t-27.5 -89.5q-5 -25 -9 -54.5t-6 -46.5t-6 -33t-10.5 -23
t-18.5 -7zM575 106q27 0 57.5 56t30.5 98q0 13 -5 23t-12 10q-21 0 -42 -32.5t-53 -127.5q-8 -16 2 -16q5 0 10 -5.5t12 -5.5zM75 24q13 0 52 41t62 86q47 88 65 112q2 3 2 7t-5.5 9.5t-10.5 5.5q-16 0 -96 -110.5t-80 -136.5q0 -14 11 -14z" />
    <glyph glyph-name="aq" unicode="aq" horiz-adv-x="619" 
d="M530 -321q-23 0 -23 36q0 6 1.5 18t1.5 15q0 7 3 24t3 21q2 43 8.5 89t17 94t17.5 77t19.5 76t14.5 53q3 10 -1 10q-3 -1 -10 -9q-1 -1 -4 -3t-6.5 -5t-5.5 -7q-18 -29 -28 -49q-27 -53 -35 -64q-52 -67 -66 -75q-8 -5 -16 -5q-25 0 -39.5 22t-14.5 53q0 42 41.5 114.5
t77.5 108.5q5 4 6 7.5t-1.5 5.5t-7.5 2q-28 0 -69 -41q-45 -51 -70 -90q-3 -5 -4 -13.5t-3 -12.5q-26 -41 -46 -89q-14 -36 -21.5 -47t-21.5 -11q-9 0 -14.5 11t-5.5 19q-10 65 -10 103q0 17 3 33t6 25t3 10q0 9 1 27.5t1 20.5q0 8 -5 8q-3 0 -8 -7q-5 -9 -32 -69.5
t-30 -66.5q-10 -19 -15 -26.5t-16.5 -18.5t-19.5 -20q-2 -3 -6 -10.5t-6 -10.5q-30 -27 -60 -27q-18 0 -26 9.5t-8 35.5q0 34 37.5 108t85 135.5t72.5 61.5q23 0 33 -25q4 -7 8 -7q2 0 6.5 -2t8.5 -2q15 0 15 -31q0 -7 -3.5 -51t-4.5 -78.5t2 -70.5q1 -6 6 -7t8 5
q19 37 22 43q2 3 6.5 8t7.5 10q51 99 98 145.5t103 46.5q57 0 80 -57q2 -7 5 -7q4 0 6 5q7 8 28 8q25 0 25 -25q0 -6 -15 -49.5t-33.5 -100.5t-35 -152.5t-17.5 -193.5q0 -7 2.5 -16t2.5 -13q0 -22 -5.5 -30.5t-23.5 -8.5zM53 37q36 0 71 68q11 21 28.5 59t31 65.5
t18.5 35.5q3 3 3 7t-5.5 8.5t-9.5 4.5q-15 0 -82 -105t-67 -130q0 -13 12 -13zM426 23q4 0 17.5 16.5t32.5 41.5t19 26q28 37 29 39q3 5 11.5 16.5t10.5 14.5q5 7 11.5 22t11.5 20q2 2 2 6q0 6 -4 7q-12 4 -20 19t-16 15q-26 0 -74.5 -87.5t-48.5 -125.5q0 -30 18 -30z" />
    <glyph glyph-name="ar" unicode="ar" horiz-adv-x="660" 
d="M332 34q-34 -60 -46 -60q-38 0 -38 57q0 28 -0.5 77.5t-0.5 52.5q0 8 -5 8q-6 0 -9 -6q-2 -2 -9.5 -9t-10.5 -12q-110 -167 -177 -167q-19 0 -33.5 11.5t-14.5 34.5q0 42 45 119.5t108 140.5t105 63q35 0 37 -30q1 -13 17 -18q2 -1 8.5 -4t8.5 -4.5t4 -5.5t2 -10
q0 -20 -16 -46l-6 -27q-8 -52 -8 -139q0 -10 3 -12t8 7q17 27 45.5 73t35.5 57q1 1 6 15t9 19q59 89 91 89q19 0 31 -37v-24q0 -14 -0.5 -41t-0.5 -41q0 -9 -6 -46.5t-6 -50.5q0 -7 2 -7t6 8q7 22 14.5 42t13 33t15 30t13 23t13.5 22t11 18q4 6 20 16t22 19q12 18 34 35.5
t45 17.5q13 0 18 -3t6 -3q15 0 15 -22q0 -29 -54 -29q-26 0 -76 -62q-56 -69 -92 -205q-1 -5 -6 -15t-5 -14q0 -36 -38 -36q-10 0 -21 9t-11 23q0 6 7.5 36t7.5 31q8 120 8 191q0 22 -12 12q-24 -23 -64 -81.5t-69 -122.5zM44 20q4 -3 11 2q68 39 132 136q7 9 21.5 33.5
t18.5 30.5q3 4 9 10t6 13q0 5 2 13l3.5 14t1.5 7q0 10 -2.5 12.5t-10.5 2.5q-21 0 -68.5 -50t-88 -114.5t-40.5 -100.5q0 -7 5 -9z" />
    <glyph glyph-name="as" unicode="as" horiz-adv-x="549" 
d="M453 148q1 -1 45 -24q47 -22 47 -56q0 -29 -23 -52q-3 -3 -26.5 -8t-26.5 -7q-13 -8 -28.5 -21t-25.5 -18.5t-23 -5.5q-19 0 -42.5 10t-23.5 21q0 13 16 13q3 0 12.5 -2.5t24.5 -2.5q34 0 71.5 23t37.5 57q0 17 -22 27q-23 9 -37 21q-7 6 -18 -2q-21 -16 -73 -79l-9 -18
q-10 -13 -26.5 -24t-21.5 -11q-11 0 -14.5 4t-4 19t-2.5 24q-5 27 -7.5 85t-2.5 63q0 8 -5 8q-3 0 -9 -6q-4 -7 -12 -22t-17 -33l-12 -24q-82 -162 -159 -162q-36 0 -36 45q0 38 39 115t93.5 141.5t91.5 64.5q14 0 26.5 -9t12.5 -22q0 -6 5 -8q22 -8 22 -41q0 -31 -0.5 -68
t-0.5 -51t1 -29t4 -25q5 -13 15 -6q63 49 85 85q7 10 -1 21q-36 49 -36 70q0 39 40 77t73 38q26 0 41.5 -16.5t15.5 -39.5q0 -19 -19 -52.5t-55 -69.5q-10 -10 0 -17zM432 177q17 10 34 38.5t17 48.5q0 23 -29 23q-14 0 -19 -0.5t-13 -4t-10.5 -12.5t-2.5 -25q0 -56 6 -63
q9 -11 17 -5zM70 1q7 0 21 11t35.5 39.5t41.5 67.5q46 90 66 118q3 5 0 8q-4 2 -6 6.5t-6 4.5q-30 0 -97.5 -99.5t-67.5 -142.5q0 -13 13 -13z" />
    <glyph glyph-name="a_t" unicode="at" horiz-adv-x="572" 
d="M29 -68q-19 0 -28 10t-9 38q0 30 49 110.5t107 149.5t80 69q26 0 35 -26q1 -1 3 -3.5t3.5 -4t2.5 -1.5q2 0 6.5 -2t8.5 -2q18 0 18 -33q0 -137 7 -181q1 -7 6 -8t10 6q14 19 39.5 52t38 52t12.5 27q0 5 -14.5 14t-14.5 21q0 8 9.5 19t24.5 15q7 4 19.5 7.5t25.5 8.5
q5 3 17.5 20t14.5 24q12 64 12 98q0 2 2.5 13t2.5 14q0 24 7 30t27 6q14 0 25 -12.5t11 -29.5q0 -5 -4.5 -13t-6.5 -14q-2 -4 -4 -6q-3 -10 -9 -29.5t-9 -27.5q-4 -6 -7 -25q-5 -16 13 -9q63 21 81 21q27 0 27 -21q0 -2 -0.5 -3.5t-2 -3t-2.5 -2t-4 -1.5t-5.5 -1.5t-7 -1.5
t-7.5 -2q-21 -3 -32 -8q-3 -1 -7 -4t-7 -4q-3 -2 -9 -4t-8 -3q-1 0 -5 -4.5t-7 -5.5q-2 -1 -9.5 -6t-9.5 -5q-10 -6 -22 -31q-19 -51 -19 -112q0 -12 2.5 -25t2.5 -20v-72q0 -5 1.5 -11t1.5 -10q0 -32 -24 -32q-40 0 -40 58q0 15 5 46t14 78t12 62q2 8 -0.5 12t-8 2.5
t-11.5 -7.5q-16 -17 -61 -87q-48 -72 -73 -101.5t-42 -29.5q-15 0 -15 25q-7 39 -7 106q0 3 2.5 23.5t2.5 22.5q0 10 1 30t1 22q0 9 -6 9q-2 0 -10 -8q-23 -40 -48 -91q-35 -66 -81 -118q-3 -4 -7.5 -12t-6.5 -11q-14 -15 -42 -25.5t-38 -10.5zM67 -4q11 0 44.5 37.5
t56.5 83.5q51 96 68 116q2 4 2 9q0 4 -6 8.5t-11 4.5q-16 0 -91 -109.5t-75 -135.5q0 -14 12 -14z" />
    <glyph glyph-name="au" unicode="au" horiz-adv-x="727" 
d="M706 2q0 -11 -9 -22.5t-23 -11.5q-29 0 -29 29q0 107 -11 166q-3 11 -4 11q-6 0 -9 -6q-3 -3 -7.5 -7t-8.5 -11q-1 -2 -6.5 -5t-8.5 -12q-33 -71 -85 -125q-19 -18 -46 -33t-42 -15q-12 0 -20 9.5t-8 20.5q0 26 33 126.5t35 113.5q1 5 0 7t-3.5 1t-4.5 -5
q-12 -19 -30 -47q-3 -5 -10 -11t-8 -7q-44 -77 -60 -119q-6 -17 -9.5 -25t-12.5 -18t-21 -10q-17 0 -29 54q-1 3 0 13t1 13q0 30 -4 55t-8 38t-4 16q0 12 -5 12q-4 0 -10 -6q-18 -33 -33 -55q-5 -11 -25.5 -27.5t-26.5 -25.5q-26 -44 -38 -61q-37 -58 -76 -58q-38 0 -38 53
q0 45 33.5 115.5t84.5 126t92 55.5q38 0 37 -40q0 -9 13 -9q36 0 36 -51q0 -122 5 -146q3 -13 11 -2q52 76 125 219q11 23 42 23q14 0 26.5 -12t12.5 -25q0 -5 -3.5 -13t-9.5 -20.5t-10 -21.5q-45 -137 -45 -169q0 -11 6 -11q9 0 20 10q2 2 21.5 14t27.5 22q47 58 96 156
q10 22 15.5 28t13.5 6q10 0 19.5 -7t9.5 -20q0 -42 -2.5 -85.5t-2.5 -57.5q0 -28 15 -59t15 -41zM56 26q5 -2 10 2q37 23 138 165l7.5 15t8.5 16q4 4 2.5 7t-6.5 3q-10 0 -10 10q0 20 -15 20q-14 0 -44.5 -35t-59.5 -91t-34 -103q-1 -5 3 -9z" />
    <glyph glyph-name="av" unicode="av" horiz-adv-x="608" 
d="M431 -20q-12 0 -23 24t-11 34v19q-11 92 -11 145q0 14 -8 3q-5 -6 -39.5 -71t-38.5 -77q-5 -14 -18 -29.5t-22 -15.5q-19 0 -29 80q-9 79 -9 103q0 8 -5 8t-9 -6q-36 -65 -47 -95q-27 -67 -68 -104t-75 -37q-15 0 -25.5 12t-10.5 35q0 48 42 121t93.5 125.5t77.5 52.5
q38 0 38 -33q0 -8 7 -11q20 -11 20 -39q0 -105 9 -141q3 -10 12 1l9 9t16 19.5t16 28.5q2 3 2 12t3 13q10 23 23 49t18.5 37.5t5.5 15.5q3 48 28 48q5 0 26 -6q19 -4 19 -21q0 -11 -6 -40.5t-6 -31.5q0 -114 5 -148q3 -14 9 -14q19 0 31 14q57 66 102 147t65 141
q2 5 8.5 8.5t7.5 6.5q5 7 14 7q7 0 7 -15l2 -3q1 -3 1 -5q0 -5 -4 -10q-19 -45 -84 -159.5t-93 -148.5q-49 -58 -75 -58zM41 16q8 0 23 10.5t37.5 39t42.5 67.5q39 73 62 107q2 3 2 7q0 2 -1 3t-3.5 2.5t-3.5 2.5q-4 10 -16 10q-26 0 -90 -101t-64 -134q0 -14 11 -14z" />
    <glyph glyph-name="aw" unicode="aw" horiz-adv-x="823" 
d="M320 -40q-17 0 -21 35q-6 40 -23.5 108t-22.5 79q-4 11 -6 11q-1 0 -9 -8q-26 -24 -64 -100q-56 -115 -118 -115q-14 0 -24 15t-10 35q0 43 35 116.5t81.5 130.5t76.5 57q15 0 29 -11t14 -19t9 -12q8 -5 15 -17.5t7 -25.5q0 -23 9 -77t22 -95q8 -19 14 -3q36 82 74 209
q2 7 4.5 18t4.5 18t5 14.5t8 11t12 3.5q46 0 46 -22q0 -82 2 -143t2 -69q0 -10 5 -10q13 0 59 101q56 109 96 109q11 0 17.5 -10t6.5 -21q0 -16 6.5 -49.5t8.5 -54.5q0 -5 2.5 -12.5t2.5 -12.5q0 -19 3 -34q1 -5 3 -18t3 -16q1 -12 7 -12q3 0 11 8q1 3 9.5 20t10.5 23
q18 44 24 122q3 13 12 39.5t11 45.5q2 23 5.5 28t19.5 5q13 0 13 -26q0 -67 -29 -173q-3 -11 -12 -31.5t-11 -26.5q-25 -56 -47 -86.5t-46 -30.5q-10 0 -18 28.5t-11 70.5q-11 146 -38 146q-11 0 -65 -111q-8 -20 -15 -34q-2 -5 -7.5 -15t-8 -15l-7 -14t-7.5 -14t-7.5 -11.5
t-8 -10l-7.5 -7.5t-7.5 -5.5t-7.5 -1.5q-29 0 -29 72q0 31 -1.5 98t-1.5 75q0 7 -3.5 8.5t-8.5 -6.5q-34 -80 -49 -134q-2 -4 -2.5 -14.5t-1.5 -13.5q-13 -33 -14 -40q-4 -25 -14 -48.5t-23 -23.5zM72 18q23 0 70 87q3 6 80 136q3 3 3 8q0 3 -4 6t-6 5q-5 11 -11 11
q-26 0 -85.5 -104.5t-59.5 -132.5q0 -16 13 -16z" />
    <glyph glyph-name="ax" unicode="ax" horiz-adv-x="686" 
d="M435 230q-27 -78 -88 -182q-2 -4 -3.5 -14t-3.5 -14q-38 -59 -64 -59q-3 0 -5 0.5t-3.5 2t-3 3.5t-2.5 6t-1.5 7.5t-1.5 10t-1.5 12t-2 15t-2.5 17.5q-13 87 -13 115q0 8 -5 8q-7 0 -8 -6q-3 -4 -12 -24t-10 -23q-33 -65 -80.5 -122t-81.5 -57q-42 0 -42 48q0 32 49 112
t106 147.5t78 67.5q24 0 30 -22q3 -8 18 -8q11 0 19.5 -7.5t8.5 -19.5q0 -7 -11 -34.5t-11 -47.5q0 -77 10 -117q1 -2 2 -8.5t2.5 -8t4.5 -1.5q5 0 19 20.5t32.5 56t32.5 71.5q1 4 1 20.5t2 20.5q9 20 18 51q4 12 16 23t22 11t35 -18q4 -3 24 -28.5t27 -31.5q4 -4 10 -4
q4 0 10 4q46 27 86.5 54.5t55.5 36.5t26 9q33 0 33 -22q0 -37 -32 -37q-28 0 -145 -68q-8 -6 -8 -11t5 -12q46 -66 59 -89.5t13 -42.5q0 -32 -21 -32q-9 0 -13.5 5.5t-5.5 15.5t-1 11t-9 10q-1 1 -4.5 11.5t-3.5 13.5q0 2 -4 7.5t-4 6.5q-14 38 -37 69q-4 4 -14 4
q-6 0 -13 -7q-3 -2 -17.5 -12.5t-18.5 -14.5q-42 -53 -42 -76q0 -9 3.5 -18.5t3.5 -12.5q0 -6 5 -13l3 -4q4 -4 8 -8.5t9 -9t11 -7t12 -2.5q5 0 6.5 -0.5t3 -3.5t1.5 -9q0 -11 -10 -19t-27 -8q-29 0 -49.5 32t-20.5 71q0 2 10 32q3 10 10 21t12.5 18t18 21t16.5 19
q8 11 29 29q6 6 6 12t-4 9q-33 39 -49 39q-10 0 -14 -11zM59 -13q5 0 10 2q13 7 29 24t28.5 33.5t31 46t27.5 44.5t27.5 47t21.5 37q4 8 4 18q0 11 -9 11q-13 0 -93 -109t-80 -143q0 -8 3 -11z" />
    <glyph glyph-name="ay" unicode="ay" horiz-adv-x="775" 
d="M390 -353q-4 0 -14.5 2t-14.5 2q-3 0 -5.5 5.5t-10.5 5.5q-9 0 -9 6q0 7 10.5 17.5t24.5 12.5q10 2 17 2q67 4 144.5 78t120.5 184q6 14 11.5 44.5t10.5 42.5q46 138 46 154t-5 16q-1 0 -16 -9q-23 -14 -32 -29q-1 -2 -13.5 -16.5t-31.5 -39.5t-34 -51q-51 -80 -99 -80
q-13 0 -24 14.5t-11 29.5q0 7 44.5 95t44.5 106q0 4 -2.5 6t-6.5 -1q-97 -106 -165 -223q-15 -26 -24 -34.5t-23 -8.5q-18 0 -24 32q-4 24 -9 88.5t-5 80.5q0 8 -6 8q-4 0 -8 -6q-2 -4 -9.5 -10t-9.5 -9q-55 -86 -115 -154.5t-94 -68.5q-42 0 -42 63q0 23 25.5 82t67.5 124
q28 44 69 78t80 34q33 0 42 -33q3 -8 19 -8q11 0 19.5 -7.5t8.5 -19.5q0 -110 10 -180q4 -18 9 -18q9 0 18 19q23 48 79.5 122t92.5 110q4 4 13 15.5t16 16t17 4.5q35 0 35 -36q0 -29 -44 -119.5t-47 -114.5q-1 -11 5 -11.5t10 6.5q16 27 110 153q14 19 36.5 39t23.5 21
q7 8 25 8q11 0 18.5 -10.5t7.5 -28.5q0 -44 -24 -121q-43 -134 -94.5 -233t-99 -149.5t-87.5 -74t-72 -23.5zM60 6q5 0 10 2q38 21 94 91t91 130q5 8 5 18q0 3 -1.5 4.5t-4.5 3.5t-4 4q-6 12 -17 12q-41 0 -104.5 -92t-71.5 -163q-1 -6 3 -10z" />
    <glyph glyph-name="az" unicode="az" horiz-adv-x="692" 
d="M309 16q-12 -25 -41 -25q-12 0 -12 32q0 13 4 30t4 34q0 5 -1.5 28.5t-1.5 29.5q-1 10 -1.5 19.5t-0.5 12.5q0 8 -5 8q-4 0 -8 -6q-3 -4 -10 -11l-9 -9q-6 -7 -50.5 -69.5t-85 -102t-73.5 -39.5q-18 0 -28.5 12.5t-10.5 33.5q0 32 47.5 114t109.5 152.5t96 70.5
q37 0 37 -28q0 -4 1 -8.5t1 -7.5q0 -4 8 -6q21 -11 21 -33q0 -10 -1 -46t0 -54q0 -16 2 -37t2 -24q0 -11 5 -11q3 0 4.5 0.5t5.5 5t8 13.5q2 5 16.5 35.5t18 37.5t16.5 29.5t22.5 31.5t25.5 23t34 23q9 5 17.5 12.5t13.5 9.5q27 11 81 22t84 11q13 0 21.5 -9t8.5 -24
q0 -19 -40 -64q-3 -3 -12.5 -8.5t-13.5 -8.5q-9 -9 -36 -34t-47.5 -46.5t-28.5 -34.5q-6 -8 -6 -9q0 -4 16 -2q130 13 146 13q14 0 23.5 -2.5t11.5 -2.5q8 0 8 -9t-6 -10q-1 -1 -6.5 -0.5t-6.5 -1.5q-12 -12 -60 -12q-22 0 -79.5 -11.5t-86.5 -20.5q-9 -2 -11 -16
q-11 -29 -35 -29q-9 0 -16.5 6.5t-7.5 13.5q0 8 -7 15q-6 5 -6 14q0 20 33 29q23 8 33 22q25 32 98.5 101.5t82.5 79.5q4 6 4 10t-12 4q-32 0 -87 -15t-84 -34q-2 -1 -12 -3.5t-12 -4.5q-15 -16 -30 -43.5t-40 -79.5t-43 -87zM43 1q6 0 15 9q38 38 151 174q45 55 45 83
q0 6 -8 9.5t-15 3.5q-25 0 -75 -61.5t-88.5 -125.5t-38.5 -75q0 -17 14 -17z" />
    <glyph glyph-name="ba" unicode="ba" horiz-adv-x="647" 
d="M75 -65q-23 0 -33 19q-5 8 -14 12q-23 12 -23 30q0 12 2 22t5.5 24t5.5 28q14 78 25 126l12 50q12 50 23.5 102t11.5 65q0 34 26 34q16 0 29 -7t13 -18q0 -5 -3.5 -13.5t-6.5 -9.5q-8 -4 -8 -10q0 -1 -8 -9q-2 -4 -2.5 -14.5t-3.5 -14.5q-4 -11 -13.5 -47.5t-18.5 -68.5
q-1 -4 -6.5 -11.5t-6.5 -12.5q-1 -7 -1.5 -19.5t-0.5 -14.5l-3 -26q9 -7 29 28q2 4 8.5 10.5l7.5 7.5q14 17 41 43.5t31 31.5q33 31 57 31q26 0 39.5 -21t13.5 -48q0 -10 -7.5 -35t-15.5 -39q-6 -9 2 -10q6 -1 13 4q25 13 120 117q32 35 52 51t28.5 18.5t23.5 2.5t32.5 -12
t17.5 -29q0 -13 9 -16q36 -11 36 -40q0 -5 -8.5 -64.5t-9.5 -133.5q0 -2 2 -9t2 -10q0 -36 6 -52q2 -6 6.5 -8t4.5 -9t-11.5 -16t-23.5 -9q-20 0 -25 18t-5 66q0 20 6.5 88t6.5 88q0 11 -5 11t-12 -6q-16 -29 -28 -46q-6 -10 -21.5 -24.5t-22.5 -25.5q-4 -7 -10 -24t-10 -24
q-45 -68 -93 -68q-18 0 -29.5 17t-11.5 39q0 46 27 110q6 12 2 16t-15 -5q-76 -56 -106 -111q-26 -49 -72 -84t-83 -35zM374 42q5 -3 11 2q12 8 29.5 28t30 37.5t38 53.5t35.5 51q2 3 8 16t9 17t1.5 7.5t-5.5 3.5q-11 0 -11 12q0 16 -17 16q-15 0 -47.5 -34.5t-61.5 -90.5
t-29 -103q0 -12 9 -16zM98 -13q49 0 104.5 86t55.5 149q0 30 -17 30q-20 0 -64.5 -42.5t-81 -96.5t-36.5 -83q0 -26 12 -31q1 0 7.5 -6t19.5 -6z" />
    <glyph glyph-name="bb" unicode="bb" horiz-adv-x="665" 
d="M73 -41q-34 0 -39 38q0 5 -4 5q-9 0 -17 7t-8 21q0 2 4 14t5 22q2 15 34 181t32 222q0 14 -4.5 25t-4.5 22q0 16 21 16q3 0 5.5 -1t5 -2.5t3.5 -1.5q3 -1 6.5 -1t4.5 -1q6 -4 7 -8q3 -7 3 -60q0 -38 -38 -190t-38 -158q0 -8 7 -8q6 0 9 6q5 8 19.5 38t20.5 39
q99 179 166 179q16 0 27 -12.5t11 -36.5q0 -18 -15.5 -55.5t-40.5 -75.5q-6 -10 -6 -13t9 7q47 53 111 143.5t80 125.5q5 9 12.5 24l9.5 19q20 34 30 38q4 1 7 1q20 0 26 -6.5t6 -19.5q0 -5 -3.5 -14t-6.5 -10q-8 -4 -8 -10q0 -1 -8 -9q-9 -15 -12 -23q-21 -52 -37 -147
q-1 -5 -6 -12t-6 -12q-2 -7 -2 -19.5t-1 -14.5l-3 -26q10 -6 29 28q2 3 8.5 10t7.5 8q44 51 67 74q30 32 63 32q26 0 39 -21t13 -48q0 -43 -37.5 -118t-97 -137.5t-109.5 -62.5q-6 0 -10.5 3t-6.5 6.5t-6.5 12.5l-7.5 15q-5 7 -15 12q-22 13 -22 30q0 15 7 30t10 31
q4 23 61 246q2 14 -2 17t-12 -8q-41 -49 -141 -176t-131 -172q-16 -23 -40.5 -40.5t-40.5 -17.5zM89 16q22 0 97.5 121.5t75.5 154.5q0 15 -12 15q-13 0 -47.5 -38.5t-71.5 -100.5q-19 -31 -39.5 -74.5t-25.5 -50.5q-2 -3 -2 -8q0 -3 4 -4.5t5 -3.5q5 -11 16 -11zM458 28
q46 0 108.5 101t62.5 147q0 30 -17 30q-30 0 -106.5 -89.5t-76.5 -114.5q0 -12 -0.5 -24.5t-1.5 -21t-1 -9.5q0 -8 6 -8q2 0 7.5 -5.5t18.5 -5.5z" />
    <glyph glyph-name="bc" unicode="bc" horiz-adv-x="544" 
d="M346 212q5 5 4.5 6t-8.5 -2q-36 -12 -78.5 -55t-74.5 -86.5t-68 -78.5t-61 -35q-30 0 -35 28q-3 19 -12 22q-21 6 -21 36q0 4 19 90q7 30 41.5 167.5t38.5 158.5q4 19 15 29t23 10q20 0 30 -11.5t10 -24.5q0 -4 -3.5 -10t-6.5 -7q-5 -2 -9.5 -13t-5.5 -13q-9 -11 -12 -22
q0 -1 -16 -33.5t-27 -67.5q-1 -4 -6 -10.5t-6 -10.5q0 -1 -3 -17.5t-6.5 -34t-3.5 -19.5q0 -6 -1.5 -13.5t-1.5 -9t1 -3.5q2 -2 5.5 0t9.5 9t13 19q2 3 17 18q12 14 27 36t25 32q57 62 98 62q52 0 52 -69q0 -37 -29 -85q-4 -7 -1 -7t5 2q9 9 20 18.5t19 15.5t22.5 16.5
t21.5 15t26.5 17.5t27.5 18q61 40 110 40q14 0 29 -6.5t15 -14.5q0 -24 -22 -24q-5 0 -12.5 -2.5t-16.5 -2.5q-51 0 -115 -58.5t-76 -140.5q-1 -5 2 -14t3 -14q0 -56 34 -56q23 0 57 28q2 2 7 8t7 8q5 7 14.5 5t9.5 -13q0 -4 -5 -9q-7 -5 -12 -21q-1 -2 -6.5 -8.5t-6.5 -8.5
q-6 -10 -28.5 -20.5t-45.5 -10.5q-27 0 -49.5 22.5t-22.5 71.5q0 64 12 93t43 60zM82 17q21 0 64.5 52t78 114.5t34.5 90.5q0 30 -15 30q-47 0 -118.5 -88.5t-71.5 -130.5q0 -17 -2 -33l-1 -15q0 -7 7 -7q1 0 6.5 -6.5t17.5 -6.5z" />
    <glyph glyph-name="bi" unicode="bi" horiz-adv-x="523" 
d="M490 390q-30 0 -30 25q0 37 35 37q8 0 18 -11t10 -26q0 -25 -33 -25zM307 184q38 38 90 92q4 4 12.5 13t13.5 14.5t12 10t12 4.5t21 -11q6 -3 7.5 -4t5 -4t4.5 -6t1 -7t-6 -40t-12.5 -87.5t-6.5 -91.5q0 -18 6.5 -30t6.5 -19q0 -10 -12 -21.5t-22 -11.5q-29 0 -29 52
q0 17 12.5 112.5t12.5 104.5q0 11 -12 4q-48 -29 -104.5 -88.5t-87.5 -103.5q-84 -118 -150 -118q-14 0 -25 8t-11 24q0 5 -14 12q-23 12 -23 30q0 14 7 29t10 32q5 25 49 166.5t50 162.5q3 8 6 21t5 24.5t2 12.5q10 40 39 40q19 0 28 -11t9 -25t-13.5 -22.5t-15.5 -19.5
q-5 -12 -21 -45q-3 -9 -23.5 -56.5t-38.5 -91.5t-22 -61l-3 -26q2 -2 6.5 0t10.5 9t12 19q36 74 107 127q2 2 6.5 7t6.5 7l6 6t7 5.5t6.5 3.5t7.5 3t8 1q26 0 40 -21t14 -48q0 -17 -18 -75q-7 -20 1 -18q3 0 9 6zM106 0q48 0 105.5 97.5t57.5 161.5q0 30 -16 30
q-25 0 -71.5 -60t-81.5 -120.5t-35 -68.5q0 -23 8 -23q2 0 11 -8.5t22 -8.5z" />
    <glyph glyph-name="bl" unicode="bl" horiz-adv-x="457" 
d="M367 -61q-40 0 -40 48q0 74 22 177.5t53 176.5q4 9 0 11t-8 -7q-22 -41 -80.5 -128.5t-79.5 -111.5q-54 -63 -92.5 -95t-75.5 -32q-22 0 -34 18q-9 19 -10 19q-22 12 -22 30q0 13 1.5 22t5.5 24t6 28q9 49 24 127q2 6 21 108t19 121q0 20 8.5 37t20.5 17q16 0 28.5 -9.5
t12.5 -22.5q0 -7 -10 -18t-10 -23q0 -19 -5 -29q-13 -37 -22 -80q-1 -5 -8 -18.5t-9 -19.5q-1 -7 -5 -44t-4 -39q-1 -6 -2.5 -13.5t-2 -8.5t1.5 -4q9 -7 29 28q6 9 16 19q17 20 58 67q44 44 72 44q26 0 37.5 -22.5t11.5 -50.5q0 -3 -18 -57q-2 -8 2 -8.5t6 3.5
q44 48 89 128.5t62 125.5q16 38 22 43q8 4 20 4t22 -7t10 -13q0 -8 -1.5 -13.5t-6.5 -13.5t-8 -14q-1 -3 -11 -20t-17 -30t-16.5 -38t-16.5 -50q-2 -6 -9.5 -24.5t-8.5 -21.5q-40 -108 -40 -247q0 -24 8 -38t8 -15q0 -40 -24 -40zM86 30q53 0 108 89t55 154q0 30 -17 30
q-32 0 -106 -89.5t-74 -134.5q0 -15 11.5 -32t22.5 -17z" />
    <glyph glyph-name="bo" unicode="bo" horiz-adv-x="660" 
d="M468 -64q-22 0 -39 28t-17 68q0 55 27 129.5t27 79.5q0 12 -4.5 13t-7.5 -3q-15 -9 -100.5 -87.5t-122.5 -118.5q-89 -96 -141 -96q-35 0 -46 36q-3 8 -20 8q-11 0 -20.5 8t-9.5 21q0 10 21 60q1 4 9.5 25.5t12 32l12 36t13 44t10.5 49t9.5 58t6 64t2.5 73.5q0 23 7 39.5
t7 17.5q0 40 22 40q14 0 21 -15.5t7 -30.5q0 -3 -5 -34.5t-5 -35.5q-3 -48 -17.5 -118t-28 -121.5t-13.5 -57.5q0 -9 7 -9q4 0 9 7q43 77 112.5 149.5t106.5 72.5q19 0 31.5 -14t12.5 -42q0 -21 -20.5 -67.5t-42.5 -83.5q-8 -13 -4.5 -16t14.5 7q129 126 140 144q7 13 26 30
t31 17q25 0 32 -22q1 -10 14 -10q2 0 15.5 3t26.5 3q23 0 36.5 -29.5t13.5 -72.5q0 -45 -28.5 -111t-71.5 -117t-78 -51zM310 320q-2 2 -11 -2q-40 -21 -113 -113.5t-110 -156.5q-5 -8 -5 -20q0 -4 4.5 -7t5.5 -5q8 -14 19 -14q41 0 90 54t83 126.5t40 127.5q1 6 -3 10z
M479 -13q35 0 73 85.5t38 145.5q0 23 -6 34.5t-15 8.5q-5 2 -16 -2.5t-18 -4.5q-5 0 -10 2.5t-6 2.5q-8 0 -14 -17q-52 -156 -52 -208q0 -20 9 -33.5t17 -13.5z" />
    <glyph glyph-name="br" unicode="br" horiz-adv-x="646" 
d="M96 11q58 0 114.5 101t56.5 190q0 32 -17 32q-22 0 -68 -53.5t-83.5 -119.5t-37.5 -97q0 -25 14 -33q1 -1 5.5 -10.5t15.5 -9.5zM448 -26q-9 0 -17.5 8.5t-8.5 22.5q0 3 2 10t6.5 33.5t8.5 73.5t4 91t-1 78l-2 34q0 12 -12 2q-42 -36 -92.5 -102.5t-87.5 -138.5
q-27 -54 -76 -88.5t-94 -34.5q-24 0 -35 20q-6 9 -15 13q-24 10 -24 32q0 13 2 23t6 25.5t7 29.5q1 4 12.5 60t12.5 76q0 6 19.5 100.5t19.5 111.5q0 21 9.5 41.5t21.5 20.5q15 0 25 -8.5t10 -22.5q0 -8 -7 -21t-7 -26q0 -19 -4 -30q-35 -89 -49 -189l-3 -26q2 -2 6.5 0
t11 9.5t13.5 20.5q1 2 19.5 24.5t19.5 25.5q14 16 29.5 45.5t21.5 36.5q33 33 60 33t41 -22.5t14 -50.5q0 -9 -7.5 -44.5t-11.5 -45.5q-2 -11 -1 -14t4 -1t8 10q1 2 23.5 33.5t43 57.5t48 50t47.5 24q10 0 22 -16t12 -40q0 -27 -8.5 -66t-8.5 -50q0 -10 -1.5 -31t-1.5 -35
q0 -16 10 1q36 152 140 210q8 5 15 6t17 0t12 -1q3 0 11 -3.5t11 -3.5q4 0 10 -5t6 -9q0 -7 -13.5 -19.5t-31.5 -11.5q-35 2 -69 -40q-32 -40 -62 -100.5t-37 -125.5q-1 -6 -5.5 -17t-4.5 -15q0 -18 -12 -28.5t-32 -10.5z" />
    <glyph glyph-name="bs" unicode="bs" horiz-adv-x="522" 
d="M407 10q-35 0 -61.5 16t-26.5 30q0 6 5 12t11 6q3 0 11.5 -6t26 -12t42.5 -6q13 0 38 15.5t25 34.5q0 26 -24 40q-6 4 -18.5 8t-20.5 12q-11 11 -24 4q-9 -3 -79 -48.5t-85 -53.5q-7 -4 -21 -11t-25.5 -13.5t-19.5 -14.5q-24 -23 -65 -23q-12 0 -20 3q-3 1 -5 2t-3 1
q-7 0 -7 -3q-8 -33 -29 -33q-18 0 -24 8t-6 26q0 9 5 23t7 22q4 25 24.5 142t34 206t13.5 120q0 2 -7 9.5t-7 18.5q0 5 4 10t12 5q6 0 18 6.5t20 6.5t14 -7.5t6 -17.5q0 -7 -4.5 -22t-4.5 -24q0 -12 -9.5 -55.5t-11.5 -58.5q-1 -8 -15.5 -71.5t-27 -128.5t-14.5 -96
q-2 -16 5 -16q2 0 5 14q1 3 6 10.5t6 10.5q20 75 66.5 147.5t91.5 72.5q23 0 40.5 -21t17.5 -65q0 -19 -10 -43.5t-23 -47.5t-16 -31q-2 -8 -0.5 -10.5t8.5 -0.5q10 4 55 32.5t65 43.5q7 5 2 13q-15 28 -15 59q0 18 12 36.5t36 27.5q2 1 13.5 10t19.5 9q66 0 66 -48
q0 -26 -16 -51t-42 -39q-13 -7 -4 -15q1 -1 5 -12.5t17 -18.5q4 -3 13.5 -4.5t12.5 -3.5q24 -19 24 -43q0 -37 -34 -67.5t-79 -30.5zM429 221q44 22 44 63q0 25 -32 25q-10 0 -24 -13.5t-14 -37.5q0 -1 9 -28q6 -13 17 -9zM98 54q5 2 21 1t26 2q39 11 60 56q0 1 10 20t14 29
t11.5 28t10.5 32.5t3 27.5q0 15 -8 24.5t-19 9.5q-14 0 -34 -20.5t-48 -72.5t-54 -127q-3 -7 -2 -10t9 0z" />
    <glyph glyph-name="bu" unicode="bu" horiz-adv-x="726" 
d="M33 -69q-18 0 -24 7.5t-6 26.5q0 9 5.5 28t6.5 25q19 111 42 216t34 157t11 82q0 2 -1 20.5t-1 28.5q0 8 4.5 22.5t12.5 14.5q4 0 16 8.5t21 8.5q7 0 14 -12t7 -23q0 -13 -9 -42q-43 -140 -49 -181q-2 -10 -14 -60t-23.5 -103.5t-13.5 -84.5q-2 -16 5 -16q2 0 5 13
q1 4 11.5 29.5t10.5 28.5q20 75 61.5 140t86.5 65q23 0 40 -21.5t17 -65.5q0 -19 -8.5 -47t-22.5 -60t-15 -35q-2 -8 -0.5 -10.5t8.5 -0.5q10 4 65.5 80.5t96.5 138.5q25 39 36 39q14 0 30 -13t16 -24q0 -5 -4.5 -17t-11.5 -28t-10 -25q-16 -47 -27.5 -106.5t-11.5 -78.5
q0 -13 6 -13q10 0 22 11q1 2 14.5 16t22.5 25q61 73 105 167q12 24 17.5 30.5t13.5 6.5q10 0 20.5 -7.5t10.5 -21.5q0 -44 3 -80t3 -51q0 -16 3.5 -58.5t3.5 -59.5q0 -11 -8 -19.5t-17 -8.5q-28 0 -28 33q0 150 -4 167q-3 12 -4 12q-5 0 -11 -6q-2 -3 -9.5 -13t-11.5 -18
q-1 -1 -20 -21t-23 -29q-30 -65 -84 -122q-39 -38 -73 -38q-9 0 -14.5 14t-5.5 27q0 28 31 137t33 119q1 5 0 7t-3.5 1t-5.5 -5q-8 -11 -21.5 -28t-17.5 -23q-5 -6 -17.5 -14t-12.5 -9q-15 -27 -32 -46.5t-44.5 -46t-49.5 -51.5q-55 -69 -135 -69q-4 0 -10.5 4.5t-7.5 5.5
q-2 1 -4 2.5t-4 1.5q-7 0 -7 -4q-12 -50 -35 -50zM101 10q19 12 41 14q13 2 40 25.5t32 38.5q1 4 8.5 23.5t12.5 34.5t11.5 35t10 37.5t3.5 30.5q0 15 -7.5 24t-19.5 9q-20 0 -62.5 -75t-81.5 -188q-2 -8 1.5 -10.5t10.5 1.5z" />
    <glyph glyph-name="b_y" unicode="by" horiz-adv-x="689" 
d="M260 -368q-37 0 -67.5 11t-45 24t-25 24.5t-13.5 11.5q-4 0 -6 5.5t-11 5.5q-10 0 -10 7q0 6 8.5 12.5t20.5 6.5q1 0 8 -6.5t19 -16t27.5 -19t39.5 -16t49 -6.5q71 0 165.5 100t148.5 241q4 11 15 58.5t19 71.5q5 15 17 62.5t12 56.5q0 18 -5 18q-6 0 -17 -11
q-17 -10 -47 -69q-1 -2 -21 -23.5t-47.5 -54t-43.5 -60.5q-11 -18 -19 -28.5t-26.5 -23.5t-39.5 -13q-25 0 -25 43q0 5 6 18t7 21q8 31 38.5 99t30.5 81q0 5 -3 7t-7 -1q-108 -121 -183 -221q-34 -46 -74.5 -74.5t-66.5 -28.5q-28 0 -33 26q-2 13 -15 17q-10 3 -13.5 4.5
t-7 7t-3.5 15.5q0 5 3.5 21t9.5 41t9 37q8 37 32.5 169.5t27.5 147.5q4 19 14.5 29.5t23.5 10.5q19 0 30 -12t11 -25q0 -5 -4 -14t-7 -10q-9 -3 -9 -9q0 -2 -4 -6l-3 -3q-1 -3 -5.5 -10.5t-5.5 -12.5q-1 -2 -8.5 -21t-18.5 -55q-8 -22 -12 -37q-1 -1 -3 -17.5t-4.5 -34.5
t-2.5 -20q0 -6 -1.5 -13t-1.5 -8.5t1 -3.5q2 -2 6 0t10.5 9t12.5 19q2 4 16 18q25 29 44 48q27 29 43.5 40.5t37.5 11.5q28 0 40 -19t12 -40q0 -29 -24 -72q-10 -14 -5.5 -17.5t15.5 9.5q74 87 91 118q3 5 11 31q14 38 49 38q5 0 8.5 -1.5t5.5 -3t5.5 -5.5t4.5 -5t5.5 -5
t6.5 -8t2 -10q0 -16 -40.5 -114t-45.5 -128q-1 -12 4 -12t11 6q64 57 212 280q7 10 26 10q12 0 20.5 -11.5t8.5 -30.5q0 -45 -27 -130q-37 -116 -82 -212t-87 -157.5t-85 -104.5t-78 -61t-62 -18zM110 -6q32 0 93 92.5t61 137.5q0 30 -15 30q-45 0 -111.5 -88t-66.5 -121
q0 -37 10 -37q4 0 10.5 -7t18.5 -7z" />
    <glyph glyph-name="ca" unicode="ca" horiz-adv-x="649" 
d="M297 -78q-42 0 -42 50q0 15 14 46q8 12 -1 13q-6 0 -13 -5q-13 -9 -45 -26t-38 -22q-11 -10 -53 -26t-66 -16q-54 0 -54 79q0 67 37 143t99.5 129.5t125.5 53.5q8 0 24.5 -6.5t23.5 -12.5q20 -14 20 -21q0 -25 -23 -25q-6 0 -23 4.5t-25 4.5q-26 0 -61.5 -23t-68 -59.5
t-55 -88t-22.5 -100.5q0 -9 8 -18.5t20 -9.5q31 0 112.5 40.5t136.5 102.5q187 213 217 213q24 0 32 -23q3 -8 19 -8q11 0 19.5 -8t8.5 -21q0 -7 -19 -32t-19 -46q0 -34 -2.5 -83t-2.5 -57q0 -19 10 -19q15 0 71 83l2 4l4 6t6 5.5t9 2.5t9 -6t4 -8q0 -7 -2.5 -11t-6.5 -6.5
t-11.5 -8.5t-13.5 -15q-6 -7 -21 -27.5t-24 -32.5t-21.5 -26.5t-21.5 -21.5t-15 -7q-24 0 -24 97q0 11 4 51t4 48q0 9 -6 9t-8 -7q-20 -24 -24 -32q-60 -111 -113.5 -165.5t-94.5 -54.5zM319 -15q5 0 11 2q38 21 107.5 112.5t107.5 158.5q5 9 5 19q0 12 -10 12
q-8 0 -63 -61.5t-108 -134.5t-53 -98q0 -7 3 -10z" />
    <glyph glyph-name="cb" unicode="cb" horiz-adv-x="624" 
d="M46 -40q-24 0 -38.5 19t-14.5 59q0 55 44 132.5t112.5 137.5t128.5 60q22 0 39.5 -11t17.5 -25q0 -25 -22 -25q-5 0 -13.5 3.5t-18.5 3.5q-22 0 -56 -22q-2 -2 -10.5 -2.5t-10.5 -2.5q-63 -49 -111.5 -115.5t-48.5 -134.5q0 -23 15 -23q87 0 173 86l10 10q10 9 19.5 18.5
t24 25t28.5 33t29.5 37.5t30 43.5t26.5 47.5q3 6 10.5 30t9.5 28q11 23 34 74q3 6 7 15.5t6 13t6 7t9 3.5q35 0 35 -30q0 -5 -3.5 -14t-6.5 -10q-7 -3 -8 -8q-1 -8 -19 -44.5t-31 -77.5q-1 -5 -6 -12t-6 -12q-1 -7 -10.5 -44.5t-9.5 -39.5q-1 -6 -2.5 -12.5t-2 -8t0.5 -3.5
q9 -7 28 27q2 3 8.5 9.5l7.5 7.5q8 10 29 36.5t37.5 47t23.5 27.5q32 30 54 30q25 0 38.5 -21t13.5 -47q0 -36 -5 -56q-3 -13 -10 -26t-18.5 -30.5t-18.5 -29.5q-3 -6 -14.5 -39.5t-14.5 -39.5q-68 -111 -167 -111q-24 0 -29 36q-6 7 -13 11q-22 12 -22 29q0 14 7 28.5
t10 31.5q13 81 24 122q3 14 -3 13q-4 -1 -7 -6q-69 -104 -155 -181.5t-171 -78.5zM435 10q33 0 73.5 38.5t70.5 102t30 125.5q0 28 -16 28q-29 0 -108.5 -98.5t-79.5 -122.5q0 -16 -1 -35l-1 -19q0 -7 6 -7q2 0 7.5 -6t18.5 -6z" />
    <glyph glyph-name="cc" unicode="cc" horiz-adv-x="551" 
d="M53 -53q-57 0 -57 90q0 39 24.5 90t63.5 96.5t96.5 77t115.5 31.5q40 0 40 -21q0 -11 -4.5 -14.5t-16.5 -3.5q-6 0 -20.5 -7t-20.5 -7q-69 -6 -147.5 -83.5t-78.5 -158.5q0 -37 18 -37q94 0 173 79q33 33 157 145q108 95 173 96q14 0 27.5 -6.5t13.5 -14.5q0 -22 -20 -22
q-5 0 -12.5 -3t-15.5 -3q-50 0 -110 -55.5t-70 -134.5v-10.5v-14v-10.5q0 -54 33 -54q17 0 49.5 19t43.5 30q8 8 14 16q5 6 13.5 3.5t8.5 -12.5q0 -4 -4 -8q-1 -1 -14 -10.5t-23.5 -18.5t-11.5 -14q-1 -2 -7.5 -8t-7.5 -8q-5 -11 -26.5 -20.5t-44.5 -9.5q-33 0 -51.5 23
t-18.5 68q0 20 4 38.5t7.5 27.5t10 20t6.5 12q3 7 0.5 10t-9.5 -2q-29 -19 -104 -83.5t-91 -76.5q-18 -14 -50 -27.5t-56 -13.5z" />
    <glyph glyph-name="cd" unicode="cd" horiz-adv-x="625" 
d="M70 -55q-31 0 -47 20t-16 69q0 95 70 185l15 15l17.5 17.5t17 16.5t19.5 17.5t19 14.5t21.5 14t20 9.5t22 7.5t20.5 2q30 0 50 -22q17 -21 17 -31q0 -24 -22 -24q-4 0 -18.5 14.5t-29.5 14.5q-55 0 -121.5 -79t-66.5 -162q0 -54 39 -54q23 0 47.5 9.5t81 59t131.5 138.5
q82 98 104 116q25 20 48 20t37 -14q4 -4 6 -4q3 0 6 6q11 18 25 62t15 57q0 3 1 8.5t1 6.5q0 11 11.5 16.5t22.5 5.5t20 -8.5t9 -21.5q0 -11 -42 -92q-40 -94 -46 -131q-14 -98 -14 -189q0 -10 10 -10q4 0 9 -13.5t7 -13.5q20 0 20 -9q0 -35 -37 -41q-3 0 -8.5 -3.5
t-8.5 -3.5q-13 0 -22 11t-9 31q0 15 1.5 24.5t4 16t3.5 9.5q1 15 -2 67.5t-3 74.5q0 6 4 18q4 10 1 12q-5 3 -10 -7q-2 -3 -7.5 -12t-6.5 -10.5l-6 -9t-8 -11t-10.5 -13t-16 -19t-21.5 -24.5q-13 -13 -54 -81q-48 -64 -109 -64q-6 0 -12 2.5t-11.5 13t-5.5 27.5q0 6 6.5 21
t14 30.5t8.5 17.5q3 6 -1 9q-3 0 -5 -2q-45 -54 -105.5 -91t-100.5 -37zM313 8q112 86 186 208q27 42 27 52q0 17 -15 17q-20 0 -68.5 -51t-92 -117.5t-49.5 -104.5q-1 -5 3 -6.5t9 2.5z" />
    <glyph glyph-name="ce" unicode="ce" horiz-adv-x="527" 
d="M345 -60q-29 0 -45.5 16.5t-16.5 41.5q0 23 12 67q1 5 -2 7t-5 -1q-45 -47 -95 -69.5t-91 -22.5q-48 0 -74.5 35.5t-26.5 82.5q0 116 80.5 194t174.5 78q5 0 30.5 -11t31.5 -11q30 0 30 -17q0 -11 -5 -15t-19 -4q-5 0 -36.5 7t-42.5 6q-76 -6 -133 -66t-57 -152
q0 -28 15 -50t44 -22q61 0 123.5 36t91.5 95q37 77 92 131t101 54q12 0 21.5 -11.5t9.5 -25.5q0 -36 -42.5 -82t-128.5 -92q-26 -23 -36 -45q-15 -37 -15 -78q0 -33 28 -33t60.5 17t34.5 17q4 0 11.5 5t12.5 5q20 0 20 -15q0 -4 -6 -9t-15 -7t-51 -29t-81 -27zM401 197
q3 -3 13 4q38 27 63 51t25 33q0 8 -6 8q-11 0 -37.5 -24.5t-52.5 -58.5q-9 -9 -5 -13z" />
    <glyph glyph-name="cf" unicode="cf" horiz-adv-x="487" 
d="M356 -318q-3 0 -8 3t-5 6q0 5 12 43.5t12 81.5q0 55 13.5 194t26.5 219q1 5 -1 6.5t-6 0.5q-13 -1 -26 -6t-21 -9.5t-16 -9.5t-9 -6q-22 -13 -25 -16q-27 -32 -60.5 -85.5t-80.5 -93.5q-14 -12 -46.5 -27.5t-56.5 -15.5q-54 0 -54 79q0 91 57 182t140 110q5 1 16.5 -5
t16.5 -6q18 0 26 -0.5t14.5 -5t6.5 -13.5q0 -20 -22 -20q-6 0 -14.5 3t-16.5 3q-65 0 -119 -73.5t-54 -174.5q0 -8 6.5 -15.5t13.5 -7.5q18 0 50 16t47 27q28 21 56 60t37 62q1 2 1 29q0 16 20 25q35 12 54 28q49 43 78 79.5t55 94.5q45 105 89 161.5t80 56.5q14 0 25.5 -14
t11.5 -29q0 -5 -9.5 -10t-26.5 -13t-30 -17q-94 -71 -144 -275q-2 -3 -0.5 -5t5.5 -1q2 1 30.5 8t52.5 12.5t28 5.5q21 0 21 -12q0 -6 -17 -14t-33 -11q-18 -4 -29.5 -6.5t-20.5 -5.5t-14 -4t-9 -3.5t-5.5 -3.5t-5.5 -4.5t-6 -5.5q-12 -8 -14 -15q-17 -78 -31.5 -197.5
t-14.5 -222.5q0 -46 -10 -79t-21 -45.5t-20 -12.5zM399 278q2 0 6 2t6 2q8 2 10 10q1 3 2 7.5t1 6.5q4 15 0 18t-15 -12q-3 -4 -8 -11t-6 -9q-7 -7 -5.5 -11.5t9.5 -2.5z" />
    <glyph glyph-name="cg" unicode="cg" horiz-adv-x="602" 
d="M354 -342q-29 0 -45.5 10.5t-16.5 27.5q0 27 36 27q12 0 25 -4t15 -7q5 -7 10 -7q23 0 49.5 34.5t51 96t41 160.5t16.5 213q0 11 -6 11q-4 0 -7.5 -4t-7.5 -11.5t-9 -12.5t-19.5 -24t-35 -47t-36.5 -46q-49 -60 -94 -60q-10 0 -22 13t-11 26q0 7 -3.5 8.5t-8.5 -0.5
t-9 -6q-25 -27 -95 -68t-117 -41q-25 0 -40.5 19.5t-15.5 59.5q0 59 36.5 130.5t99.5 124t126 52.5q4 0 14 -6t15 -6q10 0 17 -5.5t8.5 -10.5t1.5 -10q0 -13 -5.5 -16t-19.5 -3q-5 0 -21.5 2t-26.5 2q-58 0 -125 -77t-67 -174q0 -8 4 -16t10 -8q51 0 112.5 41.5t95.5 77.5
t103 117q10 11 15 17q50 59 101 59q13 0 24 -12t11 -27q0 -14 26 -24q13 -5 18 -12t5 -26q0 -128 -31 -237q0 -1 -5 -14.5t-10.5 -30.5t-7.5 -28q-40 -248 -169 -248zM337 78q18 0 70 53t70 84q6 10 19 18t13 13t-9 5q-6 0 -14 6.5t-13 6.5q-15 0 -33 -18q-40 -43 -76.5 -93
t-36.5 -61q0 -14 10 -14z" />
    <glyph glyph-name="ch" unicode="ch" horiz-adv-x="616" 
d="M562 -48q-5 0 -10.5 2.5t-13.5 14t-10 30.5q-1 8 -8.5 54.5t-12.5 81.5t-5 51q0 29 -15 29q-8 0 -13 -10q-36 -43 -67 -136q-1 -3 -2.5 -6l-2.5 -5t-2 -4.5t-1 -4.5q0 -7 -7.5 -25t-11.5 -34q-3 -18 -27 -18q-6 0 -16.5 12t-10.5 21t11.5 56.5t26 125.5t21.5 155
q1 13 -4 13q-4 -1 -6 -7q-4 -11 -22.5 -49.5t-24.5 -55.5q-2 -5 -17.5 -39.5t-16.5 -39.5q-90 -219 -203 -219q-34 0 -60.5 24.5t-26.5 74.5q0 206 163 229q1 0 11 2.5t20 2.5q17 0 31 -14q10 -14 10 -30q0 -7 -6 -12.5t-16 -5.5q-6 0 -18.5 4.5t-21.5 4.5q-55 0 -88 -40
t-33 -123q0 -29 10.5 -46.5t25.5 -17.5q44 0 78 30.5t83.5 127.5t127.5 295q5 14 11.5 20.5t21.5 6.5q12 0 25 -10.5t13 -19.5t-2.5 -14t-2.5 -6t-2 -3.5t-2 -5.5q0 -2 0.5 -6.5t0.5 -6.5q-1 -6 -45 -263q-1 -5 -0.5 -8t3 -1.5t5.5 7.5q3 5 12 25.5t11 24.5q1 3 8 9t8 8
q26 43 40.5 60.5t30.5 17.5q11 0 18.5 -10t7.5 -27q0 -96 31 -206q0 -1 4 -12.5t7.5 -23t3.5 -15.5q0 -40 -27 -40z" />
    <glyph glyph-name="ci" unicode="ci" horiz-adv-x="423" 
d="M460 417q-5 0 -8 3t-6.5 10l-4.5 9q-2 3 -9 8t-7 11q0 34 41 34q11 0 22 -8t11 -26q0 -16 -12 -28.5t-27 -12.5zM365 -84q-23 0 -37 27t-14 53q0 17 24.5 118.5t24.5 110.5q0 11 -12 5q-19 -12 -59 -54.5t-77 -84t-81.5 -75.5t-75.5 -34q-54 0 -54 77q0 53 31 120
t85.5 118t111.5 51q63 0 63 -20q0 -9 -0.5 -12.5t-4 -5.5t-11.5 -2q-6 0 -22.5 -7t-23.5 -7q-58 0 -116 -66.5t-58 -163.5q0 -8 4.5 -16t10.5 -8q35 0 74.5 27t67 58.5t63 75.5t51.5 61q36 38 53 38q3 0 13.5 -5.5t12.5 -6.5q25 -10 25 -29q0 -7 -5.5 -17.5t-6.5 -17.5
q-4 -21 -15.5 -65t-18 -78t-6.5 -58q0 -9 2 -40t2 -32q0 -2 -1 -4t-1 -4q0 -1 1.5 -2.5t1.5 -3.5q0 -21 -22 -21z" />
    <glyph glyph-name="cj" unicode="cj" horiz-adv-x="472" 
d="M451 422q-10 0 -22 8t-12 21q0 11 12 21.5t30 10.5q4 0 6.5 -2.5t4.5 -8t3 -7.5q2 -3 7.5 -7.5t5.5 -9.5q0 -9 -12 -17.5t-23 -8.5zM126 -337q-26 0 -39.5 10t-13.5 22q0 4 5 4l4 -1h5q8 0 8 6q0 3 12 12.5t19 9.5q55 0 111 29t82 72q72 121 72 399q0 9 -2.5 9.5
t-6.5 -5.5q-16 -17 -58.5 -74t-79.5 -103.5t-84 -86t-81 -39.5q-45 0 -61 24t-16 97q0 105 80 196t179 91q22 0 36.5 -9t14.5 -23q0 -25 -23 -25q-5 0 -13 3t-18 3q-41 0 -63 -14q-2 -2 -26.5 -10.5t-26.5 -10.5q-96 -65 -96 -197q0 -43 8 -59t26 -16q28 0 87 48.5
t118.5 123.5t81.5 138q6 17 29 17q4 0 7.5 -2t7.5 -5t7 -4q22 -15 22 -29q0 -75 -6 -163q0 -6 -11 -36t-11 -36q-8 -84 -21 -126.5t-41 -91.5q-39 -64 -109 -106t-115 -42z" />
    <glyph glyph-name="ck" unicode="ck" horiz-adv-x="611" 
d="M361 -161q-6 0 -10 19.5t-7 21.5q-7 4 -7 18q0 38 14.5 106t20.5 126q0 11 -9 17q-16 7 -16 21q0 9 14 25q19 19 19 28q9 126 9 171q0 12 -1.5 16.5t-4.5 0.5t-7 -17q-6 -19 -21.5 -72.5t-27.5 -93t-34.5 -92.5t-47 -87t-61.5 -58.5t-79 -24.5t-70 27.5t-28 73.5
q0 26 4 49t13.5 46.5t16.5 38t22 41.5t21 38q20 38 60.5 56t82.5 18q6 0 21 -0.5t19 -0.5q25 0 25 -18q0 -23 -33 -23q-31 0 -73 -21q-42 -22 -84.5 -77t-42.5 -139q0 -27 15.5 -44t41.5 -17q34 0 63 14.5t50.5 35.5t41.5 59.5t33 73t27.5 89.5t23 94t21.5 102q5 25 5 70
q0 10 7 19.5t16 9.5q2 0 26 -9q18 -7 18 -20q0 -10 -4 -27.5t-4 -36.5q0 -26 -8 -112t-10 -121q-1 -9 3 -10.5t12 5.5q26 17 55 38t44.5 32t20.5 13q2 1 17.5 10t24.5 9q7 0 10.5 -0.5t9 -2t8 -7t2.5 -14.5q0 -15 -8 -25.5t-25 -10.5q-5 0 -15.5 -4t-21.5 -4q-9 0 -59 -32.5
t-66 -48.5q-10 -9 -10 -24q0 -4 5 -10t14 -14t14 -14q20 -22 82.5 -67t85.5 -56q6 -3 9.5 -10t7.5 -8q8 -5 8 -16q0 -10 -17 -10q-1 0 -4 -1t-5 -1q-3 0 -11 4q-33 15 -108 75.5t-83 65.5q-11 7 -13 -7q-3 -35 -9.5 -85.5t-10.5 -84t-4 -38.5q0 -61 -24 -61z" />
    <glyph glyph-name="cl" unicode="cl" horiz-adv-x="376" 
d="M305 -52q-25 0 -25 60q0 72 17 158q2 8 -1.5 10t-7.5 -7q-39 -76 -74 -122q-68 -90 -130 -90q-78 0 -78 95q0 88 69 174.5t154 86.5q26 0 26 -17q0 -19 -23 -19q-5 0 -14.5 -8t-17.5 -10q-60 -12 -106 -66t-46 -141q0 -52 32 -52q33 0 55 14q29 18 33 22q52 43 97 123.5
t65 156.5q5 20 10 41.5t8 34t6 19.5t6.5 15t5 11t2.5 6t4.5 3t5.5 0.5t10 0.5q10 0 18 -6.5t8 -11.5t1 -9.5t1 -6.5t-1 -5.5t-4 -9.5q-1 -3 -6 -13t-8 -17t-8 -19.5t-9.5 -29t-9.5 -36.5q-2 -7 -10 -26l-8 -19q-19 -47 -24.5 -85t-5.5 -116q0 -23 3 -35.5t3 -13.5
q0 -40 -23 -40z" />
    <glyph glyph-name="cm" unicode="cm" horiz-adv-x="794" 
d="M78 -49q-31 0 -52.5 22t-21.5 74q0 51 22.5 110t64.5 105q37 39 64.5 51.5t60.5 12.5q11 0 23 -11t12 -21q0 -17 -31 -17q-33 0 -60 -15q-15 -8 -31.5 -22.5t-37 -40t-33.5 -65t-13 -84.5q0 -24 16 -38.5t33 -14.5q27 0 53.5 20.5t60.5 66.5q2 2 8 7.5t10 11.5
q41 73 109 173q29 43 48 43q10 0 18.5 -17t8.5 -28q0 -2 -10 -32q-35 -97 -44 -159q0 -17 1 -17q6 0 11 8q3 3 15.5 5.5t14.5 6.5q12 36 25 47q5 5 28 30.5t26 28.5q6 7 25.5 35.5t35 41t35.5 12.5q13 0 13 -33q0 -14 -8 -71t-8 -61q0 -2 1 -4t4 -2t7 5q8 8 15 17q3 3 7 2
t6 0q2 2 7 7.5t6 7.5t4.5 8.5t8 14t10.5 12.5q5 4 18 14.5t21 16.5t19 11.5t19 5.5q6 0 11 -10.5t5 -24.5q0 -5 7.5 -59t7.5 -79q0 -16 -8.5 -41.5t-19.5 -25.5q-5 0 -8.5 1t-5.5 3.5t-3 4.5t-1.5 7t-0.5 8v10v11q0 22 -7.5 64.5t-8.5 48.5q-1 9 -11 9q-11 0 -30 -19.5
t-62 -73.5q-43 -53 -71 -53q-15 0 -15 36q0 15 13 66.5t14 66.5q0 7 -4 7q-3 0 -5 -3q-22 -25 -53 -65q-4 -5 -23.5 -19.5t-22.5 -19.5q-7 -10 -14 -26t-11 -22q-23 -30 -32.5 -41.5t-23 -21.5t-25.5 -10q-19 0 -19 26q0 9 3.5 22t9.5 27.5t7 18.5q33 152 33 153q0 11 -8 3
q-11 -8 -18.5 -17.5t-17 -26.5t-16.5 -28q-9 -13 -63 -74.5t-66 -78.5q-6 -10 -21 -14q-7 -2 -27.5 -11.5t-33.5 -9.5z" />
    <glyph glyph-name="cn" unicode="cn" horiz-adv-x="610" 
d="M69 -30q-22 0 -43.5 24.5t-21.5 63.5q0 54 32 117t77.5 105t81.5 42q13 0 19.5 -0.5t14.5 -2t11 -5.5t3 -10q0 -18 -22 -18q-5 0 -11 -6.5t-14 -6.5q-17 0 -50 -26.5t-63.5 -79.5t-30.5 -110q0 -38 28 -38q40 0 100 52t76 88q3 4 10 23.5t9 23.5q12 26 24 49t18 33.5
t7 14.5q1 2 2.5 6t2.5 6l2.5 5l2.5 5t2.5 4t3.5 3t4.5 1.5t5.5 0.5q14 0 25.5 -6t11.5 -15t-10 -42q-1 -5 -11 -39.5t-18 -72t-8 -66.5q0 -11 1 -11q2 0 8 8q18 40 25 51q8 12 29 49.5t40 63.5t40 42q33 25 51 25q15 0 19 -25q15 -94 15 -187q0 -31 19 -60q5 -8 5 -19
t-8.5 -20.5t-23.5 -9.5q-16 0 -27 18.5t-11 45.5q-15 172 -18 185q-2 10 -4 10q-1 0 -9 -6q-18 -6 -50 -68q-3 -6 -27 -56t-40.5 -80t-30.5 -48q-27 -32 -54 -32q-16 0 -16 21q0 26 21 121.5t21 99.5q0 6 -3.5 6t-7.5 -6l-13 -20q-13 -20 -30 -46t-42 -57t-49 -57
t-51.5 -43.5t-49.5 -17.5z" />
    <glyph glyph-name="co" unicode="co" horiz-adv-x="512" 
d="M347 -54q-21 0 -34.5 23.5t-13.5 62.5q0 53 20 131t20 84q0 5 -4 7.5t-8 0.5q-16 -13 -75 -104.5t-77 -108.5q-49 -48 -97 -48q-33 0 -49.5 20t-16.5 77q0 91 61 185.5t134 94.5q64 0 70 -28q0 -2 3.5 -11.5t3.5 -14.5q0 -22 -33 -22q-4 0 -23 14t-30 14q-32 0 -66 -42
t-57 -107q-1 -3 -12.5 -19.5t-12.5 -19.5q-2 -9 0.5 -24t2.5 -20q0 -24 9.5 -38.5t25.5 -14.5q34 0 70 37q158 158 190 259q11 32 36 32q11 0 17.5 -8.5t6.5 -19.5v-9.5t0.5 -5t1.5 -1.5h2h3q2 0 12 3t23 3q64 0 64 -95q0 -68 -30.5 -137.5t-69.5 -109.5t-67 -40zM354 0
q34 0 72.5 75.5t38.5 148.5q0 51 -17 51q-6 0 -17.5 -8t-18.5 -8q-4 0 -9 1.5t-7 1.5q-9 0 -14 -15q-44 -130 -44 -213q0 -34 16 -34z" />
    <glyph glyph-name="cp" unicode="cp" horiz-adv-x="636" 
d="M380 -281q-15 0 -15 32q0 -9 14 119t26 270.5t8 177.5q-2 16 -8 1q-37 -89 -74.5 -140.5t-110.5 -125.5q-3 -4 -17 -21t-19 -23t-18 -19.5t-22 -19.5t-22.5 -13.5t-28.5 -10.5t-31 -3q-26 0 -48 27t-22 77q0 41 32.5 111.5t90.5 130.5t116 60q54 0 54 -36q0 -13 -7 -24
t-18 -11q-5 0 -13 3t-18 3q-58 0 -124.5 -73.5t-66.5 -169.5q0 -16 12.5 -30t24.5 -14q66 0 133 67q56 58 100.5 132.5t93.5 202.5q9 27 22 27h5.5h10h10.5q8 -1 13.5 -8.5t5.5 -16.5q0 -5 -2 -22t-2 -26q-1 -45 -18.5 -169t-18.5 -164q0 -16 5 -16q2 0 5 14q4 14 16 72
q4 15 16 47.5t13 37.5q26 90 56.5 136t76.5 46q14 0 28 -19.5t14 -45.5q0 -41 -19 -96t-53 -98t-70 -43q-7 0 -17 2l-4 2t-3.5 1.5t-2.5 0.5q-4 0 -5 -4q-5 -19 -26.5 -89t-27.5 -102q-9 -42 -9 -105q0 -20 -13.5 -31t-27.5 -11zM530 109q27 0 55.5 61.5t28.5 105.5
q0 34 -17 34q-13 0 -28 -21q-11 -11 -21 -31.5t-15 -35.5t-14 -46.5t-12 -39.5q-2 -4 -2 -10.5t4 -6.5t8.5 -5t12.5 -5z" />
    <glyph glyph-name="cq" unicode="cq" horiz-adv-x="544" 
d="M453 -345q-25 0 -25 38q0 6 1.5 19t1.5 15q0 7 3 24.5t3 22.5q4 67 13.5 165t16.5 169t7 87q0 10 -1 10l-9 -9q-18 -18 -28 -33q-1 -2 -30 -65q-2 -4 -9 -28t-11 -29q-23 -30 -38 -43.5t-20 -14.5t-19 -1q-54 0 -54 68q0 8 -4.5 8.5t-6.5 -3.5q-13 -18 -53 -48t-42 -34
q-8 -11 -20 -14q-8 -2 -26 -9.5t-31 -7.5q-31 0 -54.5 24.5t-23.5 67.5q0 48 26 105t70 105q40 45 93.5 78.5t89.5 33.5q5 0 14 -3.5t13 -3.5q24 0 24 -24q0 -17 -32 -17q-24 0 -61 -15q-25 -10 -55 -32t-60.5 -54t-50.5 -76t-20 -89q0 -48 36 -48q58 0 114 39t79 100
q27 72 62.5 125.5t62.5 53.5q8 0 14 -0.5t11.5 -2.5t9 -3t7 -5t5 -5.5t4.5 -8t4 -7.5t4 -9.5t4 -10.5q2 -6 5 -6t6 4q9 8 29 8q27 0 27 -25q0 -5 -12 -73t-25 -189.5t-15 -252.5q0 -6 3 -16t3 -14q0 -23 -5.5 -32t-24.5 -9zM314 32q9 0 46 52q16 24 32 57q2 3 12 15.5
t12 16.5q4 6 10.5 22t12.5 22q3 3 3 5q0 6 -5 7q-11 4 -19.5 19.5t-18.5 15.5q-27 0 -65.5 -80.5t-38.5 -120.5q0 -31 19 -31z" />
    <glyph glyph-name="cr" unicode="cr" horiz-adv-x="541" 
d="M62 -39q-72 0 -72 81q0 85 80.5 182t158.5 97q38 0 38 -28q0 -13 -50 -29q-66 -21 -122.5 -85t-56.5 -123q0 -26 6.5 -38.5t25.5 -12.5q81 0 140 57t114 184q2 4 7 16t8 17q10 26 16 33t17 7q6 0 14.5 -9t11.5 -23v-24q0 -14 -8.5 -58.5t-8.5 -57.5q0 -9 -1.5 -28
t-1.5 -32q0 -12 5 -5q2 2 4 6q5 15 16 51t20 57t21 36q13 16 30 49.5t35 43.5q22 13 47 13q3 0 7.5 -1.5t8.5 -1.5q20 0 20 -18q0 -16 -28 -19q-5 0 -10 -2.5t-8 -4.5t-8.5 -8.5t-9 -10.5t-12 -14.5t-13.5 -17.5q-42 -52 -84 -206q-1 -3 -5.5 -13.5t-4.5 -15.5
q0 -17 -16 -28.5t-34 -11.5q-9 0 -17 7.5t-8 21.5q0 4 4.5 20.5t4.5 27.5q0 7 0.5 35.5t0.5 32.5q0 3 3.5 11.5t3.5 11.5q0 22 3.5 62t3.5 43q0 7 -5 8q-3 1 -5 -3q-75 -198 -198 -254q-5 -2 -13.5 -10t-13.5 -10q-30 -8 -61 -8z" />
    <glyph glyph-name="cs" unicode="cs" horiz-adv-x="504" 
d="M66 -38q-27 0 -42.5 23t-15.5 62q0 57 32 124t85 114.5t105 47.5q43 0 43 -21q0 -25 -43 -25q-50 0 -110.5 -70.5t-60.5 -155.5q0 -11 9 -27.5t26 -16.5q46 0 86 26q60 37 102 72.5t50 48.5q8 11 -1 22q-30 40 -30 77q0 40 23.5 61t57.5 21q30 0 46.5 -19t16.5 -49
q0 -21 -7 -33t-45 -50q-10 -11 0 -18q16 -11 48 -25q17 -8 26.5 -24t9.5 -30q0 -30 -15.5 -56.5t-37.5 -39.5q-54 -33 -116 -33q-18 0 -29.5 8.5t-11.5 21.5q0 12 16 12q4 0 13.5 -2.5t24.5 -2.5q35 0 72 25.5t37 60.5q0 9 -8.5 19.5t-18.5 14.5q-8 3 -14 7.5t-12 10t-9 7.5
q-7 6 -18 -2q-3 -2 -32.5 -29.5t-75 -65t-90.5 -67.5q-38 -24 -86 -24zM372 206q34 23 34 66q0 11 -8 22.5t-25 11.5q-34 0 -34 -46q0 -31 15 -49q9 -12 18 -5z" />
    <glyph glyph-name="ct" unicode="ct" horiz-adv-x="464" 
d="M348 -98q-17 0 -23 7.5t-6 35.5q0 11 18.5 114t18.5 140q0 15 -4 15q-5 0 -14 -9q-135 -150 -159 -173q-53 -51 -99 -55q-8 -1 -16 -1q-62 0 -62 83q0 59 18 108.5t44 79t56.5 50t53 28.5t35.5 8q6 0 15 -8.5t15 -9.5q24 -8 24 -26q0 -12 -7 -19.5t-18 -7.5q-17 0 -22 8
q-9 9 -15 9q-54 0 -102.5 -64t-48.5 -150q0 -11 9.5 -23t27.5 -12q19 0 37 6.5t31.5 14t35.5 28t34 33t42.5 46t46.5 50.5q6 7 -5 7q-3 0 -9 -2l-6 -2q-10 0 -20 8t-10 16t9 17.5t24 13.5q4 1 19.5 5.5t22.5 7.5q20 10 32 43t22.5 73.5t10.5 54.5q0 41 28 41q25 0 25 -25
q0 -23 -29 -122q-5 -16 -6 -23q-2 -8 0.5 -10t12.5 1q61 18 69 18q20 0 20 -16q0 -3 -1.5 -5t-5 -3.5t-7 -2t-10.5 -2t-11 -2.5q-7 -1 -11.5 -3t-9 -5.5t-10.5 -5.5q-2 -1 -7 -2t-8 -3q-2 -1 -5.5 -5.5t-5.5 -5.5q-3 -1 -10 -5t-9 -4q-3 -2 -5.5 -8.5t-4.5 -15t-3 -10.5
q-1 -3 -6 -15t-7 -18t-5 -17t-4.5 -22t-1.5 -24q0 -11 1 -28t1 -25q0 -11 -4.5 -63.5t-4.5 -61.5q0 -4 1.5 -10t1.5 -10q0 -30 -24 -30z" />
    <glyph glyph-name="cu" unicode="cu" horiz-adv-x="664" 
d="M71 -74q-28 0 -52 27t-24 86t20 106.5t51 74.5t64 41.5t64 14.5t31 -19q0 -33 -49 -41q-59 -11 -96.5 -58.5t-37.5 -109.5q0 -69 47 -69q18 0 52 22.5t61 51.5q37 40 63 83.5t47.5 88t37.5 69.5q21 29 37 29q5 0 25 -10q16 -10 16 -22q0 -5 -4 -15t-10 -24.5t-9 -24.5
q-16 -46 -28.5 -106t-12.5 -78q0 -12 6 -12q8 0 20 11q7 7 19 23t25.5 35t19.5 27q47 53 75 116q12 23 17.5 29t13.5 6q10 0 20 -7.5t10 -21.5q0 -34 1.5 -67.5t4 -66t3.5 -42.5q2 -38 12 -46q14 -8 14 -35q0 -14 -13.5 -21t-30.5 -7q-28 0 -28 32q0 116 -9 170q-3 12 -5 12
q-5 0 -10 -7q-4 -6 -30 -49.5t-54 -82t-52 -57.5q-49 -40 -80 -40q-17 0 -17 30q0 28 32 143t34 126q3 8 -0.5 9t-7.5 -5q-5 -9 -17 -32t-17 -31q-4 -6 -32 -40l-27 -34q-64 -110 -103.5 -146t-86.5 -36z" />
    <glyph glyph-name="cv" unicode="cv" horiz-adv-x="557" 
d="M77 -38q-77 0 -77 105q0 97 56.5 172t122.5 75q17 0 28.5 -12t11.5 -24q0 -19 -16 -19q-5 0 -12 2t-14 2q-45 0 -87.5 -57t-42.5 -136q0 -11 1.5 -22.5t11.5 -27t27 -15.5q71 0 125.5 77.5t101.5 211.5q8 24 27 24t28.5 -11t9.5 -22q0 -12 -2 -32t-2 -21q0 -137 5 -172
q3 -15 11 -15q5 0 25 20q34 34 93.5 148.5t64.5 121.5q3 4 8.5 8t7.5 8q5 7 16 7q7 0 7 -15l1 -3q1 -4 1 -6q0 -5 -3 -10q-6 -9 -31.5 -65.5t-60 -116.5t-74.5 -105q-59 -67 -86 -67q-5 0 -9.5 8.5t-8 22t-6.5 25.5t-5 24t-2 13q-2 21 -2 163q0 7 -2.5 8t-6.5 -5
q-62 -127 -120 -197t-121 -70z" />
    <glyph glyph-name="cw" unicode="cw" horiz-adv-x="728" 
d="M60 -37q-66 0 -66 79q0 81 61 178.5t142 122.5q6 1 17.5 8t18.5 7q35 0 35 -27q0 -18 -11 -28t-27 -10q-47 0 -96.5 -42t-73.5 -119q-6 -20 -9 -40q-5 -28 -5 -51q0 -10 6 -20.5t19 -10.5q24 0 50 10q2 1 20 5.5t22 7.5q26 14 46 39t53.5 74.5t62.5 86.5q6 7 13.5 26
t15.5 31t18 12q15 0 22.5 -4.5t8.5 -9t1 -11.5q0 -69 -1.5 -136t-1.5 -73q0 -10 5 -10q3 0 9 8.5t14 22t15.5 26t14.5 26t9 16.5q64 117 96 117q11 0 17 -8t6 -18q0 -11 2.5 -23.5t6.5 -31.5t7 -34q1 -5 0 -25l-1 -19q0 -17 3 -29q2 -9 5 -29q1 -11 6 -11q3 0 11 8
q3 5 19 36q9 20 25.5 87.5t18.5 111.5q1 14 -7 29.5t-8 29.5q0 26 22 26q7 0 19 -16t12 -28q0 -35 -15 -122t-35 -133q-54 -102 -94 -102q-20 0 -27 83q-12 127 -24 143q-3 4 -7 4q-6 0 -16.5 -18.5t-26 -52t-19.5 -42.5q-1 -2 -4.5 -8.5t-8 -16t-7.5 -15.5l-16.5 -30
t-15 -24t-17.5 -20t-16 -6q-28 0 -28 61q0 27 -1 102.5t-1 82.5q0 6 -2.5 7t-7.5 -5q-9 -12 -38.5 -52t-40.5 -54t-36.5 -45t-41 -44t-37.5 -30t-43 -23.5t-42 -6.5z" />
    <glyph glyph-name="cx" unicode="cx" horiz-adv-x="636" 
d="M393 14q-19 0 -23.5 8t-4.5 36q0 7 5 18.5t6 14.5q2 7 5 14t5 11.5t7.5 11.5t8 10l10 12t10.5 12q9 12 31 31q6 5 6 12t-4 10q-38 40 -51 40q-11 0 -15 -11q-1 -3 -8 -9.5t-8 -9.5q-56 -129 -144 -197.5t-164 -68.5q-74 0 -74 85q0 61 35.5 128.5t91 113.5t108.5 46
q35 0 56 -9q18 -8 18 -26q0 -24 -23 -24q-4 0 -22 5.5t-33 5.5q-54 0 -117 -73.5t-63 -156.5q0 -54 38 -54q90 0 149.5 47t117.5 182q11 30 18 53q9 26 35 26q10 0 38 -17q16 -12 56 -55q3 -5 10 -5q4 0 12 5q13 9 38.5 30.5t40.5 30.5t26 9q34 0 34 -23q0 -39 -33 -39
q-4 0 -8 1q-6 1 -15.5 -3.5t-58.5 -32.5q-9 -9 -9 -13q0 -3 6 -11q65 -97 71 -116q4 -11 4 -21q0 -34 -22 -34q-10 0 -14 5.5t-5.5 16.5t-1.5 12l-9 9q-1 1 -4.5 12t-3.5 15q0 2 -4 7t-4 6q-16 41 -40 73q-4 4 -14 4q-6 0 -13 -8q-3 -2 -11.5 -7.5t-15.5 -11t-10 -8.5
q-31 -37 -31 -68q0 -10 3 -19.5t3 -12.5q0 -6 -6.5 -15.5t-15.5 -9.5z" />
    <glyph glyph-name="cy" unicode="cy" horiz-adv-x="634" 
d="M238 -382q-5 0 -16.5 2t-15.5 2q-3 0 -5 5.5t-10 5.5t-8 15q0 14 28 18q15 3 18 3q68 4 156 94t133 206q6 15 12.5 47t10.5 44q38 114 38 134q0 17 -6 17q-4 0 -16 -9q-25 -16 -33 -31q-1 -1 -12 -10.5t-28 -29t-32 -46.5q-12 -19 -19 -28t-25 -22t-38 -13q-25 0 -25 42
q0 7 43 116t43 127q0 4 -2.5 6t-7.5 -1q-33 -36 -72 -92t-69.5 -102t-65 -89.5t-72.5 -68t-77 -24.5q-47 0 -60 18.5t-13 78.5q0 43 15 92.5t42 94.5t70.5 74.5t94.5 29.5q61 0 61 -21q0 -15 -30 -15q-6 0 -22 -5.5t-25 -5.5q-54 0 -104.5 -73t-50.5 -172v-6v-6t0.5 -6t1 -6
t2 -5.5t4 -5t5.5 -3.5t7.5 -3t10.5 -2t13 -1q45 0 84 37t146 173q2 2 7.5 15.5t10.5 17.5q3 3 34 54t39 59q2 2 5 6t4 5.5t3.5 4.5t4 4.5l3.5 3.5t3.5 2.5t3.5 1.5t4 1.5t4 0.5q20 0 34.5 -8t14.5 -22q0 -31 -11 -63.5t-25.5 -60.5t-16.5 -33q0 -2 -4 -6.5t-5 -7.5
q-7 -19 -27 -81q-4 -12 4 -12q7 0 11 7q4 8 18.5 27t37.5 48.5t37 48.5q15 20 38 40.5t24 21.5q9 9 25 9q12 0 20 -11t8 -30q0 -46 -26 -127q-2 -7 -9.5 -22.5t-9.5 -21.5q-39 -125 -88 -218.5t-96.5 -141.5t-87 -70t-71.5 -22z" />
    <glyph glyph-name="cz" unicode="cz" horiz-adv-x="480" 
d="M225 -63q-9 0 -16.5 7t-7.5 15q0 7 -8 15q-6 5 -6 14q0 20 34 30q24 10 34 23q26 34 94.5 103t75.5 78q4 6 4 9q0 5 -12 5q-10 0 -32.5 -10t-51 -24t-43.5 -20q-8 -2 -20.5 -9t-17.5 -9q-5 -1 -8.5 -2.5l-7 -3t-5.5 -2.5t-5 -3.5t-4 -3.5t-4.5 -5t-4.5 -5.5l-5 -7.5
t-6 -8q-14 -19 -27.5 -32.5t-20 -19t-12.5 -14.5t-11 -24q-1 -3 -14.5 -17t-13.5 -15q-5 -9 -23 -18t-38 -9t-33 15.5t-13 46.5q0 46 28.5 109t77.5 112t97 49q18 0 31 -7t13 -19q0 -18 -17 -18q-74 0 -132 -60t-58 -166q0 -6 5.5 -11.5t10.5 -5.5q24 0 44 16q1 1 13.5 8
t18.5 14q67 67 71 97q1 3 2.5 10t2 10t2.5 8.5t4.5 8.5t7.5 6.5t11 5.5q36 17 39 18q36 16 95 35t87 19q13 0 22.5 -10t9.5 -24q0 -18 -42 -67q-30 -26 -32 -28q-9 -9 -30.5 -28.5t-35 -34t-21.5 -28.5q-7 -7 -7 -10q0 -4 17 -2q33 3 125 3q15 0 25 -3t12 -3q8 0 8 -8
t-6 -10q-1 -1 -7 -1t-7 -2q-5 -6 -30 -12t-43 -5q-77 2 -134 -18q-11 -2 -13 -15q-11 -32 -36 -32z" />
    <glyph glyph-name="da" unicode="da" horiz-adv-x="633" 
d="M585 -47h-7.5t-6 0.5t-4.5 1t-3.5 1t-2.5 2.5t-2 2.5t-2 3.5t-1 4.5t-1 5.5t-2 6q-10 47 -10 207q0 11 -6 11q-4 0 -10 -6q-3 -5 -18 -18.5t-18 -17.5q-5 -9 -15.5 -32t-16.5 -34q-11 -20 -19 -33q-43 -65 -89 -65q-39 0 -39 53q0 16 14 50q5 13 2 14q-4 2 -11 -5
q-8 -10 -19.5 -27t-20 -30t-18 -25.5t-17.5 -19t-14 -6.5q-22 0 -22 54q0 11 3 60t3 58q0 8 -5 8q-6 0 -9 -6q-1 -1 -8.5 -8t-9.5 -12q-19 -38 -33.5 -63.5t-34.5 -55.5t-39.5 -45.5t-37.5 -15.5q-42 0 -42 49q0 36 32 107t76 130t73 59q10 0 24.5 -9t17.5 -9q6 0 9 18
q17 123 18 143v28q0 27 31 27q11 0 19.5 -7.5t8.5 -19.5q0 -2 -1.5 -6.5t-3.5 -12t-3 -15.5q-36 -192 -36 -238q0 -34 -5.5 -79t-5.5 -53q0 -18 9 -18q4 0 10.5 6.5t15.5 20l17 25.5t20.5 31t19.5 30q109 158 166 158q17 0 29.5 -14t12.5 -33q0 -9 9 -9q15 0 24 -11t9 -25
q0 -86 5 -145t9 -83t4 -30q-1 -11 -2.5 -17t-6 -10.5t-13.5 -4.5zM362 43q5 -3 11 2q12 7 28 26t28 36t34.5 49.5t33.5 48.5q3 4 8.5 16t8.5 16t1.5 7t-5.5 3q-10 0 -10 11q0 20 -16 20q-14 0 -45 -33.5t-58.5 -87t-27.5 -98.5q0 -12 9 -16zM45 28q9 0 11 2q23 23 71.5 85.5
t75.5 108.5q4 9 4 19q0 6 -10.5 13.5t-23.5 7.5q-16 0 -73.5 -91t-57.5 -135q0 -7 3 -10z" />
    <glyph glyph-name="db" unicode="db" horiz-adv-x="651" 
d="M442 -48q-11 0 -17.5 6t-17.5 24q-7 9 -13 12q-21 10 -21 28q0 14 6.5 28t9.5 30q7 42 31 159q2 11 -1.5 12.5t-6.5 -5.5q-11 -25 -29 -69t-31.5 -79t-14.5 -37q0 -1 -4.5 -10t-6 -12.5t-6 -12t-7.5 -12.5t-8 -9t-10 -7t-10 -2q-20 0 -30 45q-6 36 -6 159q0 11 -5 11
t-11 -6q-7 -14 -33 -56q-6 -10 -31 -35.5t-31 -35.5q-3 -5 -8 -13.5t-9 -15.5t-8 -12q-43 -65 -89 -65q-39 0 -39 53q0 16 14 50q1 3 11 21.5t22 41.5t17 33q4 8 9 29.5t14 34.5q70 97 106 97q17 0 37.5 -21.5t20.5 -39.5q0 -6 5 -6q4 -1 5 5q1 3 1 6q0 21 6 94.5t6 78.5
q0 25 20 25q16 0 23 -24q7 -16 7 -28q0 -2 -4.5 -17.5t-5.5 -20.5q-10 -64 -10 -257q0 -25 9 -70q1 -7 5.5 -8t6.5 6q59 145 111 251q3 6 7.5 32.5t6.5 31.5q4 8 11 21.5t10 19.5t6 14.5t5 12.5t5.5 7t8.5 3q18 0 27 -11t9 -23q0 -5 -4 -13.5t-7 -9.5q-7 -3 -7 -9
q0 -3 -4.5 -26.5t-6.5 -25.5l-5.5 -11t-4.5 -10q-2 -5 -6.5 -14.5t-6.5 -15.5t-6.5 -23t-10.5 -42q-1 -6 -1.5 -18t-0.5 -14l-3 -24q2 -1 6 0t9.5 8t11.5 18q2 2 5.5 6t6.5 7t4 5q11 13 39.5 49t35.5 44q27 29 53 29q25 0 38 -20t13 -46q0 -6 -5 -19t-6 -16
q-2 -10 -2.5 -23.5t-3 -24.5t-10.5 -26q-3 -6 -13 -32.5t-13 -32.5q-36 -59 -81 -95.5t-89 -36.5zM40 32q4 -4 10 2q41 25 136 159l9 18q9 18 13 23q3 4 1.5 7t-6.5 3q-10 0 -10 11q0 9 -8.5 16.5t-16.5 7.5q-14 0 -43 -37t-56 -95t-32 -106q-1 -5 3 -9zM464 1q31 0 69 40.5
t63.5 99t25.5 106.5q0 28 -16 28q-28 0 -99 -89t-71 -114q0 -11 -0.5 -23t-1 -20t-0.5 -9q0 -7 5 -7q2 0 7.5 -6t17.5 -6z" />
    <glyph glyph-name="dc" unicode="dc" horiz-adv-x="609" 
d="M288 49q1 -6 5 -5t7 7q24 42 75 100t99 102q25 23 67.5 44.5t78.5 21.5q13 0 26.5 -6.5t13.5 -14.5q0 -22 -19 -22q-5 0 -12.5 -2.5t-15.5 -2.5q-53 0 -115 -61t-62 -140q0 -31 10 -47.5t25 -16.5q20 0 33 7.5t24 20.5l10 14q1 2 6 8t7 8q5 6 13.5 3.5t8.5 -11.5
q0 -5 -4 -9q-6 -5 -10 -20q-1 -2 -7 -8.5t-7 -7.5q-9 -15 -37 -32.5t-49 -17.5q-40 0 -54 21.5t-14 67.5q0 42 13 74q6 13 0 14q-4 1 -9 -7q-7 -10 -23.5 -30.5t-29 -38.5t-20.5 -34q-20 -39 -42 -39h-1q-5 0 -9 1t-10 6t-9.5 18.5t-3.5 34.5q0 32 5 71t10 66t5 29
q0 12 -6 12q-4 0 -10 -8q-2 -4 -28 -32.5t-29 -33.5q-6 -11 -23 -34t-23 -32q-3 -5 -11 -25.5t-12 -25.5q-20 -31 -52.5 -50t-58.5 -19q-27 0 -27 50q0 13 7.5 43.5t31 86t58.5 106.5q29 43 59.5 69.5t54.5 26.5q20 0 42.5 -20t22.5 -38q0 -13 7 -13q6 0 7 14q5 35 19.5 88
t14.5 63q0 5 -0.5 16.5t-0.5 15.5q0 11 21 11q3 0 11 -4l10 -5q1 -1 4.5 -2.5t4.5 -2.5t2.5 -3.5t1.5 -4.5q0 -13 -12 -41q-12 -29 -30.5 -102t-27.5 -146l-6 -48q-5 -50 -1 -78zM33 15q4 -2 10 2q21 11 71 81q3 3 16 15t19 21q30 47 62 88q3 4 8.5 15.5t8.5 15.5q6 8 -2 13
q-9 5 -13 11q-10 25 -27 25q-30 0 -91 -115.5t-66 -162.5q0 -6 4 -9z" />
    <glyph glyph-name="dd" unicode="dd" horiz-adv-x="645" 
d="M309 -28q-8 0 -16 12.5t-8 36.5q0 14 6 30q3 7 -2 9q-2 1 -4 -1q-15 -18 -38 -32.5t-32 -14.5t-12.5 4t-6.5 16q-5 25 -5 133q0 8 -6 8q-2 0 -9 -7q-25 -42 -37 -67q-2 -5 -6 -12q-10 -19 -18 -29q-8 -8 -15 -16q-2 -2 -12 -12.5t-12 -12.5q-5 -5 -15.5 -16t-16 -16
t-14.5 -10t-17 -5q-13 0 -23 10t-10 32q0 53 29.5 127t70.5 128t71 54q14 0 30.5 -13t16.5 -27q0 -4 2 -6q4 -1 5 5q8 82 29 142q1 4 2.5 11.5t1.5 8.5q5 10 19 17.5t25 7.5q10 0 15 -6.5t5 -14.5q0 -7 -3.5 -17t-7.5 -11q-7 -2 -17 -23q-3 -7 -11 -36.5t-16 -81t-8 -95.5
v-32v-26v-18.5t1 -15.5t2.5 -10.5t3.5 -9.5q6 -10 19 0q5 4 8 7l6.5 6.5t10 11.5t14 17t24 28.5t34.5 41.5q121 145 153 145q26 0 44 -16q3 -3 6 -3t6 5q12 20 17 89q0 3 1 8.5t1 6.5q0 11 11 16.5t22 5.5q10 0 19 -8.5t9 -20.5q0 -7 -4 -15t-12.5 -21.5t-13.5 -24.5
q-7 -15 -29 -120q-5 -27 -5 -148q0 -11 9 -11q4 0 9 2.5t7 2.5q16 0 16 -11q0 -19 -10 -36t-25 -20q-3 0 -8 -3.5t-9 -3.5q-30 0 -30 67q0 113 2 130q1 12 -1 14q-2 1 -6 -6q0 -1 -1 -2q-4 -7 -14.5 -25.5t-18 -31t-24 -35t-37.5 -45.5q-2 -2 -9 -8.5t-13 -12t-9 -9.5
q-47 -65 -106 -65zM349 33q50 39 89 80t80 109q21 30 21 39q0 7 -6 12.5t-16 5.5q-20 0 -61 -43.5t-77.5 -102t-42.5 -96.5q-1 -6 3 -7.5t10 3.5zM37 29q7 0 18 7.5t30.5 33t40.5 65.5q40 76 61 106q2 3 2 7q0 2 -6.5 3t-8.5 6q-1 3 -16.5 10t-20.5 7q-22 0 -67.5 -96
t-45.5 -135q0 -14 13 -14z" />
    <glyph glyph-name="df" unicode="df" horiz-adv-x="478" 
d="M336 -361q-9 0 -9 11q0 2 7.5 29t7.5 49q0 152 18 337q1 10 -3 11q-2 1 -5 -5q-1 -1 -1 -2q-45 -101 -64 -121q-10 -10 -18 -10q-26 0 -31 67q-1 14 -1 172q0 9 -5 9t-9 -6q-27 -44 -43 -81q-65 -149 -143 -149q-16 0 -26.5 11.5t-10.5 35.5q0 40 29 110t82 131.5
t105 61.5q19 0 19 13q0 97 19 164q10 31 42 31q3 0 5 -0.5t4 -2.5t2.5 -3t2 -3.5t2.5 -3.5q1 -2 3.5 -5.5t4 -6t1.5 -5.5q0 -13 -11 -13q-10 0 -14 -10q-22 -63 -22 -203q0 -14 16 -3q24 17 96 39q8 2 10 10q14 63 48 122.5t69.5 95.5t65.5 58t41 22q15 0 26.5 -8t11.5 -21
q0 -5 -6 -9.5t-23 -13t-29 -15.5q-119 -69 -157 -219q-2 -3 -0.5 -5.5t5.5 -1.5q14 4 72.5 17t65.5 13q20 0 20 -12q0 -3 -4.5 -4.5t-15.5 -3t-17 -2.5q-93 -21 -129 -51q-12 -9 -13 -13q-45 -204 -45 -499q0 -19 -14 -68q-13 -41 -32 -41zM63 5q8 0 20.5 8.5t33 34.5
t41.5 66q42 81 63 110q2 3 2 7q0 2 -1.5 3t-3.5 2t-4 3q-5 12 -22 12q-37 0 -89 -96t-52 -135q0 -15 12 -15zM284 6q1 -10 9 -3l5 8q0 1 14.5 27t24.5 47t22.5 54.5t17.5 60.5q2 9 4 30q1 5 -1 7t-6 0q-33 -13 -44 -24q-20 -20 -32 -20l-12 3q-9 3 -9 -4q-3 -107 7 -186z
" />
    <glyph glyph-name="dg" unicode="dg" horiz-adv-x="670" 
d="M377 -335q-18 0 -27.5 3.5t-11.5 8t-2 13.5q0 21 40 21q34 0 80 44q2 3 15.5 11t16.5 12q106 128 106 416q0 11 -4 11t-7.5 -3t-8.5 -9.5t-9 -10.5q-8 -8 -30 -47t-41 -63q-23 -27 -35 -40t-33 -24t-44 -11q-10 0 -20.5 8.5t-10.5 22.5q0 19 -13 6q-15 -18 -40.5 -33.5
t-34.5 -15.5q-32 0 -32 55q0 15 4 93t4 85q0 9 -5 9q-3 0 -9 -6q-6 -9 -24.5 -58.5t-21.5 -56.5q-32 -64 -62.5 -91.5t-75.5 -27.5q-37 0 -37 47q0 58 27.5 128.5t76 123t98.5 52.5q14 0 23 -9t9 -23q0 -6 4 -6q3 1 4 5q1 12 7 79.5t6 78.5q0 3 -4 12t-4 17q0 7 7.5 13.5
t14.5 6.5q5 0 11 -3t8 -3q4 0 8.5 -8.5t4.5 -14.5q0 -17 -3 -29q-18 -124 -22 -187q-1 -13 -2 -107.5t1 -131.5q1 -5 5.5 -6.5t9.5 1.5q18 13 42 46t59 85t58 83q48 63 94 63q16 0 28.5 -12t12.5 -27q0 -6 7 -1q1 1 2 3q6 6 26 6q6 0 13 -7.5t7 -14.5q0 -13 -4 -23t-4 -23
q0 -112 -21 -206.5t-51.5 -153.5t-67 -100.5t-67 -58.5t-51.5 -17zM402 51q15 0 65.5 53.5t76.5 86.5q24 29 24 39q0 5 -8 5q-6 0 -14 7t-13 7q-6 0 -19 -7t-22 -16q-35 -39 -67.5 -93.5t-32.5 -67.5q0 -14 10 -14zM67 44q43 0 91 91q14 27 33 71.5t25 52.5q4 9 0 9t-10 6.5
t-10 6.5q-45 0 -93 -84t-48 -139q0 -14 12 -14z" />
    <glyph glyph-name="dh" unicode="dh" horiz-adv-x="677" 
d="M415 -64q-7 0 -13 6t-6 15q0 10 9.5 64t22 140t19.5 161q1 14 -4 13q-4 0 -6 -6q-8 -19 -27 -75q-2 -4 -9 -13.5t-9 -13.5q-55 -155 -83 -208.5t-56 -53.5q-27 0 -27 96q0 11 3.5 49.5t3.5 47.5q0 8 -5 8q-6 0 -9 -6q-2 -3 -9 -9.5t-9 -10.5q-8 -11 -20 -30t-18.5 -29
t-17 -25.5t-17 -23.5t-15.5 -18.5t-16 -16t-15.5 -11.5t-16.5 -8t-16 -2q-42 0 -42 49q0 96 79.5 191.5t140.5 95.5q6 0 9 -6.5t4 -6.5q6 0 6 14q0 1 1.5 59.5t1.5 70.5q0 15 8.5 30.5t17.5 15.5q11 0 23 -8.5t12 -18.5q0 -3 -6 -18t-8 -24q-5 -33 -17.5 -197t-12.5 -186
q0 -19 9 -19q4 0 15 23t29 68t35 88.5t42.5 109.5t41.5 107q5 14 11 20t21 6q11 0 24 -10.5t13 -18.5q0 -9 -3 -14l-2 -5q0 -1 -2 -4t-2 -6q0 -1 0.5 -5.5t0.5 -6.5q-1 -3 -5 -10t-4 -10q-10 -91 -25 -181q-2 -8 1 -9.5t8 7.5q2 5 8.5 19.5t8.5 19.5q1 2 7.5 8t8.5 9
q25 40 36.5 52.5t26.5 12.5q25 0 25 -36q0 -48 10.5 -119t20.5 -105q0 -1 4.5 -9t8.5 -17t4 -13q0 -31 -32 -31q-5 0 -13 15t-14 35q-9 28 -18 91.5t-9 90.5q0 28 -14 28q-9 0 -14 -10q-37 -56 -60 -122q-1 -3 -2.5 -6l-2.5 -5t-2 -4.5t-1 -4.5q0 -40 -20 -113
q-4 -17 -26 -17zM58 32q5 0 10 2q64 34 159 196q4 8 4 19t-9 11q-40 0 -103.5 -72.5t-63.5 -145.5q0 -7 3 -10z" />
    <glyph glyph-name="di" unicode="di" horiz-adv-x="519" 
d="M499 356q-10 0 -17 14q-1 2 -10 10.5t-9 22.5q0 12 10 21t24 9q15 0 26 -10t11 -28q0 -13 -14 -26t-21 -13zM21 -38q-8 0 -18.5 16t-10.5 24q0 101 68.5 208t140.5 107q19 0 31 -10.5t12 -27.5q0 -8 4 -8t9 9q38 82 62 146q3 9 3 15q0 22 23 22q11 0 20 -8t9 -21
q0 -7 -4 -15t-12.5 -21t-13.5 -24q-21 -45 -33.5 -75.5t-25 -87t-12.5 -113.5q0 -17 11 -6q35 41 73 74q96 81 113 81q8 0 17 -7t9 -17q0 -5 -15.5 -80t-15.5 -88q0 -9 5 -19.5t5 -21.5q0 -8 -1.5 -12t-5 -7.5t-5.5 -6.5q-4 -7 -29 -7q-23 0 -23 41q0 16 11.5 76.5
t11.5 68.5q0 6 -5 7.5t-10 -1.5q-42 -24 -54 -37t-51 -69q-42 -59 -49 -59q-25 0 -25 24v12q-1 11 -1.5 33.5t-0.5 48.5q0 20 4.5 48t4.5 30q0 9 -5 9t-10 -7q-61 -111 -83 -145t-35 -39q-5 -2 -23 -16.5t-22 -18.5q-19 -25 -48 -25zM55 32q44 0 92 94q40 77 63 109q2 3 2 8
q0 2 -1 3t-3.5 2.5t-3.5 2.5q-6 13 -18 13q-38 0 -89.5 -79t-51.5 -144q0 -9 10 -9z" />
    <glyph glyph-name="dj" unicode="dj" horiz-adv-x="503" 
d="M454 383q-10 0 -22 8t-12 21q0 10 12 20.5t29 10.5q12 0 19 -12.5t7 -22.5q0 -25 -33 -25zM219 -271q-26 0 -44.5 9t-18.5 19q0 8 24 10l11 7q11 8 18 8q57 0 89.5 13.5t56.5 53.5q73 118 73 363q0 10 -4 10.5t-9 -6.5q-12 -14 -21 -29t-18.5 -35t-14 -32t-15 -39.5
t-14.5 -37.5q-2 -4 -3.5 -13.5t-1.5 -10.5q-23 -47 -51 -47q-20 0 -29 45q-9 54 -9 141q0 11 -5 11q-4 0 -10 -6q-4 -6 -34 -56q-5 -10 -14 -19.5t-15 -19.5q-4 -6 -12.5 -20.5t-12.5 -20.5q-21 -31 -46 -49.5t-46 -18.5q-39 0 -39 54q0 8 1.5 13.5t5.5 15.5t7 20
q27 93 75 169t84 76q16 0 35 -27.5t20 -43.5q0 -6 7 -8q5 1 6 6q0 37 3.5 80.5t7 73.5t3.5 33q0 10 6 20.5t14 10.5q9 0 20 -10.5t11 -20.5q0 -7 -7 -20t-7 -19q-14 -140 -14 -282q0 -30 5 -58q1 -7 5 -7.5t6 5.5q35 85 103 218q8 17 28 17q3 0 21 -10q1 -1 4.5 -3t5 -3.5
t4 -3.5t4 -4l3 -4t2 -5t0.5 -6q0 -257 -88 -403q-33 -55 -79 -79.5t-87 -24.5zM63 23q5 -2 11 2q10 6 19.5 15t22 25t20.5 27t25.5 36t25.5 37l7 14t10 17q7 11 -4 11t-11 10t-9.5 21t-17.5 11q-20 0 -54.5 -73.5t-47.5 -142.5q-1 -6 3 -10z" />
    <glyph glyph-name="dk" unicode="dk" horiz-adv-x="609" 
d="M242 179q0 -97 1 -104v-14t1.5 -18.5t4.5 -6.5t20 47q10 29 37.5 118t53.5 162t52 125q10 21 37 21q3 0 8 -4.5t7 -5.5q10 -3 10 -8q0 -3 0.5 -13t0.5 -15t-4 -20q0 -1 -1 -3.5t-2 -4.5t-1 -4q-1 -8 -3 -25l-5 -22q-5 -21 -12 -68t-12 -113q0 -10 3 -11l10 4q26 11 73 56
q20 20 31 20q7 0 11 -1t6 -3.5t2 -4.5v-7q0 -7 -4.5 -13.5t-15.5 -16.5t-24 -19t-36.5 -27t-45.5 -36q-11 -9 -11 -16q0 -8 16 -16q5 -2 63 -29.5t91 -37.5q3 -1 8 -2t7 -1.5t5 -2.5t4.5 -4t2.5 -6t1 -9q0 -19 -28 -19q-20 0 -94 37l-75 36q-6 1 -9 -3t-4 -11
q-7 -56 -7 -119q0 -6 2 -15t2 -16t-8.5 -15.5t-15.5 -7.5q-6 0 -9 9q-1 2 -6 7t-5 12q0 13 3 23t3 15q0 60 8 121q1 13 -13 18q-24 7 -22 25q0 5 4 8.5t11.5 8t11.5 8.5q12 8 13 26l26 234q2 13 -2 14q-4 -1 -7 -6q-11 -15 -18 -30q-1 -2 -9.5 -10t-9.5 -12
q-20 -57 -50 -170t-54 -171q-17 -41 -39 -41q-28 0 -33 83q-1 12 2.5 53.5t3.5 48.5q0 8 -6 8t-8 -6q-19 -27 -25 -37q-9 -14 -24 -36.5l-21 -31.5t-16.5 -23.5t-16.5 -19.5t-15 -11.5t-17.5 -8.5t-19.5 -2q-35 0 -35 34q0 89 56.5 179t120.5 90q14 0 20 -3.5t7 -16.5
q1 -5 3 -6q3 2 4 6q0 6 8 88t8 85t-1 7t-1 6q0 18 18 18q1 0 10 -5.5t14 -5.5q15 0 15 -21q0 -5 -10 -29.5t-20 -85.5t-10 -154zM44 38q5 0 11 2q16 9 31 23.5t30 36.5t25 39t26.5 46.5t23.5 41.5q4 8 4 19t-9 11q-51 0 -98 -77t-47 -132q0 -7 3 -10z" />
    <glyph glyph-name="dl" unicode="dl" horiz-adv-x="474" 
d="M414 -87q-15 0 -24.5 16.5t-9.5 43.5q0 86 15 167q2 8 -1 9.5t-8 -6.5q-52 -101 -65 -119q-2 -3 -13 -19t-19.5 -24.5t-14.5 -8.5q-34 0 -34 49q0 29 5 83.5t5 57.5q0 8 -5 8q-6 0 -9 -6q-29 -34 -29 -35q-51 -75 -93 -113t-85 -38q-16 0 -28 14t-12 36q0 24 22.5 72.5
t56.5 98t80.5 87t87.5 37.5q19 0 29 -20q5 -11 8 -2q1 2 1 7q4 46 23 125v15q0 7 2 12t6 9.5t5 6.5q13 18 19 18q16 0 29.5 -9t13.5 -20q0 -6 -7 -15.5t-14 -9.5q-4 0 -6.5 -3t-3.5 -5.5t-2 -8.5t-2 -8q-53 -198 -53 -380q0 -13 5 -13t34.5 49t66 126t51.5 136q17 62 26 87
q2 5 6 14t5.5 13t4.5 9.5t5 8t5.5 5t7 3.5t8.5 1q11 0 19 -6t8 -11q0 -17 -8.5 -37t-25.5 -56.5t-31 -74.5q-1 -3 -5 -13.5t-7 -18.5t-4 -12q-30 -78 -30 -230q0 -27 0.5 -46.5t1.5 -29.5t1 -13q0 -13 -14 -13zM58 30q10 8 32 23t34.5 24.5t31.5 28.5t35 44q7 9 15.5 30
t12.5 27q6 9 20 33q6 9 6 19q0 17 -16 17q-37 0 -83.5 -50.5t-75.5 -106t-29 -77.5q0 -8 4.5 -12.5t12.5 0.5z" />
    <glyph glyph-name="dm" unicode="dm" horiz-adv-x="852" 
d="M400 -41q-19 0 -19 26q0 14 13 56q32 147 32 151q0 10 -8 2q-11 -8 -18 -17t-16 -26t-16 -27q-9 -13 -29.5 -47.5t-31.5 -50.5q-21 -25 -42 -25q-18 0 -24 9.5t-6 47.5q0 18 1 65t1 49q0 9 -5 9q-3 0 -8 -7q-2 -2 -9.5 -8.5t-9.5 -11.5q-45 -103 -97 -149
q-34 -31 -67 -31q-18 0 -28.5 12.5t-10.5 33.5q0 55 30.5 127.5t80.5 127.5t97 55q7 0 13 -4l6 -4q8 0 8 10q0 30 7.5 67t12.5 45q6 10 13 10q2 0 8 2.5t10 2.5q10 0 16 -11.5t6 -21.5t-7 -10q-4 0 -10 -9q-2 -3 -5.5 -24.5t-7 -68.5t-3.5 -101q0 -77 5 -132q1 -3 1 -7
q1 -5 5 -5q6 0 18 20q45 80 106 169q3 4 6 13t6.5 14t11.5 5q5 0 15.5 -5t13.5 -5q18 0 18 -26q0 -3 -10 -31q-36 -106 -45 -172q0 -15 1 -15q4 0 10 7q29 29 34 39q2 4 8 12t13 16.5t9 10.5q6 7 38 47.5t56.5 61.5t46.5 21q12 0 12 -33q0 -13 -9.5 -71t-9.5 -63
q0 -1 1.5 -3t4.5 -2t6 4q8 8 16 18q2 2 4.5 5.5t4.5 5.5q2 3 7.5 9t6.5 7q20 20 24 23q52 40 74 40q5 0 10 -10t6 -17q1 -14 1 -101q0 -8 5 -15.5t5 -22.5q0 -10 -12 -16.5t-26 -6.5q-19 0 -19 43v73q-1 9 -10 9q-11 0 -30 -19.5t-61 -71.5q-41 -53 -69 -53q-16 0 -16 36
q0 15 9 66t10 64q0 6 -4 6q-3 0 -4 -2q-7 -7 -39 -47q-34 -42 -35 -43q-7 -10 -20 -23.5t-16 -18.5q-28 -38 -41 -50t-30 -12zM54 14q6 0 15 9q25 25 72 83t61 88q6 13 14.5 31t12 27t3.5 13q0 12 -23 12q-34 0 -75.5 -53.5t-67.5 -111.5t-26 -80q0 -18 14 -18z" />
    <glyph glyph-name="dn" unicode="dn" horiz-adv-x="665" 
d="M255 -15q-19 0 -29 81q-7 63 -7 122q0 8 -5 8t-9 -6q-13 -21 -38 -80q-29 -66 -68 -97t-75 -31q-16 0 -26.5 12t-10.5 35q0 42 26.5 105t78.5 117t110 54q7 0 13 4.5t6 13.5q0 8 11 55t16 55q6 10 13 10q5 0 10 7.5t7 7.5q8 0 16.5 -6.5t8.5 -13.5q0 -8 -15 -26
q-29 -35 -29 -226q0 -73 8 -125q2 -13 10 -2q15 17 53.5 95t43.5 95q1 2 2.5 6t2 6t2 5.5t2.5 5t2.5 4t3.5 3t4.5 1.5t5.5 1q44 0 44 -13q0 -2 2 -9.5t2 -9.5q0 -6 -4 -14t-6 -14q-1 -7 -10 -34.5t-16 -56t-7 -44.5q0 -10 1 -10q2 0 8 7q2 5 22 30q35 52 107 122q9 11 12 14
q5 4 11.5 11.5t13 12t15.5 4.5q14 0 18 -24q5 -29 13.5 -108.5t8.5 -111.5q0 -29 -27 -29q-28 0 -28 58q-1 8 -4.5 38t-7 56.5t-4.5 32.5q-2 8 -4 8t-10 -4q-9 -4 -31.5 -28t-30.5 -39q-2 -3 -9.5 -9.5t-8.5 -8.5q-11 -16 -18.5 -28t-13 -19.5t-16.5 -21.5q-32 -36 -50 -36
q-17 0 -17 22q0 25 16 95.5t16 74.5q0 16 -10 0q-4 -6 -40 -79t-40 -86q-5 -14 -18 -29.5t-23 -15.5zM48 38q47 0 92 87q40 77 63 109q2 3 2 8q0 2 -1 3t-3.5 2.5t-4.5 2.5q-4 9 -15 9q-41 0 -92.5 -83.5t-51.5 -122.5q0 -15 11 -15z" />
    <glyph glyph-name="do" unicode="do" horiz-adv-x="583" 
d="M437 -17q-22 0 -37 16.5t-15 50.5q0 52 21 120t21 73q0 8 -2 10.5t-4.5 1.5t-4.5 -3q-8 -11 -58.5 -102.5t-61.5 -118.5q-10 -25 -27 -25q-16 0 -26 29t-11 51q-3 106 -3 108v20q0 3 -6 3q-1 0 -3 -3t-4 -7t-5 -6t-10 -6.5t-9 -6.5l-7 -7t-9.5 -12t-10.5 -18
q-7 -13 -19.5 -36.5t-19 -34.5t-17 -28.5t-18.5 -26t-18 -18t-20.5 -13.5t-22.5 -4q-14 0 -22.5 12t-8.5 29q0 42 25 107.5t66 118.5t79 53q30 0 47 -30q4 -7 11 -3q1 1 1 2q0 11 2 62.5t2 57.5q0 10 11 21t18 11q19 0 19 -8q0 -4 4 -11.5t4 -10.5q0 -7 -2 -14t-5 -13.5
t-3 -8.5q-2 -8 -5.5 -60t-3.5 -90q0 -62 8 -123q2 -22 15 -3q3 6 71 110.5t71 114.5q13 42 39 42q21 0 26 -16q1 -13 10 -13q2 0 8 1.5t18 1.5q24 0 43.5 -27t19.5 -66q0 -44 -29 -105.5t-67.5 -105t-64.5 -43.5zM443 28q18 0 51.5 47t46.5 96q10 38 10 57q0 50 -18 50
q-5 0 -16 -7.5t-18 -7.5q-5 0 -10 1.5t-6 1.5q-9 0 -14 -15q-45 -138 -45 -199q0 -16 5 -20t14 -4zM53 42q15 0 88 119q12 21 20.5 37t12 23t9.5 15q2 3 2 7q0 3 -3.5 5t-5.5 4q-4 9 -10 9q-30 0 -76.5 -86.5t-46.5 -124.5q0 -8 10 -8z" />
    <glyph glyph-name="dp" unicode="dp" horiz-adv-x="616" 
d="M372 -280q-21 0 -21 32q0 6 7.5 43.5t14.5 111.5t7 169q0 148 -5 189q-2 18 -9 1q0 -1 -1.5 -3t-3.5 -7.5t-4 -13.5q-1 -4 -7.5 -12.5t-7.5 -12.5q-10 -37 -26.5 -110.5t-18.5 -80.5q-10 -34 -19.5 -47t-24.5 -13q-9 0 -15 11.5t-6 20.5t-9.5 56.5t-9.5 73.5q0 9 1 27.5
t1 20.5q0 8 -1 8l-7 -7q-3 -5 -22.5 -29t-25.5 -35q-9 -17 -19.5 -45.5t-21 -50t-26.5 -38.5q-30 -29 -61 -29q-18 0 -26 10t-8 37q0 32 24 102.5t64.5 135t76.5 64.5q33 0 49 -44q3 -6 7 -2q1 1 1 3q0 8 4.5 78.5t5.5 76.5q3 15 16 19q2 1 10 7t11 6q10 0 19 -12t9 -21
q0 -7 -10 -15t-11 -10q-16 -37 -16 -173q0 -119 7 -160q2 -6 7.5 -7t7.5 5q13 37 42.5 138.5t31.5 118.5q8 64 50 64q6 0 10.5 -2t7.5 -6.5t4.5 -8.5t2 -10t0.5 -9.5v-9v-6.5q0 -3 -2 -12t-2 -14v-43q0 -4 -2.5 -21.5t-2.5 -20.5q0 -49 -5.5 -120t-6.5 -96q0 -14 4 -14
q3 0 6 12q2 7 7.5 25.5t7.5 29.5q4 12 13 46.5t12 41.5q26 89 56.5 137t74.5 48q15 0 30.5 -18.5t15.5 -43.5q0 -62 -52 -149t-96 -87q-8 0 -18 2l-8 4q-4 0 -5 -4q-5 -10 -13.5 -28t-13 -28t-10 -27.5t-8.5 -37.5q-12 -92 -12 -161q0 -8 -8 -14t-18 -6zM495 58q27 0 62 65
t35 107q0 32 -16 32q-45 0 -104 -178q-2 -4 -2 -10t4 -6q5 0 9.5 -5t11.5 -5zM50 4q11 0 33.5 25.5t45.5 70.5q11 21 23 46t19.5 40t13.5 23q2 3 2 7q0 7 -8 22.5t-20 15.5q-26 0 -73 -102t-47 -134q0 -14 11 -14z" />
    <glyph glyph-name="dq" unicode="dq" horiz-adv-x="631" 
d="M541 -317q-24 0 -24 37q0 6 1.5 18.5t1.5 14.5q0 8 3 25t3 21q10 188 54 363q3 9 -1 9q-3 -1 -10 -8q-1 -1 -4 -3.5t-6.5 -5.5t-6.5 -7q-23 -40 -28 -49q-1 -2 -4 -14t-8 -18q-39 -50 -54 -65.5t-29 -15.5q-25 0 -40 22.5t-15 54.5q0 35 29.5 94.5t67.5 97.5q5 4 6 8
t-1.5 6t-7.5 2q-28 0 -70 -42q-9 -10 -27 -43t-20 -36q-4 -5 -4.5 -13.5t-3.5 -12.5q-22 -36 -46 -90q-15 -37 -22.5 -48.5t-21.5 -11.5q-18 0 -27 45t-9 87q0 3 2 20.5t2 19.5q0 9 1 27.5t1 20.5q0 9 -6 9q-3 0 -8 -8q-22 -34 -46 -85q-5 -10 -9.5 -17.5t-7 -12t-7.5 -11
t-7 -8.5t-10.5 -11t-12.5 -13l-12 -21q-15 -14 -33.5 -21.5t-27.5 -7.5q-18 0 -26.5 10t-8.5 37q0 70 65.5 164t118.5 94q26 0 33 -19q3 -6 7 -4q1 1 1 3q0 3 4.5 61t4.5 62q0 5 6 13t11 8q10 0 13 -5q2 -5 7.5 -10t5.5 -8q0 -1 -5 -32.5t-10 -86.5t-5 -113q0 -54 0.5 -62.5
t6.5 -38.5q0 -3 2 -5t4 -2.5t4.5 1t3.5 4.5q3 4 6 11t8 17l8 16q2 3 7 8t8 10q20 35 27.5 47t30 45t38 47.5t39 28.5t46.5 14q57 0 81 -58q2 -7 5 -7t6 4q7 9 28 9q27 0 27 -25q0 -6 -12 -45t-26 -91t-27 -144t-14 -192q0 -6 2.5 -15.5t2.5 -13.5q0 -23 -5.5 -31.5
t-23.5 -8.5zM435 34q8 0 45 51q2 3 13 16.5t16 23.5q22 30 23 31q5 8 11.5 23t11.5 21q3 2 3 5q0 6 -5 7q-12 5 -20 20t-16 15q-27 0 -64 -72t-37 -111q0 -30 19 -30zM49 24q12 0 35 24.5t45 68.5q44 81 63 109q2 3 2 7t-5 9t-9 5q-35 0 -88.5 -85t-53.5 -124q0 -14 11 -14z
" />
    <glyph glyph-name="dr" unicode="dr" horiz-adv-x="614" 
d="M291 -23q-22 0 -29 38q-9 76 -9 198q0 8 -5 8t-9 -6q-11 -15 -31 -62q-4 -11 -14 -22.5t-19.5 -20t-10.5 -10.5q-45 -64 -68 -85t-56 -21q-38 0 -38 45q0 21 19.5 69t48.5 99.5t70 90t78 38.5q23 0 38 -27q7 -12 7 6q0 104 3 115q2 7 11 12t17 5q7 0 16 -6t9 -15
q0 -7 -7 -15l-6 -8q-9 -38 -9 -261q0 -23 1.5 -38t4 -25.5t2.5 -13.5q3 -17 11 -4q9 15 17 25.5t11 14t6.5 8.5t6.5 14q2 4 4 21t5 21q32 73 70.5 118t59.5 45q9 0 14 -2t9.5 -14.5t4.5 -35.5q0 -1 -1 -17.5t-1 -28.5q0 -18 -7 -58t-7 -55q0 -6 3 -6.5t5 7.5q35 150 122 198
q5 3 9.5 5.5t6 3.5t4.5 1.5t8 0.5q4 0 7.5 -2.5t6.5 -2.5q4 0 7.5 -10t3.5 -15q0 -10 -4.5 -17t-7.5 -9t-13 -6t-11 -5q-32 -11 -70 -68t-64 -180q-6 -33 -26 -33q-35 0 -35 27q0 4 -4 15t-4 21q0 41 5.5 90.5t11 84t5.5 39.5q0 13 -10 3q-18 -16 -56.5 -86.5t-72.5 -144.5
q-6 -15 -20.5 -33t-23.5 -18zM57 49q50 0 122 108q5 8 20.5 41t20.5 40q6 4 4 10l-2 5q0 4 1 8.5t2.5 7t1.5 3.5q0 17 -16 17q-36 0 -97 -97.5t-61 -133.5q0 -9 4 -9z" />
    <glyph glyph-name="ds" unicode="ds" horiz-adv-x="531" 
d="M408 -62q-16 0 -31.5 15.5t-15.5 23.5q0 13 16 13q4 0 16.5 -7.5t27.5 -7.5q29 0 46.5 18t17.5 42q0 8 -9.5 19.5t-19.5 15.5q-24 11 -43 28q-8 7 -19 -2q-19 -18 -36.5 -45t-26.5 -37q-32 -43 -68 -43q-28 0 -38 220q0 9 -6 9q-4 0 -9 -7q-5 -8 -19 -48t-19 -49
q-19 -38 -55 -72t-78 -34q-37 0 -37 46q0 25 13.5 67.5t36 86.5t60.5 76t80 32q20 0 28 -27q2 -5 5 -4.5t3 5.5q0 128 8 148q3 11 16 19t21 8q2 0 5.5 -3t7.5 -4q9 -3 9 -18t-6 -15q-1 0 -9 -23q-1 -3 -4 -25.5t-6 -66t-3 -87.5q0 -117 11 -165q5 -14 15 -5q79 60 91 78
q6 8 2 12q-34 34 -34 99q0 31 31.5 54.5t67.5 23.5q29 0 45.5 -21.5t16.5 -45.5q0 -4 -1 -8t-3 -8.5t-4 -8t-7 -9.5t-8.5 -9.5l-11 -11l-12 -12l-14.5 -14.5l-16 -16q-8 -10 7 -20q7 -5 46 -25q35 -16 35 -52q0 -44 -36.5 -73.5t-79.5 -29.5zM417 149q14 8 27 25t21 21
q20 9 20 39q0 9 -13.5 20t-30.5 11q-20 0 -36 -15.5t-16 -32.5q0 -47 15 -65q6 -7 13 -3zM61 38q45 0 83 61q20 32 29.5 76.5t16.5 51.5q4 4 0 8q-3 2 -4 5.5t-2.5 5t-5.5 1.5q-47 0 -88.5 -75.5t-41.5 -119.5q0 -14 13 -14z" />
    <glyph glyph-name="dt" unicode="dt" horiz-adv-x="528" 
d="M442 -94q-27 0 -27 25t11.5 135.5t19.5 148.5q3 15 -8 15q-6 0 -11 -8q-10 -14 -80 -128q-55 -91 -68 -105q-12 -12 -22 -12q-14 0 -20.5 58.5t-6.5 129.5q0 9 2 33.5t2 26.5q0 9 -5 9q-3 0 -8 -8q-6 -8 -20.5 -44.5t-16.5 -40.5q-30 -65 -61 -106t-49.5 -52.5
t-32.5 -11.5q-18 0 -26.5 10t-8.5 37q0 44 23 112.5t67.5 127.5t92.5 59q25 0 34 -26q2 -6 4.5 -7.5t3.5 0.5t2 6q21 131 21 132q0 3 -6.5 17.5t-6.5 18.5q0 12 16 28q9 6 30 6q19 0 19 -47q0 -1 -7 -25.5t-13.5 -75.5t-6.5 -116q0 -23 -2.5 -67.5t-2.5 -64t4 -46.5
q4 -16 14 -3q6 8 16 22q7 12 20 29q71 100 71 112q0 7 -7 7q-2 0 -33 -16t-36 -16q-18 0 -18 20q1 10 10 17q8 6 31 17.5t53 25t35 15.5q8 5 17.5 21t13.5 32q4 19 4 73q0 7 2.5 13.5t2.5 8.5q0 29 29 29q12 0 21 -6.5t9 -16.5q0 -4 -4.5 -7t-4.5 -11q0 -3 -1 -5t-2.5 -4
t-2.5 -4q-10 -24 -14 -82q-1 -7 1 -9t11 1q6 2 33 13t37 14q2 1 7.5 6t11.5 5q18 0 18 -17q0 -15 -28 -21q-23 -4 -29 -7q-3 -2 -7 -5t-7 -4q-2 -1 -7.5 -2t-8.5 -3q-2 -1 -5 -5.5t-5 -5.5t-9.5 -5t-8.5 -4q-5 -3 -12.5 -13t-8.5 -16q-1 -21 -9.5 -57t-8.5 -59q0 -11 -4 -71
t-4 -68q0 -11 3.5 -22.5t3.5 -20.5q0 -8 -6 -20q-2 -2 -4 -5.5t-3 -5t-3 -3.5l-3 -3t-3 -1.5t-4 -0.5zM60 25q19 0 71 85t64 136l2 8q0 4 -5.5 8.5t-9.5 4.5q-27 0 -59.5 -46.5t-53.5 -100.5t-21 -81q0 -14 12 -14z" />
    <glyph glyph-name="du" unicode="du" horiz-adv-x="735" 
d="M418 -22q-17 0 -17 29q0 26 35 136t37 123q1 7 -1.5 8t-6.5 -5q-39 -55 -73.5 -124t-51.5 -116q-1 -2 -3.5 -9t-3.5 -9.5t-4 -8.5t-5 -9t-5.5 -7.5t-6.5 -6.5t-7.5 -3.5t-9.5 -1.5q-17 0 -29 56q-5 23 -5 194q0 11 -5 11q-4 0 -10 -6q-2 -4 -22 -28.5t-23 -30.5
q-6 -11 -25.5 -38t-24.5 -35q-15 -26 -29 -45q-13 -21 -37.5 -35t-45.5 -14q-35 0 -35 57q0 17 18 63t45.5 98t67.5 91.5t77 39.5q18 0 31 -10.5t13 -27.5q0 -4 2 -6t4.5 -0.5t2.5 6.5q0 22 4.5 76t4.5 56q0 41 -6 45q-3 3 -3 9q0 3 8 13t12 10q2 0 9 2t9 2q18 0 18 -86
l-5 -64q-6 -64 -6 -128q0 -33 -2 -79.5t-3 -66t1 -40.5q3 -17 12 -3q7 14 9.5 18.5t4 7.5t3 4.5t7.5 11t15 25.5l15 31q16 30 21 37q4 6 33.5 61t34.5 62q19 29 38 29q5 0 12.5 -7t10.5 -8q15 -6 15 -24q0 -5 -3.5 -13.5t-10 -21t-9.5 -21.5q-52 -154 -52 -181q0 -12 6 -12
q36 0 68 39q66 82 90 150q15 44 31 44q10 0 20 -7.5t10 -21.5q0 -108 3 -137q12 -124 12 -133q0 -10 -9 -16.5t-22 -6.5q-8 0 -16 11t-8 29q0 145 -4 168q-4 11 -5 11q-6 0 -9 -6q-21 -36 -29 -46.5t-38 -41.5q-4 -3 -31 -38.5t-29 -37.5q-18 -18 -43 -29.5t-41 -11.5z
M59 67q6 -2 11 2q44 27 140 162l7 14t10 17q7 11 -4 11t-11 10q0 20 -16 20q-13 0 -47 -41.5t-63.5 -97.5t-29.5 -88q0 -6 3 -9z" />
    <glyph glyph-name="dv" unicode="dv" horiz-adv-x="606" 
d="M436 -59q-11 0 -22 23.5t-12 34.5q-5 29 -11.5 109t-6.5 119q0 16 -9 3q-19 -34 -46.5 -104.5t-35.5 -99.5q-4 -14 -17.5 -29.5t-23.5 -15.5q-25 0 -33 67q-2 16 -3 42.5t-0.5 48t1 44.5t0.5 26q0 8 -5 8t-9 -6q-6 -9 -39 -104q-57 -142 -128 -142q-16 0 -26.5 12
t-10.5 36q0 29 11.5 76.5t31.5 98.5t54.5 87.5t74.5 36.5q25 0 39 -44q3 -9 6 -6q1 2 1 5q6 50 6 157v41q0 5 7 10t18 5t18.5 -15t7.5 -26q0 -2 -4 -28t-8 -75.5t-4 -107.5q0 -28 -0.5 -64.5t-0.5 -52t1 -32t4 -26.5t12 1q15 16 49 98.5t47 118.5q3 8 7.5 12t10.5 7t8 5
q3 2 7 5.5t7 5.5t6 1q19 -4 19 -22q0 -11 -2 -30.5t-2 -20.5q0 -95 21 -187q3 -14 10 -14q9 0 25 20q37 49 66.5 116t35.5 95q1 8 13 28q5 7 11 7q11 0 11 -19q0 -2 2.5 -7.5t2.5 -14.5q0 -4 -4 -11.5t-5 -9.5q-11 -42 -25 -77t-25 -53.5t-30.5 -50t-29.5 -49.5
q-39 -66 -74 -66zM65 32q28 0 77 95q15 30 25.5 70t15.5 47q2 3 2 7q0 2 -1 3t-3.5 2.5t-4.5 2.5q-4 10 -15 10q-38 0 -73 -89t-35 -133q0 -15 12 -15z" />
    <glyph glyph-name="dw" unicode="dw" horiz-adv-x="756" 
d="M420 -23q-27 0 -27 60q0 26 -1.5 99t-1.5 80q0 6 -3.5 7.5t-7.5 -5.5q-27 -49 -47 -111q-1 -3 -1.5 -11.5t-1.5 -11.5q-11 -22 -13 -34q-11 -55 -32 -55q-16 0 -27 23q-12 27 -25 85.5t-15 89.5q0 9 -6 9q-1 0 -8 -7q-8 -6 -14.5 -13.5t-14 -19t-11 -18t-12.5 -23
t-12 -21.5q-65 -117 -117 -117q-13 0 -22 12t-9 29q0 42 24 104.5t70.5 116t97.5 53.5q13 0 19 -9t6 -18q0 -2 2 -4.5t4.5 -2t2.5 6.5q0 15 4 65t8 62q7 22 27 22q1 0 3 -2.5t4.5 -6t3.5 -4.5t4 -2.5t4 -2.5t3 -2.5t2.5 -3.5t0.5 -5q0 -5 -2 -9.5t-4.5 -6t-5 -3.5t-3.5 -3
q-13 -17 -13 -130q0 -89 28 -159q7 -17 13 -3q3 5 10.5 20t11 22.5t10.5 23.5t12 29.5t12 34.5t13 44q1 4 3.5 14.5t4.5 15.5t5 11.5t8 9.5t11 3q3 0 8.5 -5.5t7.5 -5.5q20 -7 20 -23q0 -69 2.5 -137.5t2.5 -74.5q0 -9 4 -9q9 0 62 136q43 103 83 103q10 0 19.5 -14t9.5 -24
q0 -13 6.5 -41t8.5 -46q0 -4 2 -10t2 -10q0 -37 2 -45q1 -4 3 -14.5t3 -14.5q1 -10 6 -10q3 0 10 7q5 8 19 36q28 60 45 178q3 21 6.5 27.5t13.5 6.5q16 0 16 -28q0 -45 -27 -134q-16 -58 -49.5 -105.5t-64.5 -47.5q-9 0 -16.5 23.5t-9.5 58.5q-12 129 -31 129
q-6 0 -16.5 -23.5t-23.5 -57t-20 -46.5q-7 -14 -15 -28q-35 -64 -51 -74q-7 -5 -13 -5zM48 39q22 0 66 72q31 52 75 113q2 3 2 7q0 2 -1 3t-3.5 2.5t-3.5 2.5q-4 10 -11 10q-30 0 -64 -44.5t-53 -90.5t-19 -61q0 -14 12 -14z" />
    <glyph glyph-name="dx" unicode="dx" horiz-adv-x="690" 
d="M665 -63q-8 0 -19 11t-16 22q-7 13 -38 58q-5 8 -27 49t-37 61q-7 9 -12 9q-8 0 -15 -7q-3 -4 -20 -15.5t-20 -15.5q-31 -38 -40 -77q-1 -2 -5 -6t-4 -6q-11 -36 -22 -36q-4 0 -9 6.5t-5 14.5q0 2 -3 5.5t-3 6.5q0 12 15 37q45 64 98 109q7 6 7 13q0 4 -5 11
q-39 51 -54 62q-16 10 -25 0q-17 -25 -29 -49t-17.5 -38.5t-15 -42t-16.5 -44.5q-2 -4 -3 -9.5t-2 -10t-1 -5.5q-21 -47 -50 -47q-19 0 -29 45q-9 40 -9 131q0 11 -5 11q-4 0 -11 -6q-7 -14 -33 -56q-6 -10 -15 -19.5t-15 -19.5q-23 -40 -24 -41q-21 -31 -46 -49.5
t-46 -18.5q-39 0 -39 54q0 9 6 22t8 27q6 38 27.5 85.5t61 89t82.5 41.5q16 0 29 -13.5t14 -28.5q0 -5 6 -8t6 6q0 37 4 80.5t7.5 73.5t3.5 33q0 10 6 20.5t14 10.5q2 0 7.5 -5.5t9.5 -5.5t9 -7.5t5 -12.5q0 -3 -3.5 -8t-3.5 -10q0 -2 -3.5 -10t-3.5 -11q0 -2 -2.5 -20
t-5 -40.5t-5 -54.5t-4 -77t-1.5 -94q0 -38 4 -58q1 -7 5.5 -8t6.5 6q23 58 107 222q12 27 32 27q18 0 95 -98q3 -5 12 -5q5 0 12 5q76 45 78 47q4 2 11.5 8t11.5 8q35 19 47 19q19 0 26 -5.5t7 -20.5q0 -22 -41 -22q-3 0 -17.5 -6t-20.5 -7q-1 0 -5 0.5t-6 -0.5
q-25 -12 -75 -43q-10 -6 -10 -13q0 -4 6 -12q10 -14 32 -55t34 -59q6 -9 21 -38.5t17 -32.5q9 -22 9 -26q0 -13 -8 -13zM44 24q5 -2 11 2q9 6 20.5 17.5t25.5 29.5t25 33t29 40.5t28 39.5l7 14t10 17q7 11 -5 11q-10 0 -10 10q0 9 -3 11.5t-12 2.5q-36 0 -78.5 -76
t-50.5 -142q-1 -6 3 -10z" />
    <glyph glyph-name="dy" unicode="dy" horiz-adv-x="748" 
d="M440 -297q-42 0 -62 12l-4 6q-3 6 -12 6t-9 6q0 18 27 18q3 0 18.5 -3.5t30.5 -2.5q69 4 108.5 37.5t77.5 129.5q6 14 12 45.5t10 43.5q67 195 67 216q0 17 -6 17q-3 0 -15 -9q-26 -16 -33 -30q-1 -2 -13.5 -14t-32.5 -35t-35 -49q-13 -20 -19 -28.5t-24 -21.5t-38 -13
q-24 0 -24 42q0 17 18 43q10 15 22.5 59t12.5 85q0 10 -10 5q-57 -30 -141 -170q-3 -5 -6.5 -17t-5.5 -17q-39 -68 -63 -68q-8 0 -13 5.5t-6.5 10t-3.5 16.5q-9 48 -9 176q0 8 -6 8q-4 0 -8 -6q-3 -4 -9.5 -10t-9.5 -10q-53 -87 -98 -131q-24 -28 -32 -35q-31 -26 -54 -26
q-43 0 -43 64t68 173q26 39 66.5 68.5t75.5 29.5q38 0 43 -29q1 -6 4 -8.5t5 0t2 8.5q1 42 5.5 106.5t8.5 73.5q8 20 34 20q9 0 15.5 -6t6.5 -14q0 -4 -2 -8.5t-4.5 -7.5l-5 -6t-3.5 -4q-2 -3 -4.5 -30t-5 -85.5t-2.5 -128.5q0 -87 6 -129q3 -19 9 -19q3 0 7 5t10 13.5
t10 12.5q7 9 34 56.5t58 95t54 66.5q35 31 56 31q26 0 26 -31q0 -16 -4 -33q-1 -4 -5.5 -16.5t-5.5 -17.5q-15 -71 -36 -132q-2 -7 0.5 -9.5t7 -1t7.5 5.5q4 7 12 17t31.5 39.5t53.5 70.5q14 19 35.5 37.5t25.5 23.5q8 8 25 8q12 0 20 -10.5t8 -28.5q0 -41 -25 -124
q-34 -106 -67 -185t-61 -126.5t-56.5 -76.5t-52 -39t-49.5 -10zM48 46q6 0 11 2q39 22 86.5 77.5t80.5 111.5q4 9 4 19q0 3 -1 5t-4 4t-4 3q-8 12 -18 12q-57 0 -107.5 -79.5t-50.5 -143.5q0 -8 3 -11z" />
    <glyph glyph-name="ea" unicode="ea" horiz-adv-x="555" 
d="M253 -48q-19 0 -31 12t-12 29q0 14 7 46q6 13 0 15q-3 0 -7 -4q-35 -40 -79.5 -63t-79.5 -23q-49 0 -49 67q0 61 30 130t80 118t101 49q16 0 27.5 -12t11.5 -27q0 -37 -32 -70.5t-105 -74.5q-4 -2 -17 -16.5t-23 -14.5h-7t-4 -0.5t-2 -2v-3.5q0 -4 -6 -25t-6 -32
q0 -40 24 -40q30 0 55.5 11.5t79.5 67t129 161.5q60 83 107 83q20 0 27.5 -11.5t10 -24t7.5 -13.5q22 -6 22 -35q0 -7 5.5 -104t5.5 -164q0 -28 -22 -28q-10 0 -18.5 12t-8.5 20q0 24 2.5 45t2.5 31q0 2 -6 19.5t-6 18.5q0 22 -2 39t-4 25.5t-2 9.5q0 9 -5 9q-8 0 -10 -7
q-8 -12 -15.5 -25t-11 -18.5t-9.5 -14t-13.5 -18t-20.5 -23.5q-3 -3 -19 -32.5t-18 -32.5q-43 -59 -84 -59zM115 190q23 4 54.5 35t31.5 43q0 8 -9 8q-11 0 -40 -22.5t-46 -45.5q-3 -4 -4 -10.5t1 -8.5q5 -3 12 1zM277 9q10 0 46 43t62 88q13 23 29 48t22 35t10.5 21.5
t4.5 22.5q0 14 -13 14q-27 0 -100.5 -113t-73.5 -145q0 -14 13 -14z" />
    <glyph glyph-name="eb" unicode="eb" horiz-adv-x="582" 
d="M379 -39q-11 0 -17 0.5t-12 6t-6 15.5q0 7 -15 13q-22 10 -22 29q0 15 7 30t10 32q16 107 24 138q3 13 -3 12q-4 0 -7 -5q-31 -75 -144 -211q-17 -21 -60.5 -52t-62.5 -31q-39 0 -55.5 20t-16.5 63q0 21 7.5 47.5t13 39.5t22.5 48t19 38q24 44 82.5 106.5t100.5 62.5
q13 0 23 -11t10 -27q0 -41 -39 -83t-144 -115q-39 -28 -39 -83q0 -62 32 -62q105 0 270 354q3 6 10.5 31t9.5 29q5 10 14 55.5t10 48.5q17 40 39 40q5 0 10.5 -4.5t7.5 -5.5q19 -12 19 -26q0 -10 -3.5 -20.5t-6.5 -17.5t-13 -24t-15 -27q-15 -30 -27 -74q-12 -41 -19 -85
t-9 -51q-4 -21 -4 -32q0 -8 7 -4q4 3 9 12q2 2 24 31t24 31q9 10 45 49q23 23 47 23q26 0 40 -21.5t14 -48.5q0 -57 -29 -123t-79.5 -113.5t-102.5 -47.5zM105 190q3 -4 14 3q6 4 16 8t20 11t23 21q2 2 7 12.5t6 11.5q24 28 24 35v3q1 6 -5 6q-11 0 -44 -32.5t-56 -63.5
q-8 -11 -5 -15zM403 13q49 0 95.5 77t46.5 143q0 29 -17 29q-30 0 -92.5 -73.5t-62.5 -98.5q0 -17 -1 -37l-1 -20q0 -7 5 -7q2 0 8 -6.5t19 -6.5z" />
    <glyph glyph-name="ec" unicode="ec" horiz-adv-x="524" 
d="M67 -82q-22 0 -44.5 27t-22.5 57q0 28 10 62t17.5 51.5t26.5 56.5q23 44 75.5 102t94.5 58q14 0 24.5 -10.5t10.5 -28.5q0 -84 -170 -189q-39 -25 -39 -81q0 -27 10 -36t28 -9q8 0 16.5 2.5t16 6.5t12 7.5t10 8t6.5 5.5q67 67 125 134.5t87.5 103.5t44.5 46q78 46 128 46
q15 0 29.5 -6.5t14.5 -15.5q0 -23 -21 -23q-5 0 -13 -3t-16 -3q-52 0 -117 -59t-77 -141q-1 -6 2 -15.5t3 -13.5q0 -28 17 -42t40 -14q29 0 57 28q9 10 14 17q5 6 14.5 3.5t9.5 -12.5q0 -5 -4 -9q-7 -6 -12 -22q-1 -2 -8 -7t-8 -7q-6 -11 -26 -21t-43 -10q-37 0 -67.5 27.5
t-30.5 63.5q0 15 7 43q4 13 2.5 14t-12.5 -5q-7 -5 -54 -58t-93 -90q-2 -2 -20.5 -11t-19.5 -11q-14 -17 -35 -17zM98 167q4 -4 14 4q39 22 69 56q1 1 4 7.5t5 7.5q15 18 15 25q0 9 -10 9q-11 0 -39.5 -30.5t-51.5 -63.5q-10 -10 -6 -15z" />
    <glyph glyph-name="ed" unicode="ed" horiz-adv-x="617" 
d="M75 -58q-32 0 -50.5 22.5t-18.5 59.5q0 35 9 70q5 19 -3 21q-14 4 -14 14q0 21 32 30q16 4 20 21q15 49 78 114t108 65q21 0 34.5 -12t13.5 -28q0 -47 -47 -94t-131 -86q-23 -10 -36 -38t-13 -55q0 -53 34 -53q31 0 52 5.5t43 24t35.5 35t47 59.5t60.5 76q88 105 109 124
q33 30 60 30q15 0 29 -10.5t16 -10.5q4 0 7 6q15 26 21 57t5.5 49.5t7 31t27.5 12.5q11 0 20.5 -9.5t9.5 -22.5q0 -20 -33 -86q-38 -83 -38 -311q0 -4 5.5 -23.5t5.5 -31.5q0 -10 -8 -20t-14 -10q-10 0 -22.5 14.5t-12.5 29.5v60q0 3 5 22.5t5 27.5q0 41 0.5 69.5t0.5 37.5
q0 15 -5 15q-6 0 -28 -37q-77 -131 -108 -169q-60 -75 -120 -75q-34 0 -34 40q0 9 6.5 30.5t6.5 25.5q0 6 -4 6q-1 0 -3 -2q-63 -71 -91 -91q-41 -30 -80 -30zM104 193l1 -3q1 -1 6 -1q23 5 72 44t49 64q0 9 -9 9q-14 1 -66.5 -46.5t-52.5 -66.5zM311 28q38 15 78 64t95 138
q23 37 23 42q0 8 -6.5 14t-17.5 6q-17 0 -59.5 -47t-81 -110t-44.5 -102v-2q0 -5 4 -5q3 0 9 2z" />
    <glyph glyph-name="ee" unicode="ee" horiz-adv-x="502" 
d="M295 153q34 72 99.5 138.5t106.5 66.5q11 0 20 -10t9 -23q0 -39 -41.5 -83.5t-137.5 -112.5q-23 -16 -38 -49q-12 -28 -12 -59q0 -19 12 -31t35 -12q24 0 44.5 16.5t29.5 34.5q3 8 13.5 18t17.5 10q4 0 7 -1t4.5 -2.5t2.5 -4.5t1 -4v-5v-5q0 -3 -4 -7l-10 -10t-9 -10
q-52 -80 -113 -80q-73 0 -73 84q0 34 1 38q2 5 -0.5 7t-8.5 -1q-53 -39 -91.5 -58.5t-80.5 -19.5q-28 0 -51.5 20.5t-23.5 54.5q0 29 11 49t11 21q0 10 -11 10q-16 0 -16 11q0 20 5 25q4 4 9 7.5t13.5 9t16.5 10.5q10 7 23 26q41 69 93 115.5t94 46.5q16 0 29 -12t13 -27
q0 -35 -31.5 -64t-127.5 -87q-23 -13 -30 -17.5t-13 -11t-11 -16.5q-22 -41 -22 -67q0 -32 12 -44t39 -12q51 0 159 88q9 7 25 39zM153 248q92 59 92 81q0 8 -11 8q-13 0 -37.5 -19.5t-53.5 -56.5q-9 -10 -5 -16q3 -3 15 3zM370 187q4 -4 13 2q95 77 95 105q0 7 -9 7
q-11 0 -41 -30t-53 -67q-8 -14 -5 -17z" />
    <glyph glyph-name="eg" unicode="eg" horiz-adv-x="599" 
d="M396 -336q-5 0 -11 5t-9 5q-8 0 -8 19q0 14 17 14l21 9q26 10 43.5 30t34.5 68.5t25.5 143.5t8.5 237q0 11 -4 11t-7.5 -4t-8.5 -12t-10 -13t-38 -53.5t-55 -74.5q-27 -33 -46.5 -44t-43.5 -11q-17 0 -39 27q-10 15 -21 2q-28 -31 -76.5 -62.5t-97.5 -31.5
q-27 0 -44 22.5t-17 61.5q0 19 9 55q1 6 -3 9t-11 3q-10 0 -10 14q0 6 0.5 10t3 8t3.5 6t6 5.5t7 5t9 5.5t10 6q26 22 27 24q25 51 88.5 111.5t101.5 60.5q16 0 29.5 -13t13.5 -29q0 -38 -43.5 -79t-143.5 -95q-31 -17 -37 -36q-7 -24 -7 -63q0 -17 12.5 -29t27.5 -12
q24 0 48 11t41.5 24t42.5 42t38 46.5t40.5 56.5t39.5 55q67 92 122 92q14 0 25.5 -8.5t11.5 -23.5q0 -10 10 -12q40 -13 40 -62q0 -537 -166 -537zM146 191q26 14 58.5 42.5t32.5 38.5t-10 10q-11 0 -37.5 -23.5t-52.5 -56.5q-9 -9 -6 -15q3 -3 15 4zM323 45q17 0 64 53
t78 94q26 29 26 40q0 7 -9 7q-6 0 -14.5 6.5t-13.5 6.5q-18 0 -34 -20q-37 -39 -72.5 -99t-35.5 -74t11 -14z" />
    <glyph glyph-name="eh" unicode="eh" horiz-adv-x="640" 
d="M593 -52q-6 0 -11.5 7t-5.5 16q0 3 -3.5 8t-4.5 8q-6 19 -12 53.5t-12.5 76t-9.5 57.5q-5 30 -15 30q-7 0 -13 -11q-1 -1 -7.5 -8.5t-11.5 -14.5t-12.5 -20t-16.5 -33t-17 -45q-1 -3 -5.5 -10.5t-4.5 -10.5q0 -6 -4 -17t-9.5 -25.5t-7.5 -21.5q-1 -7 -13.5 -12t-22.5 -5
q-7 0 -13.5 6.5t-6.5 16.5q0 3 4 35q0 3 3 12.5t4 13.5q6 37 33 295q1 14 -5 13q-4 0 -7 -7q-7 -17 -29 -60q-3 -5 -9 -11.5t-10 -13.5q-4 -8 -21 -43t-25 -50.5t-22.5 -43t-28.5 -48t-28 -38.5q-7 -8 -11 -18t-11 -16q-52 -50 -99 -50q-76 0 -76 83q0 14 5.5 35t5.5 24
q0 7 -5 7q-2 0 -9.5 -1.5t-9.5 -1.5q-4 0 -8.5 4.5t-4.5 9.5q0 9 5 16.5t10 11.5t17 12t17 11q4 2 7.5 6.5t7.5 10t6 7.5q30 47 93.5 101.5t107.5 54.5q17 0 29.5 -10.5t12.5 -28.5t-7.5 -32.5t-26 -28.5t-37.5 -26t-55 -33.5t-65 -40.5q-26 -18 -37 -46q-5 -18 -5 -54
q0 -17 11.5 -29.5t26.5 -12.5q129 0 260 371q8 27 8 34q0 4 4 11t5 11q2 6 13 11t12 7q5 4 18 4q4 0 14.5 -4t15.5 -4q9 -1 15 -6.5t6 -10.5q0 -4 -6 -19.5t-6 -32.5q0 -3 -3 -7.5t-3 -5.5q-5 -27 -32 -236q-1 -9 1.5 -10t8.5 8q15 36 40 76q19 32 27 44.5t19 22t22 9.5
q19 0 25 -51q21 -172 32 -215q0 -1 4.5 -6.5t8 -12.5t3.5 -12q0 -4 3 -8t3 -7q0 -8 -12 -16.5t-21 -8.5zM152 224q91 51 91 64q0 9 -11 9q-14 0 -40.5 -16t-49.5 -45q-8 -11 -5 -16q2 -2 15 4z" />
    <glyph glyph-name="ei" unicode="ei" horiz-adv-x="412" 
d="M403 442q-12 0 -21.5 10.5t-9.5 24.5q0 33 44 33q8 0 15.5 -10.5t7.5 -30.5q0 -4 -3 -6t-8.5 -3.5t-7.5 -2.5q-2 -2 -7.5 -8.5t-9.5 -6.5zM105 -52q-44 0 -71 27.5t-27 76.5q0 22 1.5 35t3.5 18t2 8q0 11 -13 11q-6 0 -11 3.5t-5 7.5q0 16 10 20q10 5 32 20q6 3 25 38
q33 54 77.5 96.5t77.5 42.5q46 0 46 -45q0 -36 -35 -70t-125 -78q-10 -5 -14.5 -11t-13.5 -23q-7 -14 -9 -22.5t-0.5 -18.5t1.5 -12q0 -41 16 -55.5t48 -14.5q94 0 198 232q1 4 1 9v7q6 36 32 36q5 0 12 -4.5t10 -4.5q10 0 11 -4q1 -1 3 -4t3.5 -5.5t1.5 -5.5
q0 -14 -4.5 -23.5t-4.5 -10.5q-4 -20 -13 -61.5t-15.5 -73.5t-6.5 -40q0 -7 3.5 -10t8.5 1q37 23 70 73q9 11 14 11q7 0 7 -11q0 -1 -4 -9l-19 -26q-10 -10 -36.5 -38.5t-33.5 -35.5q-10 -10 -18 -21t-12 -15.5t-10 -4.5q-8 0 -18.5 5.5t-10.5 11.5q0 3 -1.5 10t-1.5 12
q0 25 7 52q21 85 27 109q5 12 -1 12q-3 0 -6 -4q-2 -3 -7 -15.5t-13 -24.5q-3 -4 -10.5 -9t-11.5 -10q-38 -58 -82.5 -105t-65.5 -49q-3 0 -9.5 -5t-9.5 -5zM111 214q85 52 85 73q0 9 -10 9q-31 0 -83 -70q-10 -10 -7 -16q5 -3 15 4z" />
    <glyph glyph-name="ej" unicode="ej" horiz-adv-x="453" 
d="M372 432q-9 0 -22.5 19.5t-13.5 33.5q0 11 13 22t30 11q14 0 21 -13t7 -23q0 -6 -7.5 -14.5t-7.5 -13.5q0 -8 -7 -15t-13 -7zM156 -363q-27 0 -47.5 16t-20.5 28q0 8 6 8l6 -2q7 -2 9 -2q4 0 10.5 -2t7.5 -2q10 0 25 6t21 6q22 0 57 20t59 60q63 98 63 285q0 5 -2 21.5
t-2 22.5q2 90 2 142q0 16 -11 4q-23 -30 -76 -117t-96.5 -135.5t-86.5 -48.5q-80 0 -80 77q0 82 54 170q39 65 79.5 102t70.5 37q39 0 39 -44q0 -36 -44 -79t-100 -64q-23 -8 -36 -40t-13 -60q0 -29 8 -38t28 -9q80 0 243 300l3 7q2 7 4 9.5t7 6t12 3.5q5 0 17 -2t16 -2
q19 0 19 -26q0 -167 -23.5 -321t-62.5 -218q-35 -59 -79 -89t-86 -30zM98 190q4 -4 14 3q79 51 79 72q0 8 -11 8q-12 0 -34 -19.5t-42 -48.5q-10 -11 -6 -15z" />
    <glyph glyph-name="ek" unicode="ek" horiz-adv-x="634" 
d="M399 -134q-10 0 -15 11.5t-5 24.5q0 16 7 65q3 15 6 51t4 43q4 25 -11 29q-39 9 -39 20q0 10 12 17q4 3 17.5 14t20.5 15q13 10 16 29q7 49 18.5 110.5t20 106.5t9.5 50q1 8 -1 11t-5 2t-5 -4q-102 -190 -147 -263t-93 -123q-2 -3 -28.5 -43t-33.5 -45q-36 -32 -88 -32
q-27 0 -41.5 20t-14.5 50q0 72 35 150.5t93 132t117 53.5q16 0 26.5 -12.5t10.5 -22.5q0 -82 -140 -161q-4 -2 -23 -17t-29 -15q-16 0 -22 -12q-20 -40 -20 -76q0 -20 6.5 -27.5t22.5 -7.5q14 0 21.5 1.5t32 18.5t51.5 50t74 104t104 173q3 4 12.5 30t10.5 27q10 16 57 106
q16 32 33 32q21 0 27 -3q3 -2 12 -11q10 -10 10 -22q0 -10 -12 -52t-15 -55q-17 -79 -34 -193q-3 -11 4 -13q5 -2 11 4q21 15 51 41t56 43q4 3 9 8t8 7.5t8 4.5t11 2q11 0 18 -7.5t7 -15.5q0 -3 -3.5 -7.5t-4.5 -6.5q-3 -10 -14 -15q-14 -3 -31 -13q-38 -23 -133 -94
q-14 -10 -14 -24q0 -12 1 -14q4 -9 15 -16q90 -57 168 -86h5t6 -1q17 -5 24 -11t7 -18q0 -9 -11 -14t-23 -5q-11 0 -23 4q-2 1 -6.5 5t-7.5 5q-30 11 -66 29.5t-58.5 31.5t-26.5 13q-14 2 -16 -15q-7 -49 -7 -65q0 -8 -3 -36.5t-3 -37.5q0 -7 -8 -20t-15 -13zM124 204
q8 6 39 25.5t49 37t18 35.5q0 9 -10 9q-21 0 -58 -33.5t-49 -54.5q-7 -11 -3 -20q6 -3 14 1z" />
    <glyph glyph-name="eo" unicode="eo" horiz-adv-x="514" 
d="M81 -52q-34 0 -54.5 22t-20.5 54q0 61 35 132q21 43 83 109.5t105 66.5q35 0 35 -36q0 -91 -178 -188q-30 -17 -30 -66q0 -27 9.5 -37t33.5 -10q47 0 119.5 83.5t122.5 191.5q4 2 1 10t-3 10q0 21 16 31t30 10q21 0 28 -19q1 -11 14 -11q4 0 10.5 3t11.5 3
q24 0 44.5 -32.5t20.5 -65.5q0 -38 -26.5 -96t-63.5 -95q-2 -2 -14 -9t-14 -9q-22 -19 -40 -19q-14 0 -25.5 18.5t-11.5 48.5t23.5 97t23.5 78q0 14 -7 13q-3 -2 -5 -5q-69 -134 -143.5 -208.5t-129.5 -74.5zM90 151q22 6 71.5 54.5t42.5 57.5q0 7 -9 7t-50 -43.5t-57 -67.5
q-5 -7 0 -8q1 -1 2 0zM375 29q9 0 26 20q2 3 9 6.5t11 10.5q17 29 30 70t13 64q0 45 -15 45q-1 0 -5.5 -4.5t-13.5 -4.5q-14 0 -20 -13q-5 -16 -20 -60.5t-22.5 -72t-7.5 -40.5q0 -21 15 -21z" />
    <glyph glyph-name="ep" unicode="ep" horiz-adv-x="586" 
d="M290 -329q-4 0 -11.5 5t-12.5 5q-18 0 -18 21q0 6 6.5 19t6.5 18q0 7 6.5 17t7.5 16q3 14 20 208.5t24 229.5q3 11 -4 11q-4 0 -5 -4q-34 -91 -116 -168t-135 -77q-33 0 -45.5 15t-12.5 45q0 61 31 133t83 123.5t103 51.5q15 0 21.5 -8.5t6.5 -18.5q0 -23 -19.5 -48.5
t-39 -41t-62.5 -47.5q-4 -3 -6.5 -5t-5.5 -4t-10.5 -10t-14 -12.5t-14.5 -4.5t-10 -3q0 -2 -1 -3q-15 -22 -15 -75q0 -13 6.5 -23.5t19.5 -10.5q53 0 134 92.5t139 248.5q12 40 37 40q11 0 24 -13q17 -14 17 -23q0 -6 -3.5 -14.5t-7.5 -9.5q-8 -5 -8 -10q0 -2 -3 -5t-4 -5
q-9 -15 -12 -22t-7.5 -15t-7 -13.5t-5 -24.5t-4.5 -52q-1 -8 -0.5 -12t2.5 -4.5t4 0.5q6 8 25 39q21 41 75 86t91 45q29 0 41.5 -21t12.5 -49q0 -43 -52 -132t-111 -149q-5 -5 -16.5 -14t-13.5 -11q-23 -20 -56 -20q-23 0 -26 18q-1 9 -5 1l-2 -6q-1 -7 -5 -84.5t-4 -92.5
q0 -12 0.5 -39.5t0.5 -30.5q0 -1 -11 -27q-11 -25 -23 -25zM116 207q27 21 51.5 44.5t24.5 33.5q0 8 -10 8q-9 0 -35 -25.5t-40 -42.5q-7 -13 -3 -19q6 -3 12 1zM384 8q21 0 65.5 53t80.5 117t36 92q0 31 -15 31q-48 0 -122 -91.5t-74 -133.5q0 -17 -1 -32l-1 -15q0 -8 5 -8
q2 0 8 -6.5t18 -6.5z" />
    <glyph glyph-name="eq" unicode="eq" horiz-adv-x="547" 
d="M431 -316q-7 0 -11 2.5t-5 8.5t-1 11t1 13t1 13q0 4 4 21t6 29q2 11 8 26t6 17q14 66 31 285q1 7 -0.5 15t-1.5 13q1 15 1 42q0 10 -5 10h-1l-2 -2q-1 -2 -3 -7q-50 -75 -75 -107q-1 -1 -2.5 -5.5t-3 -8.5t-3.5 -6q-41 -57 -94 -57q-57 0 -57 57q0 3 -1.5 6t-3.5 3.5
t-4 -0.5q-105 -105 -148 -105q-27 0 -41 13.5t-14 57.5q0 63 36.5 142t88.5 134t93 55q22 0 35.5 -11t13.5 -26q0 -31 -28.5 -59.5t-121.5 -96.5q-4 -3 -11 -10.5t-13.5 -12t-14.5 -4.5q-9 0 -17 -29q-15 -51 -15 -76q0 -23 23 -23q20 0 77.5 37.5t94.5 81.5q14 16 54.5 70
t65.5 78t47 24q29 0 49 -11t20 -25q0 -5 -2 -10.5t-2 -6.5q0 -7 9 -7q12 0 20 -10.5t8 -24.5q0 -65 -29 -264.5t-29 -224.5q0 -35 -33 -35zM135 208q89 68 89 86q0 9 -9 9q-27 0 -88 -78q-11 -11 -4 -18q3 -3 12 1zM299 49q27 0 79.5 56t76.5 117q4 5 4 8q0 6 -6 7
q-6 2 -16 11t-21 9q-20 0 -78 -77.5t-58 -101.5q0 -17 3.5 -23t15.5 -6z" />
    <glyph glyph-name="et" unicode="et" horiz-adv-x="549" 
d="M457 -52q-38 0 -58 37t-20 99q0 15 4 35t11.5 48.5t10.5 44.5q1 3 1 8q0 9 -6 9q-5 0 -12.5 -4.5t-11.5 -4.5q-8 0 -12 2.5t-5 2.5q-5 0 -12 -5q-151 -258 -243 -258q-26 0 -41 23.5t-15 85.5q0 14 -5 14q-2 0 -9 -8.5t-14 -8.5q-6 0 -11 4.5t-5 10.5q0 20 37 63
q17 19 52.5 84.5t72.5 111t76 45.5q17 0 30.5 -10t13.5 -25q0 -43 -28 -80.5t-118 -104.5q-45 -33 -45 -103q0 -40 23 -40q17 0 47 16.5t43 31.5q9 11 32.5 35t47 52.5t47.5 67.5q3 5 2.5 16.5t2.5 18.5q3 6 18 20t19 22q36 73 68 157q4 10 10 31t10.5 30.5t15 18t27.5 8.5
q15 0 27 -10.5t12 -19.5q0 -4 -8 -10.5t-8 -11.5q0 -10 -6 -28.5t-18 -55t-22 -75.5q0 -1 -0.5 -3t-0.5 -3q0 -9 12 -9q8 0 63.5 17t65.5 17q22 0 22 -19q0 -2 -10.5 -10t-16.5 -8q-32 0 -70.5 -22.5t-60.5 -27.5q-20 -4 -25 -28q-5 -20 -15.5 -43.5t-16 -44t-5.5 -48.5
q0 -103 27 -103q12 0 19.5 2t10.5 4t7 7.5t6 7.5q1 2 12.5 7t16.5 11q16 25 28 25q6 0 9 -1t5.5 -6.5t2.5 -16.5q0 -2 -2.5 -6.5t-9 -11.5t-15.5 -11q-18 -10 -20 -13q-6 -5 -20 -19t-26 -24t-21 -10zM399 305q-5 -9 -2.5 -12.5t11.5 0.5q16 7 37 53.5t21 79.5q0 9 -5 9
q-4 0 -16.5 -26.5t-27 -61.5t-18.5 -42zM135 213l1 -1h4q-1 0 8 8.5t23.5 22.5t29 29.5t25 31.5t10.5 27q0 8 -10 8q-6 0 -15.5 -9.5t-20.5 -24.5t-20 -29t-18 -29t-11 -18q-7 -11 -7 -14q1 -1 1 -2z" />
    <glyph glyph-name="eu" unicode="eu" horiz-adv-x="604" 
d="M71 -41q-31 0 -48 15t-17 56q0 55 28.5 119t70.5 108t79 44q47 0 47 -31q0 -25 -27.5 -55.5t-97.5 -79.5q-8 -6 -18 -19q-6 -9 -21 -9q-8 0 -12.5 -3.5t-6.5 -13.5t-2 -16v-21v-10q0 -41 29 -41q17 0 43.5 20t73.5 87t95 173q14 31 37 31q12 0 21.5 -8.5t9.5 -17.5
q0 -1 -2.5 -8.5t-2.5 -13.5q0 -16 -9 -25q-3 -6 -8 -31q-21 -60 -21 -137q0 -17 17 -5q54 37 98 113q1 3 3 16t5 17q10 24 14 36q2 4 4.5 10.5t3.5 9t3 6.5t2.5 5.5t3 3.5t4 2.5t4.5 1t6 0.5h8q9 0 26 -12q17 -8 17 -17q0 -179 5 -207q0 -1 1 -5t1 -5t1 -4t2.5 -4t4 -2
t5.5 -1q7 0 14 -4.5t7 -11.5q0 -8 -11 -17q-1 -1 -3 -3.5t-3.5 -4.5t-5 -4t-6.5 -2t-8 -2t-9 -2q-12 0 -23.5 9t-11.5 17q0 2 -0.5 4t-1 3.5t-1.5 3.5t-1 3q-12 48 -12 203q0 5 -2.5 5.5t-3.5 -3.5q-21 -61 -46 -100.5t-73 -83.5q-50 -46 -66 -46q-10 0 -17 12.5t-7 32.5
t3.5 64.5t3.5 49.5q0 18 -3 18t-11 -11q-92 -133 -125 -167.5t-57 -34.5zM83 163q4 -4 12 2q84 61 84 84q0 9 -8 9q-28 0 -83 -81q-8 -11 -5 -14z" />
    <glyph glyph-name="ev" unicode="ev" horiz-adv-x="568" 
d="M378 -49q-28 0 -28 64q0 2 -5 15t-6 19q-2 25 -2.5 54.5t0.5 65t1 48.5q0 16 -8 3q0 -1 -20.5 -32.5t-45 -67.5t-56 -73.5t-54.5 -51.5q-2 -1 -11 -6.5t-16.5 -10.5t-9.5 -5q-8 1 -18.5 -6.5t-15.5 -7.5q-23 0 -44.5 28.5t-21.5 59.5q0 48 37 125q22 44 77.5 104.5
t97.5 60.5q33 0 33 -29q0 -41 -36 -81.5t-116 -98.5q-32 -24 -32 -56t7.5 -46t26.5 -14q28 0 68.5 43.5t74.5 98.5t57.5 97.5t25.5 49.5q4 9 8 12.5t6 4t9 0.5q10 0 37 -10q2 -1 5 -13t3 -18q0 -8 -5 -27.5t-5 -35.5q0 -151 4 -174q3 -16 9 -16q10 0 28 22q83 110 122 224
q2 6 9 10t8 6q5 8 15 8q8 0 8 -15q0 -1 1 -4.5t1 -5.5q0 -1 -3 -10q-7 -16 -24 -48t-33.5 -59.5t-42 -71t-36.5 -61.5q-17 -30 -41 -49t-43 -19zM98 167q4 -4 14 4q39 22 69 56q1 1 4 7.5t5 7.5q15 18 15 25q0 9 -10 9q-11 0 -39.5 -30.5t-51.5 -63.5q-10 -10 -6 -15z" />
    <glyph glyph-name="ew" unicode="ew" horiz-adv-x="735" 
d="M76 -51q-20 0 -36 23t-16 55q0 15 4 45t4 32q0 4 -1 6t-1.5 2.5t-3.5 0t-5 -0.5q-15 0 -15 8q0 6 15 18q15 11 38 50q31 56 80 103t100 47q16 0 24.5 -9t8.5 -21q0 -25 -29 -53.5t-124 -92.5q-22 -13 -29 -37q-15 -43 -15 -83q0 -24 9 -35t19 -11q30 0 55 20q2 1 16 9
t19 13q46 44 96 153q3 4 3 13t2 13q26 68 30 80q4 9 4 27q0 5 5.5 10t13.5 5q3 0 8 2t8 2q8 0 18 -12q11 -16 11 -19q2 -18 4 -96.5t8 -92.5q1 -3 9 -3q5 0 13.5 23.5t17.5 52t14 35.5q7 13 15 32.5t12.5 28.5t13.5 16.5t21 7.5q13 0 30 -13t19 -24q1 -8 2.5 -32.5
t4.5 -50.5q0 -5 2 -12t2 -11q0 -12 4 -35.5t6 -27.5q5 -14 9 -51q1 -12 7 -12q7 0 13 9q1 2 10 13.5t12 16t11 17.5t11.5 22t10 24t10 30t7 34.5t5 42t1.5 47.5q0 17 6.5 32.5t13.5 23t11 7.5q9 0 15 -7q10 -6 10 -13q0 -5 -3 -19t-3 -20q0 -83 -59 -205q-30 -58 -54 -88
t-51 -30q-18 0 -30 94q0 4 -3 11t-4 13q-11 107 -11 110q-1 17 -6 17t-8.5 -2.5t-8 -10t-8.5 -15.5t-13.5 -26.5t-18.5 -35.5q-1 -1 -6 -14t-12.5 -29t-11.5 -24q-12 -19 -19.5 -25.5t-19.5 -6.5q-21 0 -31 9t-14 36q-3 20 -5 82t-3 75q-1 7 -5 7.5t-6 -4.5
q-69 -151 -127 -223.5t-136 -72.5zM137 227q0 -1 1.5 -1.5t4 0.5t5.5 3q3 3 20.5 16.5t31 25t13.5 15.5t-6 4q-8 0 -31 -18t-35 -32q-4 -5 -4 -13z" />
    <glyph glyph-name="ex" unicode="ex" horiz-adv-x="605" 
d="M79 -39q-66 0 -66 82q0 60 31 133t85.5 126.5t111.5 53.5q16 0 27 -12t11 -22q0 -29 -16 -54.5t-36.5 -41.5t-51.5 -41t-49 -45l-7.5 -7.5t-7.5 -3.5t-6.5 -1h-11.5q-5 0 -7.5 -0.5t-3.5 -1.5t-2.5 -3.5t-2.5 -3.5q-10 -14 -13 -25t-1 -27.5t2 -19.5q0 -37 30 -37
q54 0 115 48.5t103 149.5q21 67 25 77q12 40 29 40q23 0 26 -1q10 -2 24 -16q4 -4 8 -10t7 -9q7 -6 17 -17t20.5 -23.5t14.5 -16.5q5 -5 13 -5q6 0 11 5q15 10 40.5 33.5t46 40t33.5 16.5q20 0 27 -4q12 -6 12 -22q0 -4 -1.5 -6.5t-4.5 -6t-4 -6.5q-13 -18 -24 -18
t-30 -11.5t-41 -29t-24 -18.5q-11 -6 -11 -13t7 -13l1 -1v-1l1 -1l1 -1v-1l1 -1l1 -1v-1l1 -1l1 -1v-1l1 -1l1 -2q80 -123 83 -138q0 -18 -8 -18q-14 0 -19 2.5t-11 12.5q-7 4 -11 15q-10 28 -80 122q-5 5 -17 5q-7 0 -15 -8q-3 -3 -20.5 -15.5t-22.5 -17.5
q-42 -49 -42 -110q0 -11 4 -22t4 -15q0 -7 -7.5 -14.5t-22.5 -7.5q-2 0 -8.5 7t-11.5 7q-3 0 -4.5 2t-1.5 5.5v7v9v7.5q0 35 3 48q9 35 67 104q4 5 20 18.5t19 16.5q8 5 8 14q0 7 -4 11q-33 37 -48 44q-2 3 -5 3t-6 -1t-4 -1q-11 0 -18 -12q-64 -136 -143.5 -208t-141.5 -72
zM126 195q91 62 91 100q0 10 -10 10q-12 0 -45 -32.5t-46 -58.5q-7 -13 -4 -20q6 -4 14 1z" />
    <glyph glyph-name="ey" unicode="ey" horiz-adv-x="610" 
d="M290 -391q-8 0 -12.5 8t-8.5 8q-11 0 -11 19q0 4 7 8.5t12 4.5q45 3 95 53.5t95 166.5q7 17 29 93.5t26 88.5q16 44 24 92t8 66t-5 18q-6 0 -18 -9q-20 -12 -55 -70t-55 -106q-19 -41 -53 -71t-57 -30q-15 0 -24 13t-9 32q0 10 31.5 104t31.5 104q0 3 -2 5t-4 2.5
t-3 -1.5q-27 -42 -77.5 -101t-107.5 -107q-45 -37 -82 -37q-30 0 -49 16t-19 45q0 52 25.5 121.5t74 126t101.5 56.5q29 0 29 -29q0 -32 -23.5 -60.5t-54.5 -50t-35 -27.5q-18 -27 -41 -27h-7.5t-3 -3t-2.5 -4q-14 -23 -14 -78q0 -35 29 -35q47 0 75.5 23.5t76.5 91.5
q1 1 11.5 19t15.5 29q8 16 36 57.5t32 50.5q26 34 46 34q16 0 28 -16q11 -18 11 -24q0 -21 -24 -93q-35 -95 -35 -143q0 -13 5 -13t9 8q93 144 136 201q48 65 54 76q6 15 41 15q2 0 4 -1t3.5 -2.5t3 -3.5l3 -4t3.5 -4q13 -15 13 -29q0 -52 -30 -143q-35 -113 -66 -194
q-1 -4 -8.5 -14.5t-9.5 -15.5q-63 -165 -115 -237.5t-104 -72.5zM121 213q22 11 36 28.5t14 28.5q0 9 -11 9q-3 0 -6 -1.5t-7 -5t-7 -6.5t-7 -8.5t-6.5 -9t-7 -10t-6.5 -9.5q-9 -11 -5 -17q6 -4 13 1z" />
    <glyph glyph-name="ez" unicode="ez" horiz-adv-x="610" 
d="M80 -52q-25 0 -43.5 19t-18.5 55q0 29 9 56q1 6 -3 8.5t-10 2.5q-12 0 -12 16q0 7 1.5 12.5t6 10t7.5 7t11.5 8t12.5 8.5q15 9 22 24q25 51 84.5 102.5t104.5 51.5q16 0 29.5 -13.5t13.5 -29.5q0 -18 -4 -29t-18.5 -23.5t-31 -22t-53.5 -32.5t-74 -49q-20 -18 -26 -39
q-16 -52 -16 -70q0 -29 22 -29q27 0 58.5 30.5t66 75.5t75.5 90.5t102.5 82t131.5 43.5q7 0 21.5 7t21.5 7q14 0 23.5 -14t9.5 -31q0 -19 -43 -69q-4 -4 -14 -10t-14 -9q-11 -11 -43 -40.5t-58 -55t-34 -39.5q-7 -7 -7 -10q0 -4 17 -2q132 11 136 11q47 0 47 -14
q0 -9 -7 -11q-1 -1 -6 -1t-7 -2q-13 -13 -64 -13q-25 0 -77 -11t-81 -21q-5 -1 -11 -8.5t-9 -7.5q-6 0 -20 -2t-27 -2q-9 0 -17 10q-6 5 -6 16q0 13 14 13q4 0 10.5 8t10.5 9q24 9 36 24q26 35 112.5 115t95.5 91q5 8 5 11q0 4 -12 4q-37 0 -73 -12t-63.5 -29t-58 -44.5
t-49 -48.5t-45 -51t-38.5 -43q-2 -2 -13 -21t-15 -22q-56 -48 -96 -48zM154 200q94 53 94 69q0 10 -9 10q-14 0 -42.5 -19t-51.5 -47q-9 -11 -6 -16q3 -3 15 3z" />
    <glyph glyph-name="and" unicode="and" horiz-adv-x="1142" 
d="M33 -30q-15 0 -25.5 11.5t-10.5 35.5q0 40 45.5 122t105.5 149.5t95 67.5q17 0 22 -10.5t5 -29.5q0 -11 8 -11q25 -1 25 -44q0 -12 -2 -51t-3 -63.5t1 -42.5q1 -12 13 -3q56 48 132 181q0 1 3 6.5t4.5 7.5t4.5 7.5t5 8t6 7t7 6.5t7 3.5t8 1.5q21 0 31 -7.5t10 -26.5
q0 -13 -20 -33q-2 -2 -5.5 -12.5t-7 -24.5t-4.5 -16q-5 -16 -7 -34.5t-3.5 -48.5t-4.5 -54q-2 -12 1 -12t9 9q4 5 17.5 34.5t18.5 37.5q11 16 22 40.5t23 40.5q4 4 9 15.5t8 14.5q24 26 35.5 34.5t30.5 8.5q31 0 31 -42q0 -93 9 -144q1 -8 8 -16.5t18 -8.5q9 0 20 8
q17 15 102 118q135 161 171 161q30 0 48 -18q3 -3 7 -3t6 6q29 50 31 75q0 3 6.5 14t6.5 13q0 22 33 22q10 0 17 -12.5t7 -27.5q0 -7 -4.5 -16.5t-13.5 -24t-15 -27.5q-22 -44 -43 -110q-41 -123 -41 -164q0 -12 10 -12q3 0 9 2.5t8 2.5q18 0 18 -12q0 -22 -11 -40.5
t-27 -21.5q-3 0 -9.5 -4t-9.5 -4q-33 0 -33 75q0 3 3.5 11.5t4.5 14.5q2 17 13 56.5t11 43.5q0 5 4 19q4 11 1 13q-4 2 -10 -8q-5 -8 -20 -38.5t-35 -60.5t-49 -63q-3 -4 -16 -13t-17 -15q-52 -68 -119 -68q-9 0 -18.5 14.5t-9.5 40.5q0 10 8 34q3 8 -2 10q-3 1 -6 -2
q-42 -49 -65 -49q-18 0 -29.5 16t-14.5 33q0 1 1.5 9t0.5 12q-4 46 -4 97q0 6 -2.5 13t-2.5 9q0 9 -5 9q-7 0 -10 -3q-20 -22 -38 -50q-2 -2 -8.5 -7t-9.5 -8q-21 -27 -41 -71t-34 -68.5t-31 -24.5q-14 0 -26 11.5t-12 39.5q0 21 7 81t7 66q0 17 -3 17q-12 0 -19 -10
q-18 -22 -30.5 -43.5t-20.5 -32.5q-3 -3 -17.5 -32t-17.5 -33q-9 -11 -23 -21.5t-22 -10.5q-20 0 -28 25t-8 144q0 9 -6 9q-3 0 -10 -7q-6 -10 -19 -37t-17 -34q-10 -20 -19 -29t-22 -17.5t-25 -21.5q-2 -2 -10.5 -13t-17 -21.5t-10.5 -12.5q-40 -38 -59 -38zM816 35
q121 95 198 220q23 35 23 45q0 7 -6.5 13.5t-17.5 6.5q-36 0 -118 -107.5t-92 -171.5q-1 -7 3 -8.5t10 2.5zM59 45q10 0 25.5 7.5t42 35.5t49.5 71q46 89 69 122q2 3 2 8q0 3 -6 5t-7 4q-5 7 -11 7q-18 0 -97.5 -112.5t-79.5 -132.5q0 -15 13 -15z" />
    <glyph glyph-name="The" unicode="The" horiz-adv-x="731" 
d="M603 -75q-20 0 -40 28.5t-28 68.5q-4 18 -9.5 22t-15.5 4q-2 0 -22.5 -7.5t-26.5 -7.5q-28 0 -29 25q-1 17 3.5 85t4.5 85q0 4 -2.5 6t-6.5 -2q-8 -10 -21 -34t-33.5 -62t-35.5 -65q-6 -11 -23.5 -55t-21.5 -52q-4 -10 -16 -16.5t-19 -6.5q-22 0 -22 38q0 2 14.5 32.5
t16.5 46.5q6 43 44.5 202.5t38.5 202.5q0 39 -14 53t-43 14q-11 0 -49 -10.5t-38 -15.5q0 -6 8 -6q24 -2 24 -34q0 -6 -15 -28.5t-16 -24.5q-22 -44 -50 -161.5t-28 -249.5q0 -4 2.5 -26t2.5 -28q0 -33 -26 -33q-16 0 -23.5 29.5t-7.5 63.5q0 80 49 276t49 200q0 12 -11 12
q-19 0 -109 -42q-7 -3 -27.5 -19.5t-25.5 -16.5q-25 0 -25 32q0 34 131.5 79.5t204.5 45.5q76 0 76 -69q0 -4 1.5 -15.5t2 -21.5t-1.5 -29q-1 -10 -19.5 -44.5t-21.5 -47.5q-36 -200 -36 -219q1 -16 3.5 -15.5t8.5 11.5q1 1 1 2q4 7 16.5 28t20.5 34t20.5 33t22 33t20 26
t19 19.5t14.5 6.5q16 0 22 -10.5t6 -42.5q0 -18 -8 -72t-9 -60q-2 -11 4.5 -25t16.5 -14q5 0 11.5 5.5t14.5 21t13 38.5q15 68 58 128.5t80 60.5q27 0 42 -18t15 -43q0 -86 -141 -190q-11 -7 -12.5 -13.5t3.5 -27.5q18 -72 56 -72q26 0 44 24q18 25 29 25q9 0 9 -13
q0 -4 -7.5 -12t-17 -16.5t-11.5 -11.5q-10 -17 -33.5 -29.5t-44.5 -12.5zM587 124q13 11 29.5 27.5t41 51t24.5 56.5q0 20 -17 20q-23 0 -55 -47t-39 -92q-1 -8 3 -15t13 -1z" />
    <glyph glyph-name="fa" unicode="fa" horiz-adv-x="528" 
d="M37 -319q-9 0 -9 10q0 1 1.5 5t3.5 10t3 12q0 4 -0.5 11t0.5 14q0 5 1.5 27t1.5 34q0 172 37 394q1 5 -1 7t-7 1q-51 -10 -65 -24q-20 -20 -31 -20q-17 0 -17 10q0 5 -4.5 11t-4.5 10q0 13 12 29q5 6 17 7.5t17 3.5q9 4 43.5 12t45.5 11q6 2 9 11q31 114 108.5 194
t166.5 80q4 0 10.5 -4t9.5 -4q7 0 13 -5.5t6 -11.5q0 -5 -12 -12q-15 -9 -17 -9q-5 0 -19.5 -9t-19.5 -10q-68 -11 -118.5 -60.5t-79.5 -137.5q-1 -3 0 -5t5 -1q2 1 18 3t47 7.5t66 12.5q4 1 17 9t18 9q25 5 54 10.5t43.5 8.5t16.5 3q31 0 38 -26q4 -13 14 -18
q22 -14 22 -30q0 -6 -9 -39.5t-9 -74.5q0 -87 6 -104q3 -8 6.5 -17t5.5 -14t2 -9q0 -9 -10 -16t-25 -7q-25 0 -25 118q0 50 -2 78q0 9 -5 9q-10 0 -13 -8q-1 -1 -1.5 -2t-0.5 -2q-41 -81 -115 -164q-4 -4 -10.5 -15t-12.5 -15q-40 -34 -75 -34q-42 0 -42 50q0 58 186 282
q11 11 0 11q-9 0 -94 -22.5t-120 -36.5q-9 -5 -12 -14q-43 -195 -43 -391q0 -15 -5.5 -37t-5.5 -42q0 -19 -10.5 -36.5t-10.5 -18.5q-1 -9 -10 -9zM217 -7q7 0 11 2q40 19 102.5 99.5t100.5 154.5q4 8 4 19t-10 11q-29 0 -81.5 -62t-91 -129t-38.5 -85q0 -7 3 -10z" />
    <glyph glyph-name="fb" unicode="fb" horiz-adv-x="515" 
d="M40 -332q-5 0 -5 14q0 2 3 14.5t6 30.5t3 34q0 220 33 424q4 22 -16 11q-32 -15 -36 -22q-1 -1 -2 -4t-1.5 -4t-2 -3t-3.5 -3t-5 -1.5t-7 -0.5q-10 0 -17 7.5t-7 19.5q0 10 9 20t21 12q11 2 57 25q20 9 26 28q32 140 78.5 204.5t117.5 64.5q17 0 32 -15q1 -1 4 -3t5 -3.5
t3 -4.5t1 -6q-1 -6 -13 -11t-22 -5q-1 0 -13.5 2t-21.5 2q-22 0 -63.5 -56t-57.5 -131q-1 -6 -1 -9t0.5 -7t3 -4t6.5 1q14 7 83.5 57t88.5 50q18 0 26.5 -11t8.5 -24q0 -11 -11 -46q-5 -12 -8 -30t-5 -24q-6 -18 -16 -68q-1 -6 -1.5 -18t-0.5 -14l-3 -24q2 -1 6 0t9.5 8
t11.5 18q2 2 5.5 6t6.5 7t4 5q12 14 31 42t26 35q30 30 53 30q26 0 43 -26.5t17 -58.5q0 -59 -26 -110q-3 -6 -11 -22.5t-10 -20.5q-35 -57 -80.5 -91t-89.5 -34q-12 0 -23.5 10t-11.5 21q0 4 -13 11q-21 11 -21 29q0 14 6 27.5t9 30.5q2 9 11.5 67t20 114.5t17.5 84.5
q3 14 -1.5 18t-13.5 -1q-23 -11 -44 -23.5t-47.5 -30.5t-47.5 -30q-22 -13 -27 -35q-16 -64 -29 -155.5t-13 -128.5q0 -84 -5.5 -127.5t-5.5 -55.5q0 -5 -4 -15.5t-4 -16.5q0 -17 -5.5 -26t-5.5 -12q0 -5 -5 -9t-10 -4zM335 -25q47 0 99.5 78t52.5 138q0 24 -7.5 35.5
t-17.5 11.5q-28 0 -93.5 -87.5t-65.5 -112.5q0 -11 -0.5 -21t-1.5 -15.5t-1 -7.5q0 -9 10 -9q4 0 8.5 -5t16.5 -5z" />
    <glyph glyph-name="fc" unicode="fc" horiz-adv-x="389" 
d="M-8 -358q-6 0 -6 14q0 2 7 15t13.5 32t6.5 34q0 49 17 194t35 256q4 22 -16 11q-5 -3 -13 -5t-10 -3q-15 -11 -23 -11q-11 0 -19 8t-8 20q0 10 8 21q7 5 19 5q25 0 53 11q20 7 25 28q24 106 95 186t143 80q34 0 34 -12q0 -3 -5 -7.5t-6 -9.5t-12.5 -9.5t-18.5 -4.5
q-4 0 -24 -7t-24 -11q-59 -47 -83 -77q-36 -48 -52 -109q-3 -10 -1.5 -15.5t11.5 -3.5q50 13 107 33.5t92.5 32t58.5 11.5q4 0 14 -3t14 -3q17 0 17 -13q0 -7 -12 -17q-2 -2 -4 -6.5t-4 -7.5t-5 -3q-5 0 -12 2t-14 2q-52 0 -110.5 -55.5t-72.5 -154.5q-1 -5 2 -14t3 -13
q0 -63 45 -63q29 0 58 32q11 11 14 15q5 6 13 2t8 -13q0 -6 -5 -9q-6 -5 -9 -16q-1 -3 -7 -9t-7 -8q-5 -11 -29 -23t-45 -12q-38 0 -59.5 27.5t-21.5 72.5q0 51 18.5 107t56.5 97q8 9 -3 11q-6 0 -11 -2q-83 -31 -91 -36q-22 -13 -28 -34q-17 -70 -38 -217t-21 -203
q0 -7 -3.5 -24.5t-3.5 -26.5q0 -5 2 -15.5t2 -16.5q0 -20 -13.5 -35t-27.5 -15q-3 0 -7 -3.5t-7 -3.5z" />
    <glyph glyph-name="fd" unicode="fd" horiz-adv-x="603" 
d="M46 -327q-7 1 -6 9t9 27q32 73 56 208t26 209q0 16 -13 9q-24 -11 -53 -34q-2 -2 -8 -7.5t-9 -7.5t-8 -4t-11 -2q-28 0 -28 26q0 6 4 10.5t4 9.5q0 3 6 7t11 4q8 0 63 30q4 2 8 7t8 7q12 5 24 15.5t13 20.5q22 173 80 272t110 99q9 0 21.5 4t17.5 4q25 0 25 -14
q0 -3 -8 -11t-14 -8q-19 0 -68 -44q-38 -33 -72.5 -103.5t-43.5 -181.5q-1 -8 2.5 -10t11.5 1q34 10 96 34.5t108 40t69 15.5q21 0 33.5 -5t27.5 -20q3 -3 6 -3q4 0 6 5q10 18 30 87.5t21 82.5q0 3 1.5 8t1.5 6q0 11 11 17t21 6t19 -8.5t9 -21.5q0 -4 -6.5 -15.5t-8.5 -22.5
q-2 -8 -17.5 -52t-35 -98t-25.5 -73q-1 -3 -9.5 -30t-14.5 -46.5t-11.5 -46t-5.5 -41.5q0 -10 10 -10q3 0 8 2t7 2q16 0 16 -11q0 -34 -30 -40q-3 0 -8.5 -3.5t-8.5 -3.5q-13 0 -21.5 11t-8.5 30q0 24 14.5 80.5t14.5 59.5q0 6 4 16q4 11 1 13q-4 2 -9 -7q-4 -7 -14.5 -25.5
t-18 -31t-24 -35t-37.5 -45.5q-2 -2 -14 -10t-15 -14q-47 -63 -104 -63q-7 0 -18 13t-11 27q0 66 45.5 133t116.5 124q11 9 1 12q-6 1 -14 -2q-16 -6 -38.5 -15.5t-38 -16.5t-19.5 -8q-9 -4 -24.5 -5t-18.5 -3q-3 -1 -9 -6t-9 -6q-7 -4 -16 -8.5t-20 -9.5t-16 -8
q-26 -15 -27 -33q-7 -114 -33 -243t-50 -173q-29 -58 -47 -58zM319 3q108 83 178 198q21 30 21 39q0 7 -6 12.5t-16 5.5q-21 0 -66 -41.5t-84 -103t-39 -106.5q0 -14 12 -4z" />
    <glyph glyph-name="fe" unicode="fe" horiz-adv-x="415" 
d="M12 -327q-6 0 -6 14q0 2 7 15t13.5 32t6.5 35q0 56 5.5 112.5t11.5 93.5t17.5 99t17.5 98q4 21 -16 12q-5 -2 -14.5 -6t-12.5 -6q-15 -11 -23 -11q-11 0 -19 8t-8 20q0 19 8 32q7 5 19 5q18 0 59 9q18 4 23 22q27 120 85 196t143 76q19 0 41 -21l21 -20q9 -3 9 -19
t-15 -16q-11 0 -17 17q-7 16 -48 16q-48 0 -98 -60.5t-74 -149.5q-5 -19 10 -19q7 0 115.5 27.5t137.5 27.5q12 0 23.5 -9t11.5 -21q0 -38 -34 -74.5t-127 -93.5q-25 -14 -36 -40q-22 -49 -22 -68q0 -18 10.5 -31.5t23.5 -13.5q21 0 53 20.5t36 20.5t11 5t12 5q20 0 20 -15
q0 -10 -21 -15q-1 0 -46 -29t-74 -29q-27 0 -46.5 23.5t-19.5 49.5q0 54 46 143q29 56 68 99q4 5 5 8.5t-2 5t-10 1.5q-98 -11 -137 -32q-24 -16 -27 -35q-2 -8 -10.5 -49t-15.5 -76.5t-15.5 -82t-13 -90t-4.5 -76.5q0 -35 -13 -74.5t-31 -57.5q-8 -8 -14 -8zM302 171
q5 -3 13 2q76 55 76 76q0 7 -9 7q-20 0 -74 -72q-10 -9 -6 -13z" />
    <glyph glyph-name="fg" unicode="fg" horiz-adv-x="533" 
d="M275 -332q-5 0 -23.5 17t-20.5 17q-16 3 -19.5 6t-3.5 13v6t0.5 3.5t2.5 3t4.5 1t8.5 0.5q3 0 20 -9.5t37 -9.5q22 0 51 33.5t56.5 93t46.5 156.5t19 208q0 10 -5 10q-4 0 -7.5 -4t-8 -11t-9.5 -12q-4 -4 -40.5 -63.5t-57.5 -84.5q-50 -60 -93 -60q-12 0 -26.5 9
t-14.5 24q0 37 37.5 103t82.5 125q10 12 5 15t-18 0q-43 -9 -128 -34q-24 -8 -26 -33q-6 -87 -28.5 -202t-44.5 -187q-8 -25 -19 -48q-3 -4 -8 -9.5t-7 -9.5q-23 -38 -32 -38q-8 1 -7 8.5t10 26.5q31 74 61.5 231.5t32.5 228.5q0 16 -16 16q-8 0 -13.5 -3t-10.5 -8t-9 -7
q-24 -13 -33 -13q-29 0 -29 27q0 5 4.5 9.5t4.5 10.5q0 3 11.5 5.5t17.5 2.5q9 0 24.5 9t26.5 10q29 4 31 26q16 178 79 268.5t163 90.5q2 0 11 -3.5t16 -3.5q12 0 22.5 -6t10.5 -12q0 -5 -5.5 -12t-16.5 -7q-58 0 -76.5 -3t-33.5 -16q-39 -34 -77 -109.5t-46 -185.5
q-1 -8 2.5 -10t15.5 -1q113 11 142 17q20 3 53.5 16t40.5 13q12 0 23 -12t11 -27q0 -2 2 -2.5t4.5 0.5t3.5 3q5 6 25 6q6 0 13 -7t7 -15q0 -13 -3.5 -23t-3.5 -23q0 -101 -27 -209q-1 -3 -8.5 -12.5t-7.5 -11.5q-2 -8 -5 -34t-6 -36q-32 -120 -79.5 -181t-86.5 -61zM247 28
q5 0 15 8.5t23.5 23t27 30.5t29 35.5t26.5 33.5t22 28.5t13 16.5q24 29 24 39q0 5 -8 5q-6 0 -13.5 6.5t-12.5 6.5q-15 0 -33 -18q-35 -38 -79 -113t-44 -88q0 -14 10 -14z" />
    <glyph glyph-name="fh" unicode="fh" horiz-adv-x="478" 
d="M3 -296q-6 0 -6 14q0 2 2.5 7t6.5 16.5t6 27.5q15 129 69 463q4 22 -16 11q-5 -2 -20 -8.5t-18 -8.5q-17 -12 -23 -12q-11 0 -19 8.5t-8 20.5q0 8 8 21q7 5 19 5q11 0 68 19q20 9 25 29q13 61 30 105t43.5 82.5t66 58t90.5 19.5q33 0 33 -12q0 -3 -4.5 -7.5t-5.5 -9.5
t-12.5 -9.5t-19.5 -4.5q-121 0 -174 -203q-3 -10 -1.5 -15.5t10.5 -3.5q14 4 29.5 14.5t31.5 25t23 19.5q35 25 42 25q28 0 28 -32q0 -7 -6 -34.5t-14.5 -79.5t-13.5 -113q-1 -5 -0.5 -8t3 -1.5t5.5 7.5q2 3 22 44t23 45q1 2 7 8t8 9q7 11 9.5 14.5t8.5 11t12.5 10t14.5 2.5
q11 0 18.5 -9.5t7.5 -26.5q0 -97 34 -230q0 -1 4 -6.5t7.5 -12t3.5 -10.5q0 -38 -26 -38q-12 0 -23 37q-9 30 -22 102t-13 97q0 28 -14 28q-8 0 -13 -10q-41 -54 -69 -136q-1 -3 -3 -7l-3.5 -7t-1.5 -6t-3 -15t-6 -35.5t-3 -53.5q0 -6 -3.5 -14t-3.5 -12q0 -5 -5.5 -11
t-11.5 -6q-13 0 -20.5 15.5t-7.5 32.5q0 9 5 29q14 47 31 154.5t17 215.5q0 4 -3.5 6.5t-7.5 0.5q-11 -6 -47.5 -36t-51.5 -39q-22 -13 -27 -35q-33 -131 -57 -322q-7 -49 -7 -50q0 -52 -39 -155q-2 -5 -8.5 -10t-10.5 -5z" />
    <glyph glyph-name="fj" unicode="fj" horiz-adv-x="335" 
d="M275 372q-10 0 -22 7.5t-12 20.5q0 10 16.5 23t33.5 13q12 0 19 -13t7 -22q0 -15 -14 -22t-28 -7zM15 -317q-6 0 -6 14q0 2 8 18.5t16 38.5t8 38q0 237 28 410q2 11 -2.5 13.5t-12.5 -2.5q-5 -2 -17 -9.5t-21.5 -13t-14.5 -5.5q-4 0 -13 11q-11 11 -11 17q0 21 25 27
t58 18q20 8 25 29q28 123 80 205t119 82q14 0 22.5 -9.5t8.5 -19.5q0 -3 -9.5 -6t-10.5 -8q-1 -6 -5.5 -11t-10.5 -5q-2 0 -8.5 -2.5t-11.5 -2.5q-36 0 -70 -59t-57 -145q-3 -10 -1.5 -15.5t11.5 -3.5q131 25 133 25q5 0 14 2.5t13 2.5q16 0 16 -40q0 -151 -17.5 -261
t-46 -164.5t-57 -78.5t-58.5 -24q-25 0 -39 10t-14 22q0 4 4 4l4 -1h6q7 0 7 6q0 5 17 6q150 9 155 308q1 5 -3.5 22.5t-4.5 22.5q0 2 2 52.5t2 73.5q0 13 -14 11q-61 -10 -120 -35q-20 -8 -28 -35q-34 -136 -34 -329q0 -3 -6 -39.5t-6 -64.5q0 -5 -7 -19t-7 -19
q0 -13 -5 -26.5t-10.5 -21t-8.5 -7.5t-7 -3.5t-7 -3.5z" />
    <glyph glyph-name="fk" unicode="fk" horiz-adv-x="488" 
d="M252 334q-24 -15 -46 -34t-52 -36q-22 -15 -27 -35q-16 -64 -29 -156t-13 -129q0 -33 -14.5 -107t-14.5 -108q0 -16 -6 -25.5t-6 -12.5q0 -4 -5 -8t-10 -4t-5 13l4 18q5 17 10.5 60.5t8.5 102.5q7 162 33 322q4 21 -16 12q-8 -4 -15.5 -13t-11.5 -9q-11 -5 -28 -5
q-26 0 -26 15q0 10 9 20.5t21 12.5q14 2 57 24q20 9 26 28q30 134 89 204t127 70q24 0 33 -9q1 -1 4 -3t5 -3.5t3 -4.5t1 -6q-1 -6 -13 -11t-22 -5q-36 0 -56 -7q-31 -10 -68 -60.5t-53 -126.5q-1 -5 -1 -8.5t0.5 -7.5t3 -4t6.5 1q17 8 70 55.5t71 47.5q3 0 5.5 -1t4 -2.5
t3 -3.5t3.5 -3q20 -16 20 -25q0 -12 -9 -30t-12 -31q-20 -83 -20 -154q0 -9 4 -9t11 4q43 44 96 90q4 4 9 10t9.5 9t11.5 3q27 0 27 -20q0 -11 -15 -24q-2 -2 -20 -15t-22 -17q-3 -3 -17.5 -13.5t-23.5 -18.5t-24.5 -23.5t-29.5 -32.5q-10 -12 -10 -17q0 -9 18 -14
q106 -37 160 -45q2 0 8 -0.5t7.5 -1l6 -2t5.5 -3.5t2.5 -6t1.5 -9q0 -21 -28 -21q-3 0 -13 2.5t-16 3.5q-24 3 -69 22t-60 21h-7.5t-6 -0.5t-4.5 -0.5q-11 0 -11 -15q0 -7 -1.5 -43.5t-1.5 -47.5q0 -7 -4 -20t-4 -21q0 -5 1 -17.5t1 -21.5q0 -3 -5 -7t-7 -4q-4 0 -8.5 7
t-4.5 16q0 13 1 23.5t1 15.5q0 12 -0.5 66.5t-0.5 65.5q0 20 -12 24q-14 3 -14 22q0 11 13 22q10 10 10 27q0 9 6.5 100t6.5 109q0 9 -5 11.5t-11 -2.5z" />
    <glyph glyph-name="fm" unicode="fm" horiz-adv-x="726" 
d="M36 -358q-8 1 -7 8.5t10 27.5q41 94 58 194q1 4 1 32.5t1 32.5q21 150 22 210q0 16 -14 9q-21 -10 -52 -34q-3 -3 -8.5 -7.5t-8.5 -7t-8 -4.5t-11 -2q-28 0 -28 26q0 6 4 10.5t4 9.5q0 3 7 11t12 8q10 0 35.5 15t41.5 21q12 5 23.5 15.5t12.5 20.5q19 139 79.5 234
t110.5 95q9 0 22 -1t17 -1q25 0 25 -15q0 -4 -8 -11.5t-14 -7.5q-10 0 -32 -10t-36 -23q-35 -31 -72.5 -99t-42.5 -144q-1 -8 3 -10t10 1q22 9 53.5 26t52.5 28t29 11q14 0 26 -8t12 -15q0 -25 -5 -38q-2 -8 -15.5 -44t-22 -67t-12.5 -61q0 -16 1 -16q3 0 9 7q20 20 21 23
q5 11 34 36q5 5 14 16l8 10q2 2 5.5 8.5t9.5 14.5t14 15q13 12 35.5 35.5t36 34t24.5 10.5q13 0 13 -33q0 -13 -8 -68.5t-8 -60.5q0 -1 1 -3t4 -2t6 4q9 9 16 18q2 2 4.5 6t5.5 6q2 2 7 7.5t6 7.5q7 9 24 23q52 40 75 40q5 0 10 -10t6 -17q6 -34 6 -139q0 -51 -16 -51
q-19 0 -25 6.5t-6 27.5q0 70 -6 110q-1 9 -10 9q-11 0 -30.5 -20t-59.5 -71q-4 -5 -12 -15.5t-12 -15t-11 -13t-11 -12.5t-9.5 -8.5t-9.5 -6.5t-7 -2q-16 0 -16 36q0 15 17 84t18 83q0 6 -4 6q-3 0 -4 -2q-14 -13 -53 -64q-3 -4 -17 -20.5t-17 -22.5q-7 -9 -19.5 -22.5
t-16.5 -19.5q-7 -10 -18.5 -25.5t-17 -22.5t-13.5 -15.5t-14.5 -12t-13.5 -3.5q-19 0 -19 27q0 16 13 55q37 178 37 194q0 15 -11 10q-57 -26 -105 -53q-25 -15 -26 -33q-9 -122 -35 -274.5t-48 -193.5q-3 -7 -10 -16.5t-9 -13.5q-17 -28 -28 -28z" />
    <glyph glyph-name="fn" unicode="fn" horiz-adv-x="558" 
d="M36 -306q-8 1 -7 9t10 27q21 48 47 205q0 4 1 32.5t1 32.5q13 87 15 175q0 16 -14 10q-13 -6 -23 -12t-14 -8.5t-11 -4.5t-17 -2q-31 0 -31 18q0 6 4 10.5t4 9.5q0 4 7 11.5t12 7.5q8 0 18 2.5t25.5 8t21.5 7.5q23 9 25 26q10 70 34.5 129.5t54 95t59 55t53.5 19.5
q10 0 15 -3t9 -4q38 -7 38 -22q0 -3 -6 -7t-14 -4q-24 0 -53.5 -13t-60 -39.5t-53 -76.5t-27.5 -113q-1 -8 2.5 -10t10.5 1q10 3 36 10.5t39 11.5q3 1 13 7t13 7q26 8 34 8q4 0 7.5 -2t8 -6.5t6.5 -5.5q11 -14 11 -28q0 -2 0.5 -11.5t0.5 -15.5q0 -4 -5.5 -16t-6.5 -20
q-15 -69 -15 -94q0 -1 1 -3t4 -2t7 4q1 1 24 31.5t50 62.5t45 47q5 4 13 11t11.5 9.5t10 4.5t14.5 2t15.5 -13t8.5 -21q2 -11 4.5 -95t2.5 -111q0 -5 4.5 -16t4.5 -17t-9.5 -12.5t-15.5 -6.5q-8 0 -12.5 2.5t-5.5 4.5t-3 8q0 1 -5 7.5t-5 11.5q0 130 -7 177q-1 10 -10 10
q-8 0 -36 -31q-2 -2 -15 -8.5t-15 -9.5q-13 -15 -32 -47.5t-31 -47.5q-3 -4 -9 -11q-48 -58 -63 -61q-15 0 -15 35q0 15 17.5 116.5t18.5 114.5q0 10 -12 6q-44 -12 -98 -42q-20 -12 -24 -33q-1 -5 -9 -101q-1 -8 -5.5 -27.5t-5.5 -25.5q-21 -240 -44 -283l-11 -16.5
t-8 -12.5q-18 -29 -28 -29z" />
    <glyph glyph-name="fo" unicode="fo" horiz-adv-x="370" 
d="M37 -340q-9 0 -9 10q0 1 1.5 5t3.5 10t3 12q0 4 -0.5 11t0.5 14q0 6 1.5 28t1.5 33q0 85 12 220.5t25 215.5q1 5 -1 7t-7 1q-36 -7 -52 -20q-3 -2 -9.5 -12t-12.5 -10q-21 0 -27 12q-1 3 -4.5 10t-3.5 11q0 15 12 29q5 6 16.5 7.5t16.5 3.5q10 4 38 10t39 9q8 3 9 11
q21 91 71.5 183t83.5 92q4 0 10.5 -4.5t9.5 -4.5q7 0 13 -5.5t6 -10.5q0 -3 -1 -5t-2.5 -3t-4.5 -2.5t-4 -2.5l-7 -4q-7 -4 -11 -4t-7.5 -4t-8 -10t-7.5 -9q-56 -49 -93 -195q-1 -3 0 -5t5 -1q57 7 100 23t58 16q30 0 36 -14q6 -17 13 -17q40 0 40 -68q0 -32 -31.5 -95
t-71 -113.5t-59.5 -50.5q-43 0 -43 60q0 15 24.5 102t42.5 122q3 2 1.5 10t-9.5 8q-3 0 -18 -4t-41 -10.5t-51 -11.5q-8 -1 -12 -14q-25 -114 -30 -189q-4 -56 -4 -134q0 -15 -5 -37t-5 -42q0 -45 -4.5 -79t-10 -48.5t-11 -25t-5.5 -12.5q-1 -9 -10 -9zM236 28q20 0 64 84
t44 117q0 8 -3 12t-6 5t-9 1t-12 4t-7 4q-3 0 -6.5 -4t-5.5 -4q-15 -3 -43 -90.5t-28 -111.5q0 -9 1.5 -12.5t3.5 -4t7 -0.5z" />
    <glyph glyph-name="fp" unicode="fp" horiz-adv-x="501" 
d="M-9 -327q-6 0 -6 14q0 2 11 19.5t23 44.5t14 49q14 166 55 415q4 21 -16 12q-5 -2 -14.5 -6t-12.5 -6q-15 -11 -23 -11q-11 0 -19 8t-8 20q0 9 7.5 16t15.5 7q9 0 27 9.5t36 13.5t23 22q27 119 83.5 190t141.5 71q11 0 20 -4t17 -10.5t11 -7.5q17 -10 17 -21
q0 -17 -15 -17q-16 0 -20 11q-2 6 -39 6q-48 0 -97 -55.5t-72 -143.5q-5 -19 10 -19q29 0 62.5 18t44.5 18q4 0 9.5 -2.5t11.5 -3.5q7 -1 14 -15.5t7 -23.5q0 -7 -6 -21.5t-7 -21.5l-7 -40q-7 -40 -10.5 -64t-7.5 -69.5t-4 -87.5q0 -14 4 -14q2 0 5 12q2 7 8 25.5t8 29.5
q4 15 16.5 46t13.5 36q27 91 54 134t71 43q18 0 32.5 -17t14.5 -45q0 -39 -22 -93.5t-55.5 -95.5t-62.5 -41q-8 0 -18 2q-7 5 -8 5q-5 0 -6 -5q-15 -32 -34 -95t-19 -103q0 -32 -10 -37l-6 -4q-5 -5 -9.5 -7t-10.5 -2q-16 0 -16 31q0 18 17.5 225.5t17.5 255.5q0 14 -14 14
q-39 0 -79 -22q-25 -16 -28 -35q-31 -156 -62 -385q-14 -113 -65 -164q-8 -8 -14 -8zM368 55q17 0 35 28q1 2 7.5 7t8.5 8q36 61 36 126q0 32 -16 32q-36 0 -95 -175q-2 -3 -2 -9.5t5 -6.5q4 0 8.5 -5t12.5 -5z" />
    <glyph glyph-name="fq" unicode="fq" horiz-adv-x="495" 
d="M82 -353q-5 0 -5 14q0 2 3 19.5t6 41t3 39.5q0 200 36 422q4 22 -16 11q-7 -4 -19 -12.5t-16 -9.5q-7 -2 -14.5 -10.5t-9.5 -8.5q-10 0 -20 -9t-16 -9q-11 0 -18 8t-7 20q0 13 30 32q28 18 97 44q20 9 25 29q27 121 68.5 186t108.5 65q15 0 25.5 -7.5t10.5 -15.5
q0 -3 -5 -7.5t-6 -9.5q-2 -17 -15 -17q-3 0 -9.5 -2t-10.5 -2q-76 0 -120 -171q-3 -10 -1.5 -15.5t10.5 -3.5q10 3 39 12.5t52 14t49 4.5q58 0 81 -59q2 -6 5 -6t6 4q8 9 29 9q26 0 26 -25q0 -6 -5.5 -21t-13.5 -44.5t-16 -74t-14.5 -126.5t-8.5 -185q0 -6 3 -15.5t3 -13.5
q0 -22 -5.5 -31t-24.5 -9q-24 0 -24 37q0 6 1.5 18.5t1.5 14.5q0 8 3 25t3 21q1 17 3 55t3 53.5l3 46.5t3.5 46t3.5 38.5t4.5 38.5t5.5 32t7 32q3 9 -1 9q-2 -1 -9 -8q-13 -10 -17 -16q-16 -24 -29 -49q-1 -3 -4 -14.5t-7 -17.5q-39 -50 -54 -65.5t-29 -15.5q-26 0 -41 22.5
t-15 54.5q0 35 29.5 95t68.5 97q7 6 6 11t-9 5q-13 0 -30.5 -4t-28.5 -8.5t-30.5 -13t-23.5 -10.5q-20 -9 -27 -35q-42 -166 -42 -392q0 -3 -5.5 -14.5t-5.5 -39.5q0 -5 2 -18.5t2 -19.5q0 -13 -5 -27t-10.5 -22.5t-7.5 -8.5q-4 0 -8 -4t-7 -4zM275 32q11 0 45 51
q28 36 30 40t11.5 15.5t11.5 15.5q3 5 10 21t13 22q2 2 2 6q0 6 -4 7q-12 4 -20 19.5t-17 15.5q-27 0 -64 -72t-37 -111q0 -30 19 -30z" />
    <glyph glyph-name="fr" unicode="fr" horiz-adv-x="457" 
d="M4 -303q-7 1 -6 8.5t9 26.5q31 72 55.5 221.5t26.5 227.5q0 15 -13 9q-11 -4 -23 -16q-22 -15 -36 -15q-11 0 -15.5 0.5t-9 5.5t-4.5 15q0 5 4.5 9.5t4.5 10.5q0 3 5.5 6.5t11.5 3.5q15 0 33 12q3 2 12 7.5t13 7.5q25 13 28 35q11 88 38.5 152t62 94.5t65.5 44t60 13.5
q4 0 12 -7.5t13 -9.5q10 -5 17.5 -17.5t11.5 -13.5q25 -4 25 -15q0 -8 -7 -13t-15 -5q-24 0 -34 12q-10 13 -54 13q-53 0 -95.5 -57t-51.5 -174q-1 -9 2.5 -10.5t11.5 0.5q30 6 71 29t51 23q5 0 13.5 -5.5t9.5 -5.5q14 -9 14 -14q0 -12 -2 -20t-5.5 -16.5t-5.5 -17.5
q-8 -34 -19 -90t-11 -62q0 -12 6 -12q5 0 15 18q56 104 139 174q24 21 57 21q13 0 22 -12.5t11 -28.5q0 -3 3 -7.5t3 -9.5q0 -17 -11 -18q-3 0 -9 -5.5t-10 -5.5q-9 0 -20.5 9t-19.5 9q-19 0 -37 -11q-74 -51 -135 -180q-8 -18 -22 -38.5t-21 -20.5t-11 2.5t-11 2.5
q-16 0 -16 27q0 6 5 17t6 15q34 170 34 212q0 19 -6 19q-8 0 -38 -13.5t-51 -29.5q-26 -18 -27 -32q-15 -219 -62 -389q-4 -16 -17.5 -37t-13.5 -22q-1 -3 -2 -9t-2 -9q-19 -35 -28 -38q-2 -1 -5 -1z" />
    <glyph glyph-name="fs" unicode="fs" horiz-adv-x="393" 
d="M19 -306q-4 0 -5.5 2t-0.5 7t3 11t6 16q30 71 54.5 227t26.5 235q0 16 -16 16q-17 0 -40 -10q-6 -2 -16.5 -11.5t-18.5 -9.5q-29 0 -29 27q0 5 4.5 9.5t4.5 10.5q0 3 5.5 6.5t10.5 3.5q7 0 26.5 7t46.5 10q28 4 31 26q10 73 40.5 133t66.5 93.5t68.5 51t52.5 17.5
q1 0 10.5 -3.5t17.5 -3.5q12 0 22 -6t10 -12q0 -5 -5.5 -12t-16.5 -7q-84 0 -148 -74.5t-71 -175.5q-1 -8 2.5 -10t15.5 -1q82 10 94 12q13 3 40.5 12t41.5 9q10 0 22 -2q4 -1 7.5 -3t7.5 -5t6 -4q2 -2 6 -5.5t6 -6.5t2 -8q0 -10 -1 -13t-10.5 -6t-30.5 -3q-90 0 -90 -57
q0 -32 33 -125q5 -19 24 -6q13 9 19 9q2 0 5.5 -3t3.5 -5q0 -8 -7 -11q-3 -1 -7.5 -7.5t-7.5 -9.5q-17 -11 -17 -29q0 -33 -35.5 -62.5t-73.5 -29.5q-28 0 -43.5 10t-15.5 25q0 32 62 59q23 9 41 19q28 12 20 26q-2 6 -11 26.5t-14 34.5t-10 37t-5 44q0 20 10 42
q4 6 1.5 9.5t-14.5 2.5q-17 -3 -65 -19q-25 -10 -26 -33q-6 -98 -23.5 -213.5t-36.5 -178.5q-7 -22 -19 -47q-3 -5 -8 -10t-7 -9q-23 -39 -32 -39zM219 -57q19 0 41 16t26 39q0 8 -9 5q-28 -14 -31 -17q-40 -19 -40 -32q0 -4 4.5 -7.5t8.5 -3.5z" />
    <glyph glyph-name="ft" unicode="ft" horiz-adv-x="402" 
d="M51 -280q-13 0 -13 49q0 7 4 23t4 22q0 171 29 347q1 5 -1 6.5t-7 0.5q-21 -6 -30 -16q-20 -20 -32 -20q-5 0 -8.5 6.5t-4.5 6.5q-8 13 -8 24q0 25 9 25q8 0 15.5 3.5t16.5 3.5q10 0 18 2t21.5 8t15.5 7q8 4 9 11q21 91 51.5 161.5t60.5 110t63.5 64.5t57 33t42.5 8
q26 0 46 -5q24 -9 24 -25q0 -8 -47 -8q-9 0 -24 -8t-22 -8q-15 0 -30 -5.5t-38.5 -25t-45 -51.5t-46 -91.5t-44.5 -138.5q-2 -3 -1 -5t6 -1q23 5 136 43q9 2 10 11q4 21 10 47.5t9.5 42t3.5 17.5q0 3 0.5 11t0.5 10q0 30 17 30q42 0 42 -18q0 -4 -4.5 -13.5t-6.5 -15.5
q-1 -2 -4 -5q-14 -50 -14 -58v-28q2 -8 5.5 -9t12.5 3q54 19 76 19q26 0 26 -19q0 -9 -21 -13q-4 0 -7 -1h-12q-13 -1 -18 -3q-2 -1 -6 -4.5t-7 -4.5t-16 -9q-1 0 -4.5 -5t-6.5 -6q-2 -1 -9 -5t-8 -4q-14 -8 -24 -26q-15 -43 -15 -109q0 -10 -1 -35t-1 -32q0 -11 1.5 -29.5
t1.5 -27.5q0 -3 -3 -14.5t-3 -16.5q0 -28 -17 -28q-16 0 -24 14.5t-8 34.5q0 12 12.5 111t12.5 130q0 14 -11 14q-35 0 -135 -42q-9 -5 -12 -14q-12 -55 -18 -88.5t-11.5 -101t-5.5 -153.5q0 -32 -8.5 -58t-8.5 -35q0 -5 -5.5 -13t-12.5 -8z" />
    <glyph glyph-name="fu" unicode="fu" horiz-adv-x="547" 
d="M15 -337q-8 1 -7 8.5t10 27.5q31 72 57 241.5t28 266.5q0 16 -14 9q-9 -4 -22 -11t-21.5 -11t-15.5 -4q-31 0 -31 19q0 5 4 9.5t4 10.5q0 3 7 11t12 8q9 0 19 2t15.5 4.5t13.5 6t11 4.5q23 9 25 26q9 62 44 129q1 2 11.5 13t11.5 12q54 92 134 92q10 0 15 -3t9 -4
q38 -7 38 -22q0 -3 -6 -7t-14 -4q-27 0 -53.5 -6.5t-58 -24.5t-54 -58.5t-28.5 -99.5q-1 -9 2.5 -11t10.5 1q15 5 36 19t34 18q26 7 33 7q6 0 22 -13q14 -24 15 -35q0 -4 -6.5 -23.5t-7.5 -25.5q-5 -24 -9.5 -76.5t-4.5 -61.5q0 -1 0.5 -2.5t2 -3.5t3.5 -2t6 1q7 3 20 12
q2 2 13 6t13 6q33 30 82 128q2 4 5.5 10.5t4.5 8.5t4 5.5t5.5 4.5t6 2t9.5 1q2 0 8 -5t11 -5q8 0 14 -5t6 -9q0 -5 -1 -22.5t-1 -26.5q0 -33 2.5 -99.5t5.5 -72.5q1 -2 2 -7.5t3.5 -7.5t7.5 -2q15 0 15 -6q0 -3 -2.5 -8.5t-3.5 -9.5q-2 -6 -13.5 -14t-20.5 -8q-2 0 -8 4
t-8 4q-5 0 -9 2.5t-6 8t-2.5 9t-0.5 10.5l-1 7q-7 112 -7 177q0 16 -7 16q-9 0 -18 -19q-31 -69 -82 -120q-2 -2 -9.5 -12.5t-12.5 -14.5q-41 -35 -78 -35q-16 0 -16 35q0 8 5.5 39.5t11.5 85.5t6 117q0 9 -13 5q-7 -2 -14.5 -6t-22 -13t-28.5 -17q-23 -13 -25 -38
q-10 -149 -36 -302t-49 -198q-3 -7 -10 -16.5t-9 -13.5q-17 -28 -28 -28z" />
    <glyph glyph-name="fx" unicode="fx" horiz-adv-x="438" 
d="M140 203q-26 -17 -27 -33q-1 -21 -4 -73.5t-5 -80.5t-6 -68.5t-9.5 -71.5t-13.5 -56q-11 -30 -19 -47q-3 -4 -8 -9.5t-7 -9.5q-3 -4 -7.5 -11.5t-7 -11t-6 -8t-6.5 -6.5t-6 -2q-7 1 -6 9t10 27q52 123 59 410q0 15 -15 15q-20 0 -34.5 -8.5t-18.5 -8.5q-12 0 -20 10
q-8 8 -8 16q0 9 8 20q7 10 17 10q21 0 49 4q29 6 32 27q10 73 31.5 126.5t48.5 79t50.5 36.5t44.5 11q1 0 10.5 -4t17.5 -4q3 0 13.5 -8t17.5 -8q9 0 15.5 -5.5t6.5 -10.5t-4 -10t-11 -5q-2 0 -25 5q-10 3 -40 3q-46 0 -85.5 -58.5t-44.5 -136.5q-1 -8 2 -10t9 -1
q13 1 58 14t52 13q22 0 38 -17q0 -1 18.5 -25.5t26.5 -32.5q4 -4 10 -4q3 0 11 4q21 11 63 58q23 29 32 29q5 0 10 -4t6 -4q18 -5 18 -14q0 -14 -7 -25q-13 -13 -26 -13q-14 0 -36 -24q-35 -33 -38 -34q-9 -4 -9 -12q0 -3 6 -11q51 -73 64 -89q3 -5 7 -10t6 -8.5t2 -7.5
q0 -13 -4 -15q-13 -11 -18 -11q-9 0 -13 6t-5 15.5t-2 11.5q0 2 -4.5 5t-4.5 4q-5 12 -24.5 39.5t-35.5 44.5q-4 4 -15 4q-6 0 -12 -7q-2 -2 -18 -12.5t-19 -14.5q-6 -7 -21 -22.5t-22.5 -25.5t-7.5 -18q0 -11 -7 -18q-7 -9 -23 -9q-14 0 -14 28q0 3 10 23q7 11 34.5 34
t33.5 31q22 26 32 34q6 6 6 12q0 3 -4 9q-44 59 -69 59q-22 0 -83 -33z" />
    <glyph glyph-name="fy" unicode="fy" horiz-adv-x="506" 
d="M203 -359q-60 0 -77 21q-1 1 -2.5 4.5t-4 5t-9.5 1.5q-9 0 -9 7q0 19 12 19q5 0 28.5 -10t35.5 -10q117 0 226 279q25 56 47.5 141.5t22.5 104.5q0 17 -6 17q-2 0 -15 -10q-25 -14 -33 -29q-1 -3 -19 -23t-43 -51t-40 -57q-13 -20 -19 -28.5t-24 -21.5t-38 -13
q-24 0 -24 42q0 35 36 135t36 112t-21 7q-15 -4 -53 -23.5t-60 -36.5q-2 -2 -7 -5.5t-7 -6t-5.5 -6t-5 -7t-1.5 -8.5q-1 -14 -4 -61.5t-4.5 -70t-5 -65t-7 -69t-9 -58t-11.5 -54.5q-3 -12 -9 -23t-13.5 -21.5t-9.5 -14.5q-1 -3 -2 -9t-2 -9q-20 -39 -32 -39q-8 1 -7 8.5
t10 26.5q29 69 44 203t17 235q0 9 -3 10.5t-11 -0.5q-3 -1 -10 -5.5t-13 -7t-10 -2.5q-11 0 -21 6q-8 5 -8 15q0 12 9 20q10 10 16 10q16 0 34 11q24 13 27 34q23 174 93 250t165 76q4 0 12.5 -5t13.5 -6q39 -9 39 -33q0 -5 -5 -11t-11 -6q-24 0 -35 13q-6 4 -10 2t-15 -6.5
t-20 -4.5q-64 0 -117 -66.5t-61 -185.5q-1 -8 2.5 -9.5t10.5 0.5q31 6 90.5 35.5t68.5 29.5q35 0 35 -37q0 -20 -7 -40q-2 -4 -7.5 -12.5t-7.5 -12.5q-50 -118 -54 -174q0 -8 2.5 -11t6 -1t6.5 7q6 10 122 168q4 5 17 13.5t16 15.5q4 10 9 15.5t11 9.5t8 6q8 9 25 9
q12 0 20 -11t8 -29q0 -41 -25 -124q-60 -187 -111.5 -296t-93 -149t-87.5 -40z" />
    <glyph glyph-name="ga" unicode="ga" horiz-adv-x="704" 
d="M193 -324q-17 0 -28 12.5t-11 36.5q0 81 85 217q10 17 12 44q0 8 7.5 88t7.5 132q0 9 -7 9q-3 0 -6 -7q-53 -108 -109.5 -174t-102.5 -66q-17 0 -29 13.5t-12 39.5q0 32 43 110t101 146t92 68q36 0 36 -36q0 -2 3.5 -5.5t5.5 -3.5q10 0 18 -7.5t8 -21.5q0 -50 -7 -134
l-7 -84q0 -12 4 -15t10 4q51 70 103 134q109 139 163 139q17 0 29.5 -14t12.5 -32q0 -10 10 -10q30 0 30 -31q0 -207 8 -225q2 -6 6 -8t4 -8q0 -7 -10.5 -16t-21.5 -9q-16 0 -21 16.5t-9 64.5q-1 14 -1 35.5t0.5 49t0.5 39.5t-5 12q-3 0 -11 -7q-2 -4 -13.5 -18.5
t-14.5 -19.5q-8 -14 -22.5 -36t-33 -47.5t-24.5 -35.5q-20 -31 -43 -48t-41 -17q-45 0 -45 55q0 30 25 84q6 13 2 15q-3 2 -10 -5q-41 -48 -78 -104q-7 -12 -9 -43q-5 -129 -31 -202.5t-64 -73.5zM66 28q35 0 82 71t70 131q7 17 25 27q2 1 2 9q0 4 -4 7.5t-8 3.5
q-1 0 -5.5 4.5t-9.5 4.5q-23 0 -94 -103.5t-71 -138.5q0 -16 13 -16zM410 1q5 -2 10 2q7 4 16 12.5t20 22t20.5 25t23.5 31t22 30.5t23 32.5t21 29.5l7 14t10 17q7 11 -4 11t-11 10q0 20 -16 20q-14 0 -50 -39t-69 -98.5t-33 -103.5q0 -12 10 -16zM203 -274q4 0 10 9
t15.5 41.5t14.5 81.5q1 13 -5 13q-2 0 -7 -11q-36 -92 -36 -121q0 -13 8 -13z" />
    <glyph glyph-name="gb" unicode="gb" horiz-adv-x="642" 
d="M158 -303q-17 0 -28 12.5t-11 36.5q0 64 95 245q10 15 12 41q0 9 1 29.5t2 33.5q1 17 4.5 46t3.5 34q0 10 -4 10q-5 0 -8 -8q-119 -219 -199 -219q-17 0 -29 13.5t-12 39.5q0 32 43 110t101 146t93 68t35 -37q0 -2 4 -5t6 -3q9 0 17 -8t8 -22q0 -10 -11 -68t-11 -79
q0 -6 2.5 -7.5t6.5 4.5q17 31 65.5 101t66.5 105q5 11 8 27t3.5 24t-0.5 31v23q0 14 13 19q2 1 8.5 6.5t11.5 5.5q30 0 30 -24q0 -13 -1 -22q0 -2 -2.5 -11.5t-3.5 -13.5q-6 -40 -23.5 -111.5t-18.5 -77.5l-3 -24q9 -6 27 26q2 4 9 10.5t7 7.5q14 16 41 43.5t28 28.5
q31 29 54 29q24 0 37 -20.5t13 -45.5q0 -54 -32 -123t-84 -120.5t-101 -51.5q-11 0 -17.5 6t-17.5 24q-8 9 -14 12q-21 10 -21 28q0 14 6.5 33.5t9.5 34.5q4 28 29 147q2 8 -2 8t-8 -8q-9 -17 -56 -80t-65 -100q-10 -23 -15 -58q-9 -117 -24 -184.5t-33.5 -92.5t-45.5 -25z
M51 18q47 0 177 229q2 3 2 8q0 4 -3.5 8t-8.5 4q-2 0 -6 4t-8 4q-23 0 -94.5 -103t-71.5 -138q0 -16 13 -16zM454 1q46 0 99 86.5t53 147.5q0 29 -16 29q-30 0 -91.5 -68t-73.5 -113q-4 -16 -4 -63q0 -7 9 -13t24 -6zM180 -228q20 0 34 131q2 14 -2 14q-3 0 -7 -10
q-33 -82 -33 -122q0 -13 8 -13z" />
    <glyph glyph-name="gc" unicode="gc" horiz-adv-x="600" 
d="M185 -343q-14 0 -14 15q0 17 23.5 111.5t44.5 148.5q10 24 15 75q2 23 8 78t6 69q0 10 -4 10q-6 0 -9 -8q-11 -20 -69 -84q-2 -2 -11.5 -6.5t-11.5 -6.5q-80 -80 -127 -80q-17 0 -29 13.5t-12 39.5q0 31 46.5 98.5t107.5 123.5t96 56q43 0 43 -33q0 -8 11 -12
q19 -9 19 -33q0 -11 -12.5 -86t-12.5 -92q0 -10 5 -9q4 0 10 10q33 61 90 126t99 96q69 53 111 53q13 0 25.5 -8t12.5 -16q0 -15 -17 -15q-5 0 -12 -5t-15 -5q-50 0 -103.5 -70.5t-53.5 -155.5q0 -27 9 -38t29 -11q26 0 59 33q6 6 14 16q4 6 13.5 3t9.5 -13q0 -3 -6 -9
q-3 -3 -5.5 -4t-4 -2.5t-2.5 -6.5q-1 -2 -6.5 -10t-6.5 -10q-7 -14 -27 -28t-53 -14t-50.5 26t-17.5 63q0 59 34 122q4 9 -1 8q-1 0 -2 -1q-2 -3 -20.5 -23.5t-35 -40t-38 -51.5t-34.5 -63q-2 -5 -8 -19t-10.5 -25.5t-5.5 -20.5q-18 -124 -44 -201.5t-50 -77.5zM61 39
q13 0 30 7t43 24.5t59 58t65 97.5q2 3 2 8q0 4 -3.5 8t-7.5 4q-1 0 -5.5 4t-9.5 4q-25 0 -106 -83t-81 -116q0 -16 14 -16z" />
    <glyph glyph-name="gd" unicode="gd" horiz-adv-x="655" 
d="M167 -314q-17 0 -28 12.5t-11 36.5q0 42 116 224q13 22 16 46q12 76 12 234q0 10 -4 10q-6 0 -9 -7q-48 -91 -114.5 -168.5t-115.5 -77.5q-32 0 -32 44q0 32 43.5 112t102 149.5t92.5 69.5q14 0 21.5 -9t14.5 -28q2 -5 13 -5q28 0 28 -36q0 -102 -9 -230q-1 -13 2 -15
t10 9q61 78 100 125q110 133 152 133q26 0 33 -25q1 -3 6 -3q6 0 11 9q10 17 19 51.5t10 48.5q0 3 1 8t1 7q0 10 11 16t21 6t17 -9t7 -22q0 -12 -10 -39.5t-28 -71.5t-28 -73q-6 -19 -11 -72.5t-5 -88.5q0 -4 3 -20t3 -21q0 -19 -23 -19q-15 0 -21 10t-6 47q0 3 2.5 15.5
t2.5 17.5q1 11 2.5 31t3 34.5t1.5 18.5q0 7 4 17q5 11 1 13q-3 2 -9 -8q-89 -145 -113 -173q-39 -48 -82 -48q-54 0 -54 49q0 14 6 30q4 9 0 11q-2 1 -6 -3q-25 -31 -26 -33q-13 -17 -16 -43q-18 -150 -51.5 -223.5t-76.5 -73.5zM61 55q22 0 72 59.5t115 174.5q2 3 2 8
q0 4 -3.5 8t-8.5 4q-2 0 -6 4t-8 4q-23 0 -99 -112t-76 -142q0 -2 3 -4t6 -3zM394 21q34 0 74 49t96 141q21 33 21 40t-6 12.5t-16 5.5q-32 0 -106.5 -93t-74.5 -142q0 -13 12 -13zM180 -268q3 0 13 16t25 55t25 87q3 13 -1 13t-10 -9q-60 -104 -60 -149q0 -13 8 -13z" />
    <glyph glyph-name="gf" unicode="gf" horiz-adv-x="555" 
d="M402 -355q-11 0 -11 10q0 4 6 22t12 46.5t6 60.5q0 100 12 242t26 219q1 5 0 7t-3 0.5t-5 -5.5q-1 -1 -70 -111t-86 -150q-1 -2 -9.5 -20t-10.5 -30q-17 -117 -34 -160.5t-40 -43.5q-7 0 -12 10t-5 24q0 9 1.5 19.5t2.5 18.5t5 21.5t6.5 21t8.5 24.5t8.5 24t10.5 28
t11 28q5 14 8 41q2 25 9.5 86.5t7.5 75.5q0 10 -4 10q-5 0 -8 -8q-34 -63 -91.5 -112.5t-107.5 -49.5q-41 0 -41 44q0 33 47 100t102.5 119.5t79.5 52.5q37 0 37 -35q0 -8 4.5 -12.5t9.5 -4.5q7 0 12.5 -9t5.5 -22q0 -1 -5.5 -22.5t-10.5 -63t-5 -92.5q0 -8 4 -9t10 10
q18 33 68.5 105.5t51.5 73.5q6 10 -3 10q-6 0 -11 -5q-1 -1 -5 -3t-5 -4q-5 -13 -21 -13q-5 0 -12.5 5.5t-7.5 8.5t-4 5.5t-4 5.5q0 11 7 16.5t16.5 8.5t10.5 4q9 10 37.5 23t44.5 18q7 3 9 10q9 41 40.5 101.5t64.5 105.5q3 4 10.5 9t9.5 8q24 32 36 32q32 0 32 -30
q0 -11 -7.5 -21t-23.5 -26.5t-26 -28.5q-50 -61 -59 -75q-23 -35 -29 -63q-1 -3 0 -6t5 -1q9 5 53.5 17.5t71.5 18.5q4 0 8.5 3t8.5 3q16 0 16 -13q0 -10 -15 -10t-21 -1q-75 -14 -129 -57q-12 -10 -14 -17q-51 -231 -51 -486q0 -7 -3.5 -24.5t-3.5 -22.5q-3 -47 -26 -76
q-9 -14 -14 -14zM76 38q65 0 172 188q2 3 2 8q0 4 -3.5 8t-8.5 4q-2 0 -6 4t-8 4q-24 0 -93 -83t-69 -117q0 -16 14 -16z" />
    <glyph glyph-name="gg" unicode="gg" horiz-adv-x="670" 
d="M168 -363q-17 0 -28 12.5t-11 36.5q0 37 23.5 102t72.5 144q9 16 11 44q7 131 7 226q0 8 -6 8q-3 0 -9 -6q-13 -21 -43 -84q-21 -41 -32.5 -61.5t-31 -49t-40 -41t-42.5 -12.5q-37 0 -37 46q0 39 40 118t96.5 145.5t93.5 66.5q24 0 24 -33q0 -5 4 -5q16 0 20 -10t4 -34
q0 -3 -1.5 -44.5t-3 -91.5t-1.5 -72q0 -8 2 -12t5.5 -3.5t6.5 5.5q123 165 169 215q59 64 98 64q12 0 23 -12t11 -27q0 -12 17 -12q15 0 25.5 -7t10.5 -15q0 -12 -2.5 -28t-2.5 -36q0 -127 -23.5 -231t-59 -164t-73.5 -92t-71 -32q-28 0 -43 10.5t-15 25.5q0 16 11 26.5
t26 10.5q6 0 14 -5t9 -5q2 0 7 -9q5 -8 18 -8q19 0 39 16t42 54t39 94t28 144.5t11 195.5q0 10 -5 10q-3 0 -5 -1t-4.5 -3.5t-4 -4.5t-5 -8t-6.5 -10l-10 -14q-9 -14 -15.5 -23.5t-19.5 -27.5t-23 -30.5t-24.5 -28t-26 -25t-24 -16t-22.5 -6.5q-16 0 -25.5 10.5t-9.5 28.5
q0 23 10 45q6 11 2 15q-3 1 -10 -6q-35 -39 -90 -126q-7 -11 -9 -43q-19 -304 -105 -304zM419 63q21 0 130 139q24 27 24 38q0 6 -8 6q-6 0 -12 3t-11 3q-23 0 -39 -17q-35 -37 -66 -90.5t-31 -66.5q0 -15 13 -15zM71 20q13 0 37.5 28t54.5 87q60 116 63 120q3 5 0 9
q-3 2 -5 6.5t-7 4.5q-20 0 -58 -48.5t-67.5 -107t-29.5 -85.5q0 -14 12 -14zM186 -305q3 0 10 14.5t17 52t15 86.5q2 12 -4 12q-3 0 -8 -10q-15 -38 -26 -82t-11 -60q0 -13 7 -13z" />
    <glyph glyph-name="gh" unicode="gh" horiz-adv-x="692" 
d="M172 -360q-24 0 -24 51q0 35 23 112t59 150q3 6 5.5 17t4.5 23t3 16q5 26 9 88t4 85q0 9 -4 9q-1 0 -8 -7q-23 -27 -52.5 -69t-46 -63.5t-44 -39t-60.5 -17.5q-18 0 -30 13.5t-12 39.5q0 32 43.5 98t101.5 120.5t94 54.5q37 0 37 -37q0 -3 10 -10q17 -7 17 -26
q0 -11 -7 -72.5t-7 -82.5q0 -6 3 -7.5t6 4.5q54 112 140 344q5 15 11.5 21t21.5 6q5 0 19 -14q19 -9 19 -16q0 -14 -3 -28t-9 -35t-8 -29q-5 -23 -10 -98t-5 -102q0 -6 1 -8.5t3 -1t4 7.5q11 39 36 79q44 78 77 78q25 0 27 -37q4 -80 42 -208q0 -1 7 -13q7 -10 7 -16t8 -6
q5 0 5 -7q0 -5 -5 -13.5t-12 -8.5q-4 0 -12 -2.5t-11 -2.5q-12 0 -23 39q-23 77 -38 189q-4 29 -14 29q-3 0 -14 -11l-3 -3q-4 -3 -8 -6.5t-6 -6.5q-23 -35 -45 -84t-22 -81q0 -5 -2 -29t-2 -34q0 -2 -0.5 -3.5t-2 -2.5t-3 -1.5t-4 -1.5t-3.5 -2q-1 0 -6.5 -3t-8.5 -3
q-7 0 -13 6.5t-6 14.5q0 14 11 182t11 186q0 17 -6 2t-66 -137t-82 -183q-13 -39 -15 -60q-16 -183 -40.5 -259.5t-66.5 -76.5zM59 45q62 0 186 185q2 3 2 9q0 12 -12 12q-1 0 -5.5 4t-10.5 4q-24 0 -99 -82t-75 -116q0 -16 14 -16zM188 -314q3 0 9.5 16.5t16 59.5t16.5 100
q2 15 -2 15t-9 -10q-16 -40 -27.5 -91t-11.5 -77q0 -13 8 -13z" />
    <glyph glyph-name="gi" unicode="gi" horiz-adv-x="531" 
d="M521 421q-11 0 -20 10.5t-9 25.5q0 27 35 27q2 0 4 -1.5t5 -4.5t6 -5q12 -10 12 -16q0 -11 -11 -20q-2 -2 -6.5 -6t-8 -7t-7.5 -3zM172 -292q-37 0 -37 46q0 60 100 218q18 25 18 48q0 35 -1.5 90.5t-1.5 56.5q0 9 -5 9q-7 0 -10 -6q-2 -4 -9.5 -11t-9.5 -10
q-78 -118 -105 -147q-39 -43 -69 -43q-38 0 -38 49q0 45 45 127.5t104 148.5t94 66q12 0 23.5 -9.5t11.5 -24.5q0 -14 17 -23q22 -9 22 -30q0 -22 -18 -47q-10 -20 -10 -47q0 -73 2 -91q1 -11 3 -12.5t10 6.5q2 4 24 34.5t53.5 77t54.5 86.5q9 16 19.5 23t14.5 7.5t14 0.5
q2 0 4 -1t4.5 -3t4.5 -3q22 -7 22 -20q0 -6 -14.5 -76t-14.5 -128q0 -8 3.5 -17.5t3.5 -10.5q0 -3 -0.5 -9t-0.5 -8q0 -1 2 -8t2 -10q0 -9 -6.5 -15.5t-16.5 -6.5q-16 0 -29 11.5t-13 31.5q0 17 13.5 114.5t13.5 106.5q0 6 -3 7.5t-8 -3.5q-116 -153 -141 -204q-2 -4 -7 -13
t-7.5 -16.5t-2.5 -15.5q0 -136 -41 -216t-84 -80zM60 16q25 0 84.5 83t95.5 152q7 8 7 20q0 17 -17 17q-20 0 -62.5 -52.5t-77 -117t-34.5 -93.5q0 -9 4 -9zM177 -244q8 0 25.5 24t33.5 64t16 75q0 21 -6 21q-5 0 -11 -9q-65 -113 -65 -162q0 -13 7 -13z" />
    <glyph glyph-name="gj" unicode="gj" horiz-adv-x="524" 
d="M473 429q-10 0 -22 8t-12 21q0 2 0.5 4t3 3.5t3.5 2.5t5.5 3.5t6.5 3.5t6 5t8 6.5t8 2.5q12 0 19 -12.5t7 -21.5q0 -8 -7 -15q-15 -11 -26 -11zM252 -342q-44 0 -44 14q0 5 4 5l3 3q3 2 6.5 4.5t5.5 2.5q15 5 20 5q50 0 81 23.5t58 70.5q34 53 53.5 179.5t19.5 286.5
q0 10 -9 1q-3 -4 -10.5 -14.5t-11.5 -15.5q-3 -5 -10 -8.5t-10 -7.5q-20 -33 -53 -96.5t-40 -73.5q-7 -12 -9 -43q-9 -131 -30 -184t-58 -53q-17 0 -27.5 13t-10.5 37q0 54 77 177q12 19 12 44q0 40 0.5 88t0.5 63q0 11 -5 11q-7 0 -11 -6q-55 -84 -114 -144t-98 -60t-39 54
q0 36 35.5 103t89.5 122.5t98 55.5q17 0 29.5 -14t12.5 -32q0 -10 9 -10q37 0 37 -30q0 -16 -4.5 -71.5t-4.5 -74.5q0 -16 9 -1q95 161 119 208q13 27 33 27q4 0 21 -10q17 -12 17 -39q0 -156 -23 -302.5t-59 -207.5q-61 -100 -170 -100zM54 32q4 -4 10 2q2 1 14.5 8.5
t17.5 11t17.5 12.5t22 19t23 24t28.5 33.5t31 43.5q3 4 8.5 15.5t8.5 15.5q7 11 -4 11q-10 0 -10 10q0 20 -16 20q-14 0 -51 -34.5t-70.5 -88t-33.5 -94.5q0 -6 4 -9zM229 -203q3 0 8 7.5t12 32.5t11 63q1 13 -4 13q-3 0 -7 -11q-27 -66 -27 -92q0 -13 7 -13z" />
    <glyph glyph-name="gk" unicode="gk" horiz-adv-x="609" 
d="M158 -329q-30 0 -30 52q0 33 25 112t60 151q14 33 14 56q0 110 -3 121q-2 8 -6 8t-8 -6q-43 -65 -66 -96t-53.5 -58t-56.5 -27q-35 0 -35 35q0 48 47 120.5t98 122.5t68 50q24 0 31 -22q4 -11 10 -14q4 -2 10 -12t6 -22q0 -45 -0.5 -71t-0.5 -31.5t-0.5 -9.5t-0.5 -10
q0 -7 3 -8.5t6 5.5q83 172 110 289q6 25 36 25q3 0 7.5 -4.5t6.5 -5.5q9 -2 11 -6q9 -10 9 -23q0 -2 -3 -11t-4 -15q0 -1 -1.5 -5.5t-1.5 -6.5q0 -3 -3.5 -23.5t-3.5 -25.5q0 -1 -1 -59t-1 -92q0 -9 5 -9t10 4q16 15 55.5 56.5t50.5 51.5q4 3 8 8l6 7.5t6 4.5t10 2
q27 0 27 -20q0 -5 -9 -19q-1 -2 -1.5 -5.5t-2 -7t-3.5 -5.5q-3 -3 -13 -7t-14 -7q-53 -40 -127 -118q-10 -9 -10 -16q0 -9 18 -14q106 -37 167 -50q3 0 7 -0.5t6 -1t5.5 -1.5t5 -2t3 -3.5t2.5 -5.5t1 -8q0 -7 -12 -13q-10 -8 -15 -8q-4 0 -16 4t-19 5q-22 4 -57 15t-61 20
t-29 9q-12 0 -12 -15q0 -8 -1 -46.5t-1 -48.5q0 -7 -2.5 -16.5t-2.5 -17.5t-7.5 -16.5t-14.5 -8.5q-4 0 -7 3t-3 5q0 5 1.5 14t1.5 16q0 13 1 23.5t1 15.5q0 12 -1.5 40t-1.5 36q0 14 -3 18t-14 6q-24 3 -24 22q0 16 24 36q3 3 7 5.5t6 4l4 3t3 4t1 5.5v88t0.5 72t0.5 33
q0 14 -5 13q-3 0 -5 -6q-22 -51 -59.5 -130t-51.5 -111q-9 -22 -9 -59q0 -159 -33 -248t-76 -89zM50 35q6 0 11 2q26 14 57 51.5t47.5 64.5t46.5 77q4 8 4 19t-9 11q-8 0 -47 -41.5t-76 -95t-37 -78.5q0 -7 3 -10zM172 -284q2 0 8 8.5t15 27t17 44t13.5 64.5t5.5 83
q0 12 -3 12t-6 -9q-16 -41 -36.5 -116.5t-20.5 -100.5q0 -13 7 -13z" />
    <glyph glyph-name="gl" unicode="gl" horiz-adv-x="461" 
d="M170 -278q-7 0 -11.5 11.5t-4.5 21.5q0 21 2 38.5t8.5 39t10 32t16 41.5t17.5 43q11 27 11 73q0 28 -0.5 78t-0.5 52q0 9 -5 9q-6 0 -9 -7q-22 -27 -47.5 -64t-39 -55.5t-36.5 -33t-52 -14.5q-32 0 -32 50q0 42 33.5 113t86.5 128.5t98 57.5q13 0 26 -8t13 -20
q0 -13 18 -19q18 -10 18 -33q0 -7 -7 -23.5t-8 -26.5q-2 -7 -4.5 -17t-3 -15t-1.5 -18t-1.5 -34t-0.5 -56q0 -9 5 -9q5 1 10 10q7 14 45 72.5t66.5 112.5t36.5 93q3 16 6 34t4.5 29.5t4 23.5t4 19.5t3.5 15t4.5 11.5t5.5 7.5t7 4.5t9 1q12 0 19.5 -5.5t7.5 -11.5
q0 -15 -12 -51q-74 -219 -74 -389q0 -20 6 -20q4 0 7.5 -4t3.5 -8q0 -3 2.5 -10.5t2.5 -12.5t-11 -11.5t-17 -6.5q-10 0 -22 14q-10 13 -10 14q-4 16 -4 44q0 17 19 144q1 9 -1 10.5t-8 -6.5t-25.5 -36t-31.5 -46t-28.5 -46t-26.5 -52q-19 -45 -19 -60q0 -72 -15.5 -124.5
t-33.5 -73.5t-34 -21zM50 34q22 0 49 30t69 91q14 21 39 56q5 8 7 21.5t4 17.5q6 8 6 19q0 18 -17 18q-22 0 -62.5 -39.5t-74.5 -98t-34 -102.5q0 -13 14 -13z" />
    <glyph glyph-name="gm" unicode="gm" horiz-adv-x="898" 
d="M184 -292q-19 0 -28 10.5t-9 36.5q0 60 100 218q18 25 18 47q0 25 -0.5 53.5t-0.5 47.5v22q-1 12 -2 21.5t-1 12.5q0 9 -5 9t-9 -6q-3 -5 -10.5 -12.5l-8.5 -8.5q-69 -89 -113.5 -131.5t-76.5 -42.5q-18 0 -29 13t-11 36q0 47 66 139.5t128 140.5q5 4 12 10t10.5 8.5
t10.5 5t17 2.5q13 0 21.5 -8t8.5 -21q0 -5 1 -10t1 -8q0 -4 7 -6q2 -1 6.5 -3t6.5 -3t5 -3t5 -4.5t3 -6t1 -8.5q0 -14 -3 -54t-2 -58q0 -16 2 -40t2 -29q0 -21 12 -4q2 3 22.5 35.5t49.5 78t51 79.5q1 2 6.5 10.5t9.5 14.5t11 11t13 5q5 0 13 3.5t11 3.5q18 0 18 -27
q0 -3 -11 -33q-41 -134 -49 -186q0 -16 2 -16t10 8q21 21 22 23q1 4 6 10t9.5 10.5t10.5 10t8 7.5q4 4 22 27q3 2 11.5 15.5t19.5 23.5q14 13 37 37t37 35t26 11t12 -34q0 -14 -8 -71t-8 -63q0 -1 1.5 -3.5t4.5 -2.5t6 5q8 8 17 19q2 2 4.5 5.5t4.5 5.5q2 3 7.5 9.5t6.5 7.5
q2 2 10 9.5t15 13.5q54 42 78 42q5 0 10 -10.5t6 -17.5q7 -42 7 -144q0 -13 13 -13q2 0 5.5 1.5t6.5 1.5q5 0 9 -5.5t4 -11.5q0 -11 -12.5 -23.5t-25.5 -12.5q-22 0 -35.5 12t-13.5 32q0 57 -6 115q-1 10 -11 10q-11 0 -31 -20.5t-63 -74.5q-42 -54 -71 -54q-17 0 -17 37
q0 15 13.5 67t14.5 67q0 7 -4 7q-3 0 -4 -3q-11 -11 -55 -66q-3 -4 -17.5 -21t-17.5 -23q-7 -10 -20 -23.5t-17 -20.5q-22 -29 -30.5 -39t-20 -17.5t-24.5 -7.5q-18 0 -18 27q0 20 12 58q34 163 34 190q0 4 -2 5t-4 0t-3 -3q-93 -126 -122 -184q-17 -32 -17 -44
q0 -136 -41 -216.5t-84 -80.5zM59 38q4 0 24.5 17t55 52.5t69.5 77.5q48 60 48 88q0 6 -8.5 9.5t-15.5 3.5q-28 0 -107 -106t-79 -132q0 -10 11 -10h2zM189 -244q20 0 47.5 53t27.5 110q0 22 -7 22q-4 0 -10 -10q-65 -108 -65 -162q0 -13 7 -13z" />
    <glyph glyph-name="gn" unicode="gn" horiz-adv-x="704" 
d="M225 -281q-13 0 -16.5 9.5t-3.5 41.5q0 21 10 82t24 98q12 27 12 73q0 164 -5 185q-2 9 -6 9q-5 0 -9 -6q-44 -75 -54 -93q-40 -81 -72 -108.5t-69 -27.5q-16 0 -27.5 12.5t-11.5 37.5q0 37 41 109t93.5 129.5t81.5 57.5q16 0 26.5 -11t10.5 -31q0 -9 7 -13q18 -7 21 -15
q2 -4 3 -12q13 -83 8 -188q0 -10 5 -10t11 11q10 19 39 67t51.5 88.5t30.5 62.5q16 38 39 38q30 0 30 -24q0 -2 1.5 -6t1.5 -7q0 -6 -7 -21.5t-8 -19.5q-33 -145 -33 -171q0 -12 1 -12q3 0 7 9q1 2 10 12t11 16q7 16 19.5 48.5t20 50t20.5 39.5t28 36q5 9 12 14q27 22 55 22
q8 0 15.5 -8t9.5 -17q5 -18 12 -90t7 -109v-90q0 -9 -5.5 -16t-14.5 -7q-12 0 -22 9t-10 24q0 2 2.5 6t2.5 6q0 4 -0.5 11t-0.5 10q0 151 -23 207l-4 8q-3 0 -11 -4q-6 -2 -14 -17.5t-18 -39.5t-12 -28t-10 -10t-9 -9q-16 -21 -34 -70.5t-31 -65.5q-34 -38 -53 -38
q-8 0 -18 6.5t-10 16.5q0 27 20 118t20 95q0 5 -1.5 6.5t-4 -0.5t-5.5 -6q-69 -103 -109 -197q-13 -35 -13 -50q0 -49 -4.5 -90t-12 -67t-16.5 -43.5t-17 -25t-15 -7.5zM55 30q9 0 21.5 6.5t34.5 31.5t43 66q45 83 67 115q2 4 2 8q0 3 -3.5 5t-5.5 4q-5 10 -17 10
q-21 0 -88 -98.5t-67 -131.5q0 -16 13 -16z" />
    <glyph glyph-name="go" unicode="go" horiz-adv-x="590" 
d="M204 -256q-17 0 -28 12.5t-11 36.5q0 59 59 160q13 22 13 48q0 197 -1 204q-2 8 -6 8q-2 0 -8 -6q-10 -8 -16 -15.5t-9.5 -13t-9.5 -18.5t-12 -23q-76 -142 -139 -142q-32 0 -32 41q0 45 39 114.5t86.5 120.5t71.5 51q41 0 41 -40q0 -3 2.5 -6.5t5.5 -3.5q27 0 27 -39
q0 -157 2 -172q1 -9 4.5 -11t10.5 8q18 37 24 49q2 5 7.5 8t8.5 10q14 30 32 73t33 81.5t19 46.5l3.5 7t3 5.5t4.5 5.5t6 2.5t10 1.5q39 0 39 -19q0 -11 14 -11q1 0 9.5 2.5t20.5 2.5q31 0 52 -26t21 -66q0 -64 -28.5 -133.5t-66 -112.5t-64.5 -43q-23 0 -37.5 22.5
t-14.5 56.5q0 52 18.5 138t18.5 91q0 6 -2 6q-2 -1 -3 -3q-102 -186 -131 -253q-13 -34 -13 -50q0 -206 -74 -206zM62 51q21 0 84 102q36 62 56 90q2 3 2 7q0 2 -1 3t-3.5 2.5t-4.5 2.5q-4 10 -10 10q-17 0 -76.5 -91.5t-59.5 -111.5q0 -14 13 -14zM446 -3q24 0 50 40t45 96
q12 43 12 90q0 40 -25 40q-5 0 -12.5 -3t-14.5 -3q-5 0 -10 1.5t-6 1.5q-7 0 -14 -15q-1 -2 -7.5 -24t-8.5 -28.5t-8 -27t-8 -33t-5.5 -32.5t-4.5 -38.5t-1 -38.5q0 -26 18 -26zM213 -203q4 0 8.5 5.5t9.5 28.5t5 59q0 12 -4 12q-3 0 -7 -10q-19 -43 -19 -82q0 -13 7 -13z
" />
    <glyph glyph-name="gp" unicode="gp" horiz-adv-x="616" 
d="M296 -3q-9 -29 -10 -43q-9 -98 -32 -158t-57 -60q-17 0 -27.5 13t-10.5 37q0 20 12 49t24 49.5t39 64.5q16 23 18 72q2 47 -0.5 88.5t-5.5 66.5l-4 24q0 8 -6 8q-4 0 -8 -7q-41 -75 -83.5 -125t-69 -66.5t-43.5 -16.5q-13 0 -19 1.5t-11.5 10.5t-5.5 27q0 34 42.5 103.5
t95.5 125.5t79 56q34 0 34 -25q0 -1 3 -4t5 -3q1 0 5.5 -2.5t9.5 -2.5q13 0 16 -31q4 -31 4 -172q0 -7 4 -8q2 0 5 6q71 158 75 192q4 27 23 27q1 0 8 -2.5t13 -3.5q7 -1 13 -8.5t6 -15.5q0 -38 -0.5 -125t-0.5 -110q0 -14 4 -14q2 0 5 12q2 9 8 27t8 28q2 9 8 19t8 16
q37 126 64.5 175.5t72.5 49.5q15 0 30.5 -18.5t15.5 -43.5q0 -82 -51 -163.5t-98 -81.5q-7 0 -17 2q-2 1 -4.5 2.5t-4.5 1.5q-4 0 -5 -4q-34 -103 -42 -147q-5 -24 -9 -54t-6 -48t-6 -35t-10.5 -25t-17.5 -8q-16 0 -16 31q0 6 5 41t10 106t5 166q0 108 -6 148q0 3 -2 4
t-3.5 0t-2.5 -3q-29 -69 -83 -216zM523 81q29 0 61 58t32 122q0 33 -15 33q-38 0 -101 -187q-4 -16 2 -16q4 0 8.5 -5t12.5 -5zM47 41q21 0 78 64.5t96 140.5q2 4 2 7q0 4 -5.5 9t-9.5 5q-23 0 -96 -95.5t-73 -122.5q0 -8 8 -8zM209 -210q3 0 9 13.5t12.5 35.5t8.5 40
q1 13 -4 13t-13 -18q-20 -49 -20 -71q0 -13 7 -13z" />
    <glyph glyph-name="gq" unicode="gq" horiz-adv-x="715" 
d="M177 -345q-38 0 -38 49q0 61 106 227q13 20 16 46q11 70 11 220q0 10 -4 10q-6 0 -9 -7q-44 -84 -110.5 -152.5t-116.5 -68.5q-33 0 -33 44q0 31 43 105t101 137.5t92 63.5q14 0 21.5 -9t14.5 -28q2 -5 13 -5q28 0 28 -36q0 -102 -9 -230q-1 -9 3 -10.5t9 4.5
q45 45 89 112q99 145 149 192q5 5 11 13t9.5 11.5t11.5 7t19 3.5q17 0 23.5 -8.5t6.5 -33.5q0 -5 4 -5q18 0 22 -11.5t4 -38.5q0 -183 -2.5 -326.5t-2.5 -148.5q0 -25 4 -48t4 -32t-7 -19t-17 -10q-4 0 -9 3l-5 4q-3 1 -6.5 1t-5.5 1q-4 2 -8 19q-1 10 -0.5 17.5t1.5 28
t1 35.5q0 7 1.5 54t3.5 144t2 224q0 9 -6 9q-4 0 -9 -7q-34 -53 -49 -81q-21 -42 -36.5 -69t-38 -58.5t-46 -47.5t-48.5 -16q-18 0 -29.5 12t-11.5 30q0 21 13 49q2 6 0 7.5t-6 -4.5q-34 -37 -42 -52q-12 -17 -14 -35q-34 -286 -118 -286zM63 38q16 0 39 16.5t63 66.5
t83 126q2 3 2 8q0 4 -3.5 8t-8.5 4q-2 0 -6 4t-8 4q-23 0 -98 -99.5t-75 -129.5q0 -2 3 -4t6 -3zM406 -18q13 0 51.5 47t72.5 113q49 92 70 122q4 6 0 9q-4 2 -6 7.5t-7 5.5q-32 0 -113 -128t-81 -160q0 -16 13 -16zM190 -299q3 0 11 17t20.5 56t22.5 87q3 14 -1 14t-10 -9
q-50 -87 -50 -153q0 -12 7 -12z" />
    <glyph glyph-name="gr" unicode="gr" horiz-adv-x="572" 
d="M175 -323q-36 0 -36 47t70 210q12 31 12 50q0 34 1.5 80.5t2.5 80t1 37.5q0 8 -5 8t-9 -6q-79 -110 -116 -149.5t-75 -39.5q-18 0 -25.5 9t-7.5 32q0 40 43 114t99.5 133t90.5 59q28 0 31 -32q1 -13 17 -18q19 -10 19 -28q0 -6 -7 -27.5t-11 -39.5q-9 -56 -9 -135
q0 -6 2 -8t4 -1t4 4q16 27 35.5 65.5t40.5 81t27 54.5l4.5 9l5.5 11t6 10.5t7.5 10t8.5 6t10 2.5q9 0 21 -17q9 -15 17 -25q10 -22 10 -106q0 -9 -1.5 -27.5t-1.5 -31.5q0 -7 3.5 -7.5t4.5 8.5q28 132 60 171q9 10 15 18t7 11t4 5t4 2h9q10 0 17.5 -4t13.5 -4q3 0 8.5 3.5
t7.5 3.5q5 0 10.5 -7t5.5 -15q0 -12 -14.5 -25t-34.5 -13q-58 0 -100 -203q-2 -9 -12 -43q-3 -20 -35 -20q-9 0 -21 13.5t-12 26.5q0 3 2 10t4 26t2 52q0 98 -10 128q-2 9 -11 0q-1 -1 -4 -2.5l-5 -2.5t-5 -4.5t-5 -8.5q-2 -3 -11 -17.5t-12 -21.5q-39 -72 -80 -175
q-10 -20 -10 -43q0 -131 -23 -208t-59 -77zM44 50q3 -2 11 3q22 13 49.5 43.5t43 52t49.5 72.5q6 9 20 33q6 9 6 19q0 17 -16 17q-30 0 -98.5 -98.5t-68.5 -131.5q0 -6 4 -10zM176 -279q4 0 10.5 16t14 48.5t11.5 71.5q1 13 -4 13q-3 0 -7 -11q-12 -29 -22.5 -70.5
t-10.5 -57.5q0 -10 8 -10z" />
    <glyph glyph-name="gs" unicode="gs" horiz-adv-x="547" 
d="M151 -290q-35 0 -35 45q0 59 96 210q17 25 17 47q0 33 -1.5 80t-1.5 49q0 8 -5 8t-9 -6q-6 -10 -22 -17t-22 -14q-27 -31 -45 -57q-22 -33 -27 -38q-19 -19 -51 -19q-37 0 -37 48q0 42 38.5 107.5t90.5 114.5t86 49q12 0 23 -8.5t11 -23.5q0 -16 17 -22q21 -11 21 -30
q0 -20 -17 -45q-10 -20 -10 -46q0 -15 -0.5 -32.5t-0.5 -26.5t1 -17q2 -19 11 -4q8 12 33 43t41 46q1 1 4 4.5t6 6.5t6 5q8 10 0 16q-12 8 -12 35q0 41 30.5 71.5t74.5 30.5q21 0 33.5 -9.5t12.5 -24.5q0 -6 -7 -18t-7 -26q0 -10 -6.5 -17.5t-19.5 -16.5t-20 -16
q-7 -8 1 -16q4 -2 17.5 -12.5t30.5 -19.5q41 -21 41 -54q0 -17 -12 -45q-3 -6 -15 -11.5t-14 -7.5q-27 -30 -50.5 -40.5t-60.5 -10.5q-35 0 -41 7q-3 2 -3 10q0 1 -2 4t-2 6q0 17 15 17q3 0 12.5 -2.5t25.5 -2.5q35 0 70 20.5t35 53.5q0 17 -23 28q-11 5 -30 19t-25 17
q-12 6 -20 -2q-1 -1 -11.5 -10.5t-23 -21.5t-27 -27t-28 -32.5t-20.5 -32.5q-16 -30 -16 -43q0 -67 -14 -122.5t-34 -86.5t-39.5 -47.5t-33.5 -16.5zM424 207q26 25 39 42q8 10 8 19q0 11 -17 11q-18 0 -35.5 -15.5t-17.5 -41.5q0 -7 10 -15q7 -7 13 0zM62 53q26 0 76 56.5
t79 112.5q6 8 6 18q0 17 -16 17q-32 0 -90.5 -75.5t-58.5 -119.5q0 -9 4 -9zM156 -244q7 0 24 23.5t32.5 62t15.5 72.5q0 21 -6 21q-4 0 -10 -10q-63 -107 -63 -156q0 -13 7 -13z" />
    <glyph glyph-name="gt" unicode="gt" horiz-adv-x="516" 
d="M234 -211q-16 0 -22.5 9.5t-6.5 36.5q0 67 27 137q9 23 12 56q2 21 7.5 76.5t5.5 70.5q0 10 -4 10t-8 -8q-77 -113 -105 -144q-56 -62 -107 -62q-32 0 -32 44q0 34 49 111.5t106.5 142t81.5 64.5q33 0 33 -37q0 -8 4.5 -12.5t9.5 -4.5q7 0 12.5 -9t5.5 -22
q0 -1 -4.5 -18.5t-8.5 -55.5t-4 -89q0 -8 4 -9t10 10q13 24 31.5 52.5t34.5 51t18 26.5t-2 6t-6 -3q-2 -7 -12 -12q-4 -3 -16 -3q-2 0 -4.5 4.5t-4.5 5.5q-7 3 -7 15q0 4 13 19q1 1 3.5 4.5t4.5 5.5q17 12 52 29q5 3 10.5 11.5t6.5 14.5q2 10 16.5 64t14.5 72q0 3 2.5 15.5
t2.5 14.5q0 15 7.5 19.5t26.5 4.5q11 0 15 -8t4 -29q0 -16 -11.5 -57.5t-13.5 -53.5q-1 -4 -3.5 -11.5t-3.5 -11.5q-2 -8 0.5 -10t12.5 1q15 5 49 13.5t44 8.5q18 0 18 -14q0 -16 -23 -16q-3 0 -7.5 2.5t-9.5 2.5q-3 0 -9 -2t-12.5 -5t-8.5 -4q-1 -1 -7 -2.5t-9 -3.5
q-1 0 -4.5 -4.5t-5.5 -5.5q-3 -1 -15.5 -11.5t-13.5 -10.5q-5 -3 -12.5 -15t-8.5 -18q-12 -73 -15 -107.5t-0.5 -64.5t2.5 -44q0 -3 1.5 -8.5t1.5 -10.5t-5 -15q-9 -14 -18 -14q-20 0 -29 9q-9 12 -9 19q0 26 6.5 92t14.5 104q1 8 -3 8q-2 0 -3 -2q-86 -128 -108 -182
q-2 -5 -6.5 -13.5t-6 -14.5t-1.5 -16q0 -86 -13 -137.5t-32 -51.5zM61 17q21 0 62.5 50.5t124.5 179.5q2 3 2 8q0 4 -3.5 8t-8.5 4q-2 0 -6 4t-8 4q-15 0 -58.5 -50.5t-81 -110t-37.5 -81.5q0 -16 14 -16z" />
    <glyph glyph-name="gu" unicode="gu" horiz-adv-x="763" 
d="M200 -260q-20 0 -28.5 10.5t-8.5 36.5q0 59 101 219q17 30 17 49q0 34 -5 94l-5 60q0 13 -5 13t-11 -7q-93 -151 -146 -202q-42 -41 -71 -41q-41 0 -41 55q0 35 34.5 109.5t88.5 140.5t99 66q12 0 20 -5t11 -9.5t16 -25.5q7 -9 13 -9q19 0 28.5 -11.5t9.5 -42.5
q0 -114 6 -139q5 -15 12 -2q14 23 56.5 84t62.5 92q2 2 6 14t5 14q2 3 5.5 5.5t4.5 3.5q14 22 33 22q13 0 29 -14q17 -12 17 -20q0 -5 -4 -13.5t-10 -21t-10 -22.5q-48 -144 -48 -181q0 -12 6 -12q9 0 21 11q28 28 72 83.5t65 98.5q12 23 17 29t13 6q34 0 34 -26
q0 -3 1.5 -8.5t1.5 -10.5q0 -3 -0.5 -12.5t-0.5 -13.5q4 -98 8 -130q3 -29 14 -29q3 0 8 -1.5t11 -1.5q5 0 11.5 4t9.5 4q8 0 13.5 -5.5t5.5 -11.5q0 -4 -1.5 -6.5t-4 -4t-7 -4.5t-7.5 -6q-10 -10 -32 -25.5t-34 -15.5q-10 0 -19 8t-12 25q-4 29 -8.5 94t-5.5 72
q-5 12 -6 12q-6 0 -9 -6q-34 -42 -78 -105q-3 -4 -7 -16t-7 -16q-6 -8 -18.5 -19.5t-15.5 -14.5q-38 -30 -71 -30q-17 0 -17 30q0 64 19.5 138t34.5 110q4 8 0.5 9t-8.5 -5q-15 -11 -66 -83t-71 -113q-15 -35 -15 -44q0 -137 -41 -208.5t-86 -71.5zM48 29q4 -2 12 3
q32 14 41 22q3 2 8 14t8 15q56 70 100 134q3 4 9 16.5t9 16.5t1.5 7.5t-5.5 3.5q-12 0 -12 11q0 21 -15 21t-53 -41t-72 -103.5t-34 -109.5q0 -5 3 -10zM206 -212q20 0 47 53.5t27 111.5q0 20 -5 20t-11 -9q-67 -111 -67 -162q0 -14 9 -14z" />
    <glyph glyph-name="gv" unicode="gv" horiz-adv-x="557" 
d="M322 162q-9 -18 -27 -50t-29.5 -54.5t-19.5 -41.5q-10 -22 -10 -43q0 -130 -23 -199.5t-60 -69.5q-35 0 -35 51q0 12 3.5 27.5t12 36t15.5 37t19.5 44.5t19.5 44q12 34 12 51q0 34 1 80t2.5 79.5t1.5 37.5q0 9 -5 9q-4 0 -9 -7q-17 -28 -47.5 -92.5t-52.5 -95t-47 -30.5
q-19 0 -33.5 13t-14.5 35q0 41 35.5 120t85.5 144t83 65q28 0 31 -33q1 -11 17 -18q19 -10 19 -28q0 -6 -7 -27t-11 -39q-9 -57 -9 -136q0 -8 4 -8.5t6 3.5q24 40 65.5 123.5t44.5 93.5q8 23 26 23q4 0 10 -5t9 -6q19 -4 19 -22q0 -11 -2 -30.5t-2 -20.5q0 -138 5 -173
q3 -14 10 -14q13 0 25 20q19 36 86.5 184t74.5 158q3 4 8 7.5t7 7.5q5 7 15 7q7 0 7 -15l1 -3q1 -3 1 -5q0 -5 -3 -11q-26 -32 -89.5 -181.5t-78.5 -176.5q-34 -58 -71 -58q-14 0 -24.5 16.5t-10.5 41.5t-4 61q-6 62 -6 127q0 15 -9 3q-2 -6 -20.5 -29t-21.5 -28zM51 39
q5 -1 11 5q14 13 53 84t61 103q11 16 20 34q6 8 6 19q0 16 -16 16q-29 0 -84 -108t-55 -144q0 -6 4 -9zM155 -248q5 0 11 10.5t13.5 38.5t11.5 67q1 12 -4 12q-3 0 -7 -10q-33 -80 -33 -107q0 -11 8 -11z" />
    <glyph glyph-name="gw" unicode="gw" horiz-adv-x="792" 
d="M204 -209q-21 0 -35 30t-14 60q0 15 10.5 35t23 36t13.5 19q8 19 7 34q-4 39 3.5 83t15.5 70.5t7 29.5q-3 9 -7 9q-1 0 -9 -6q-28 -24 -64 -89q-28 -52 -63.5 -84.5t-65.5 -32.5q-13 0 -23 13t-10 31q0 50 76.5 168t126.5 118q15 0 29 -10t14 -17q0 -6 10 -11
q9 -4 15.5 -15t6.5 -23q0 -4 -12.5 -88.5t-10.5 -118.5q1 -8 6 -9.5t8 5.5q117 229 129 264q2 6 5.5 19.5t6 20t8 12.5t13.5 6q23 0 31 -12t8 -24q0 -74 2 -139.5t2 -72.5q0 -10 6 -10q3 0 9.5 9t15 24t16.5 28.5t16 28t10 18.5q3 5 14.5 26t17 29.5t15.5 22.5t19 19.5
t19 5.5q20 0 27 -27q18 -52 24 -100q0 -4 2 -10.5t2 -11.5q0 -14 4 -30q4 -9 6 -31q2 -11 6 -11t12 8q15 30 20 38q20 43 25 109q2 14 11 37.5t11 39.5q3 20 6.5 24.5t18.5 4.5q14 0 14 -24q0 -54 -30 -154q0 -1 -23 -53l-16.5 -33t-19 -37t-17 -26.5t-21 -23t-20.5 -6.5
q-20 0 -29 89q-14 152 -37 152q-6 0 -17.5 -20.5t-27 -55.5t-20.5 -45l-3 -6t-6 -11t-7 -13q-36 -65 -51 -77q-10 -8 -19 -8q-29 0 -29 65q0 28 -1 109.5t-1 89.5q0 7 -3.5 8.5t-8.5 -6.5q-64 -128 -83 -185q-1 -5 -12 -19.5t-12 -16.5q-25 -45 -26 -48q-2 -14 10 -32
q12 -12 12 -53q0 -47 -33 -79.5t-59 -32.5zM54 43q21 0 70 77q40 68 80 120q2 4 2 8q0 3 -1 4t-4 2.5l-5 2.5q-5 11 -10 11q-27 0 -86.5 -93t-59.5 -117q0 -15 14 -15zM212 -166q4 0 12.5 9t17 27.5t8.5 38.5q0 5 -0.5 8.5t-2 5.5t-3 3.5t-4 2t-3 0.5h-3.5h-3q-2 0 -9 -6.5
t-14 -16.5t-7 -18q0 -54 11 -54z" />
    </font>
</defs>
</svg>
